<?xml version="1.0" standalone="no"?>
<!DOCTYPE svg PUBLIC "-//W3C//DTD SVG 1.1//EN" "http://www.w3.org/Graphics/SVG/1.1/DTD/svg11.dtd">
<svg width="66mm" height="68mm" viewBox="-33 -33 66 68" xmlns="http://www.w3.org/2000/svg" version="1.1">
<title>OpenSCAD Model</title>
<path d="
M 5.01987,34.0304 L 5.10208,34.0248 L 5.16977,34.0155 L 5.23659,34.0016 L 5.302,33.9833 L 5.36646,33.9604
 L 5.429,33.9332 L 5.48946,33.9019 L 5.54767,33.8665 L 5.60367,33.827 L 5.65656,33.784 L 5.70612,33.7377
 L 5.75281,33.6877 L 5.79611,33.6344 L 5.83508,33.5792 L 5.87056,33.5209 L 5.90207,33.4601 L 5.92918,33.3977
 L 5.95207,33.3332 L 5.97043,33.2677 L 5.9843,33.201 L 5.99359,33.1334 L 5.99825,33.0654 L 5.99825,32.997
 L 5.99359,32.9292 L 5.9843,32.8614 L 5.97041,32.7946 L 5.95207,32.7292 L 5.92917,32.6647 L 5.90201,32.6022
 L 5.8707,32.5418 L 5.83508,32.4832 L 5.79591,32.4277 L 5.74232,32.3619 L 5.73883,32.3578 L 5.60956,32.1989
 L 5.49144,32.0316 L 5.38499,31.8566 L 5.29076,31.6747 L 5.20915,31.4868 L 5.14055,31.2938 L 5.0853,31.0965
 L 5.04361,30.896 L 5.01573,30.693 L 5,30.3863 L 5,29.0446 L 5.00699,28.8399 L 5.02794,28.6361
 L 5.06274,28.4343 L 5.11125,28.2352 L 5.17322,28.04 L 5.24837,27.8494 L 5.33635,27.6644 L 5.43674,27.4859
 L 5.54909,27.3146 L 5.67287,27.1514 L 5.8075,26.997 L 5.95235,26.8521 L 6.10674,26.7175 L 6.26996,26.5937
 L 6.44125,26.4814 L 6.61981,26.381 L 6.80479,26.293 L 6.99536,26.2178 L 7.19061,26.1559 L 7.38963,26.1074
 L 7.59151,26.0726 L 7.79527,26.0516 L 8,26.0446 L 8.20473,26.0516 L 8.40849,26.0726 L 8.61037,26.1074
 L 8.80449,26.1545 L 22.2919,29.9088 L 22.4873,29.9704 L 22.6779,30.0453 L 22.8631,30.1329 L 23.0418,30.233
 L 23.2133,30.3451 L 23.3767,30.4686 L 23.5314,30.603 L 23.5903,30.66 L 23.7799,30.8385 L 23.857,30.9062
 L 24.0417,31.0576 L 24.1229,31.1197 L 24.3178,31.2584 L 24.4029,31.3146 L 24.6069,31.4398 L 24.6959,31.4903
 L 24.9074,31.6009 L 25,31.6454 L 25.2186,31.7413 L 25.314,31.7793 L 25.5388,31.8602 L 25.6361,31.8915
 L 25.8659,31.9568 L 25.9655,31.9815 L 26.1992,32.031 L 26.3,32.0488 L 26.5363,32.0821 L 26.6386,32.0931
 L 26.8767,32.1102 L 26.9791,32.1141 L 27.2183,32.115 L 27.3204,32.1119 L 27.5586,32.0966 L 27.6611,32.0864
 L 27.8976,32.0548 L 27.9986,32.0378 L 28.2327,31.9901 L 28.3323,31.9662 L 28.5628,31.9026 L 28.6602,31.8721
 L 28.8858,31.7928 L 28.9811,31.7557 L 29.201,31.6611 L 29.2933,31.6177 L 29.5057,31.5086 L 29.5956,31.4585
 L 29.7999,31.3354 L 29.886,31.2793 L 30.0815,31.1425 L 30.1636,31.0807 L 30.3494,30.9307 L 30.4267,30.8638
 L 30.6023,30.701 L 30.6745,30.6294 L 30.8385,30.4552 L 30.9062,30.3781 L 31.0576,30.1934 L 31.1197,30.1122
 L 31.2584,29.9172 L 31.3146,29.8322 L 31.4398,29.6281 L 31.4903,29.5392 L 31.6009,29.3276 L 31.6454,29.2351
 L 31.7413,29.0166 L 31.7793,28.9211 L 31.8602,28.6964 L 31.8915,28.5988 L 31.9568,28.3691 L 31.9815,28.2696
 L 32.031,28.0358 L 32.0487,27.9353 L 32.0822,27.6983 L 32.093,27.5967 L 32.1102,27.3584 L 32.1141,27.256
 L 32.115,27.0168 L 32.1119,26.9147 L 32.0966,26.6765 L 32.0864,26.574 L 32.0548,26.3374 L 32.0378,26.2365
 L 31.9901,26.0026 L 31.9661,25.9025 L 31.9026,25.6723 L 31.8721,25.5749 L 31.7928,25.3492 L 31.7557,25.254
 L 31.6612,25.0343 L 31.6176,24.9417 L 31.5085,24.7291 L 31.4587,24.6397 L 31.3353,24.435 L 31.2794,24.3491
 L 31.1425,24.1536 L 31.0807,24.0715 L 30.9307,23.8857 L 30.8638,23.8084 L 30.7012,23.633 L 30.6697,23.6012
 L 30.5304,23.4509 L 30.4017,23.2915 L 30.2843,23.1237 L 30.1785,22.9483 L 30.0849,22.766 L 30.0041,22.5778
 L 29.909,22.2924 L 23.9277,0.804489 L 23.8795,0.605377 L 23.845,0.403458 L 23.8244,0.199646 L 23.8178,-0.00509644
 L 23.8251,-0.209808 L 23.8464,-0.413544 L 23.8816,-0.615356 L 23.9277,-0.804489 L 29.909,-22.2924 L 29.9706,-22.4878
 L 30.0454,-22.6785 L 30.1331,-22.8636 L 30.2332,-23.0423 L 30.3452,-23.2138 L 30.4687,-23.3773 L 30.6697,-23.6012
 L 30.7012,-23.633 L 30.8638,-23.8084 L 30.9307,-23.8857 L 31.0807,-24.0715 L 31.1425,-24.1536 L 31.2794,-24.3491
 L 31.3353,-24.435 L 31.4587,-24.6397 L 31.5085,-24.7291 L 31.6176,-24.9417 L 31.6612,-25.0343 L 31.7557,-25.254
 L 31.7928,-25.3492 L 31.8721,-25.5749 L 31.9026,-25.6723 L 31.9661,-25.9025 L 31.9901,-26.0026 L 32.0378,-26.2365
 L 32.0548,-26.3374 L 32.0864,-26.574 L 32.0966,-26.6765 L 32.1119,-26.9147 L 32.115,-27.0168 L 32.1141,-27.256
 L 32.1102,-27.3584 L 32.093,-27.5967 L 32.0822,-27.6983 L 32.0487,-27.9353 L 32.031,-28.0358 L 31.9815,-28.2696
 L 31.9568,-28.3691 L 31.8915,-28.5988 L 31.8602,-28.6964 L 31.7793,-28.9211 L 31.7413,-29.0166 L 31.6454,-29.2351
 L 31.6009,-29.3276 L 31.4903,-29.5392 L 31.4398,-29.6281 L 31.3146,-29.8322 L 31.2584,-29.9172 L 31.1197,-30.1122
 L 31.0576,-30.1934 L 30.9062,-30.3781 L 30.8385,-30.4552 L 30.6745,-30.6294 L 30.6023,-30.701 L 30.4267,-30.8638
 L 30.3494,-30.9307 L 30.1636,-31.0807 L 30.0815,-31.1425 L 29.886,-31.2793 L 29.7999,-31.3354 L 29.5956,-31.4585
 L 29.5057,-31.5086 L 29.2933,-31.6177 L 29.201,-31.6611 L 28.9811,-31.7557 L 28.8858,-31.7928 L 28.6602,-31.8721
 L 28.5628,-31.9026 L 28.3323,-31.9662 L 28.2327,-31.9901 L 27.9986,-32.0378 L 27.8976,-32.0548 L 27.6611,-32.0864
 L 27.5586,-32.0966 L 27.3204,-32.1119 L 27.2183,-32.115 L 26.9791,-32.1141 L 26.8767,-32.1102 L 26.6386,-32.0931
 L 26.5363,-32.0821 L 26.3,-32.0488 L 26.1992,-32.031 L 25.9655,-31.9815 L 25.8659,-31.9568 L 25.6361,-31.8915
 L 25.5388,-31.8602 L 25.314,-31.7793 L 25.2186,-31.7413 L 25,-31.6454 L 24.9074,-31.6009 L 24.6959,-31.4903
 L 24.6069,-31.4398 L 24.4029,-31.3146 L 24.3178,-31.2584 L 24.1229,-31.1197 L 24.0417,-31.0576 L 23.857,-30.9062
 L 23.7799,-30.8385 L 23.5686,-30.6396 L 23.5683,-30.64 L 23.4679,-30.5455 L 23.3095,-30.4156 L 23.1426,-30.2969
 L 22.968,-30.1897 L 22.7865,-30.0948 L 22.5989,-30.0124 L 22.4062,-29.9431 L 22.2919,-29.9088 L 0.804489,-23.9277
 L 0.605377,-23.8795 L 0.403458,-23.845 L 0.199646,-23.8244 L -0.00509644,-23.8178 L -0.209808,-23.8251 L -0.413544,-23.8464
 L -0.615356,-23.8816 L -0.804489,-23.9277 L -22.2919,-29.9088 L -22.4873,-29.9704 L -22.6779,-30.0453 L -22.8631,-30.1329
 L -23.0418,-30.233 L -23.2133,-30.3451 L -23.3767,-30.4686 L -23.5314,-30.603 L -23.5903,-30.66 L -23.7799,-30.8385
 L -23.857,-30.9062 L -24.0417,-31.0576 L -24.1229,-31.1197 L -24.3178,-31.2584 L -24.4029,-31.3146 L -24.6069,-31.4398
 L -24.6959,-31.4903 L -24.9074,-31.6009 L -25,-31.6454 L -25.2186,-31.7413 L -25.314,-31.7793 L -25.5388,-31.8602
 L -25.6361,-31.8915 L -25.8659,-31.9568 L -25.9655,-31.9815 L -26.1992,-32.031 L -26.3,-32.0488 L -26.5363,-32.0821
 L -26.6386,-32.0931 L -26.8767,-32.1102 L -26.9791,-32.1141 L -27.2183,-32.115 L -27.3204,-32.1119 L -27.5586,-32.0966
 L -27.6611,-32.0864 L -27.8976,-32.0548 L -27.9986,-32.0378 L -28.2327,-31.9901 L -28.3323,-31.9662 L -28.5628,-31.9026
 L -28.6602,-31.8721 L -28.8858,-31.7928 L -28.9811,-31.7557 L -29.201,-31.6611 L -29.2933,-31.6177 L -29.5057,-31.5086
 L -29.5956,-31.4585 L -29.7999,-31.3354 L -29.886,-31.2793 L -30.0815,-31.1425 L -30.1636,-31.0807 L -30.3494,-30.9307
 L -30.4267,-30.8638 L -30.6023,-30.701 L -30.6745,-30.6294 L -30.8385,-30.4552 L -30.9062,-30.3781 L -31.0576,-30.1934
 L -31.1197,-30.1122 L -31.2584,-29.9172 L -31.3146,-29.8322 L -31.4398,-29.6281 L -31.4903,-29.5392 L -31.6009,-29.3276
 L -31.6454,-29.2351 L -31.7413,-29.0166 L -31.7793,-28.9211 L -31.8602,-28.6964 L -31.8915,-28.5988 L -31.9568,-28.3691
 L -31.9815,-28.2696 L -32.031,-28.0358 L -32.0487,-27.9353 L -32.0822,-27.6983 L -32.093,-27.5967 L -32.1102,-27.3584
 L -32.1141,-27.256 L -32.115,-27.0168 L -32.1119,-26.9147 L -32.0966,-26.6765 L -32.0864,-26.574 L -32.0548,-26.3374
 L -32.0378,-26.2365 L -31.9901,-26.0026 L -31.9661,-25.9025 L -31.9026,-25.6723 L -31.8721,-25.5749 L -31.7928,-25.3492
 L -31.7557,-25.254 L -31.6612,-25.0343 L -31.6176,-24.9417 L -31.5085,-24.7291 L -31.4587,-24.6397 L -31.3353,-24.435
 L -31.2794,-24.3491 L -31.1425,-24.1536 L -31.0807,-24.0715 L -30.9307,-23.8857 L -30.8638,-23.8084 L -30.7012,-23.633
 L -30.6697,-23.6012 L -30.5304,-23.4509 L -30.4017,-23.2915 L -30.2843,-23.1237 L -30.1785,-22.9483 L -30.0849,-22.766
 L -30.0041,-22.5778 L -29.909,-22.2924 L -23.9277,-0.804489 L -23.8795,-0.605377 L -23.845,-0.403458 L -23.8244,-0.199646
 L -23.8178,0.00509644 L -23.8251,0.209808 L -23.8464,0.413544 L -23.8816,0.615356 L -23.9277,0.804489 L -29.909,22.2924
 L -29.9706,22.4878 L -30.0454,22.6785 L -30.1331,22.8636 L -30.2332,23.0423 L -30.3452,23.2138 L -30.4687,23.3773
 L -30.6697,23.6012 L -30.7012,23.633 L -30.8638,23.8084 L -30.9307,23.8857 L -31.0807,24.0715 L -31.1425,24.1536
 L -31.2794,24.3491 L -31.3353,24.435 L -31.4587,24.6397 L -31.5085,24.7291 L -31.6176,24.9417 L -31.6612,25.0343
 L -31.7557,25.254 L -31.7928,25.3492 L -31.8721,25.5749 L -31.9026,25.6723 L -31.9661,25.9025 L -31.9901,26.0026
 L -32.0378,26.2365 L -32.0548,26.3374 L -32.0864,26.574 L -32.0966,26.6765 L -32.1119,26.9147 L -32.115,27.0168
 L -32.1141,27.256 L -32.1102,27.3584 L -32.093,27.5967 L -32.0822,27.6983 L -32.0487,27.9353 L -32.031,28.0358
 L -31.9815,28.2696 L -31.9568,28.3691 L -31.8915,28.5988 L -31.8602,28.6964 L -31.7793,28.9211 L -31.7413,29.0166
 L -31.6454,29.2351 L -31.6009,29.3276 L -31.4903,29.5392 L -31.4398,29.6281 L -31.3146,29.8322 L -31.2584,29.9172
 L -31.1197,30.1122 L -31.0576,30.1934 L -30.9062,30.3781 L -30.8385,30.4552 L -30.6745,30.6294 L -30.6023,30.701
 L -30.4267,30.8638 L -30.3494,30.9307 L -30.1636,31.0807 L -30.0815,31.1425 L -29.886,31.2793 L -29.7999,31.3354
 L -29.5956,31.4585 L -29.5057,31.5086 L -29.2933,31.6177 L -29.201,31.6611 L -28.9811,31.7557 L -28.8858,31.7928
 L -28.6602,31.8721 L -28.5628,31.9026 L -28.3323,31.9662 L -28.2327,31.9901 L -27.9986,32.0378 L -27.8976,32.0548
 L -27.6611,32.0864 L -27.5586,32.0966 L -27.3204,32.1119 L -27.2183,32.115 L -26.9791,32.1141 L -26.8767,32.1102
 L -26.6386,32.0931 L -26.5363,32.0821 L -26.3,32.0488 L -26.1992,32.031 L -25.9655,31.9815 L -25.8659,31.9568
 L -25.6361,31.8915 L -25.5388,31.8602 L -25.314,31.7793 L -25.2186,31.7413 L -25,31.6454 L -24.9074,31.6009
 L -24.6959,31.4903 L -24.6069,31.4398 L -24.4029,31.3146 L -24.3178,31.2584 L -24.1229,31.1197 L -24.0417,31.0576
 L -23.857,30.9062 L -23.7799,30.8385 L -23.5686,30.6396 L -23.5683,30.64 L -23.4679,30.5455 L -23.3095,30.4156
 L -23.1426,30.2969 L -22.968,30.1897 L -22.7865,30.0948 L -22.5989,30.0124 L -22.4062,29.9431 L -22.2919,29.9088
 L -8.80449,26.1545 L -8.60538,26.1064 L -8.40346,26.0719 L -8.19965,26.0513 L -7.9949,26.0446 L -7.79019,26.052
 L -7.58646,26.0733 L -7.38464,26.1084 L -7.1857,26.1573 L -6.99055,26.2196 L -6.80013,26.295 L -6.61528,26.3833
 L -6.43689,26.484 L -6.26579,26.5967 L -6.10278,26.7207 L -5.94862,26.8556 L -5.80402,27.0007 L -5.66965,27.1553
 L -5.54616,27.3188 L -5.4341,27.4902 L -5.334,27.669 L -5.24634,27.8541 L -5.17151,28.0448 L -5.10988,28.2401
 L -5.06172,28.4393 L -5.02725,28.6412 L -5.00665,28.845 L -5,29.0446 L -5,30.3863 L -5.00699,30.591
 L -5.02794,30.7948 L -5.06274,30.9966 L -5.11125,31.1956 L -5.17322,31.3909 L -5.24837,31.5815 L -5.33635,31.7664
 L -5.43674,31.945 L -5.54909,32.1163 L -5.71014,32.3213 L -5.70967,32.3217 L -5.73225,32.3495 L -5.73883,32.3578
 L -5.74232,32.3619 L -5.79591,32.4277 L -5.83508,32.4832 L -5.8707,32.5418 L -5.90201,32.6022 L -5.92917,32.6647
 L -5.95207,32.7292 L -5.97041,32.7946 L -5.9843,32.8614 L -5.99359,32.9292 L -5.99825,32.997 L -5.99825,33.0654
 L -5.99359,33.1334 L -5.9843,33.201 L -5.97043,33.2677 L -5.95207,33.3332 L -5.92918,33.3977 L -5.90207,33.4601
 L -5.87056,33.5209 L -5.83508,33.5792 L -5.79611,33.6344 L -5.75281,33.6877 L -5.70612,33.7377 L -5.65656,33.784
 L -5.60367,33.827 L -5.54767,33.8665 L -5.48946,33.9019 L -5.429,33.9332 L -5.36646,33.9604 L -5.302,33.9833
 L -5.23659,34.0016 L -5.16977,34.0155 L -5.10208,34.0248 L -5.01987,34.0304 L -4.97455,34.0312 L 4.97455,34.0312
 z
M -25.0605,-28.8782 L -25.1127,-28.8843 L -25.1644,-28.894 L -25.2153,-28.9073 L -25.2652,-28.9239 L -25.3138,-28.944
 L -25.3609,-28.9673 L -25.4064,-28.9937 L -25.4499,-29.0232 L -25.4913,-29.0556 L -25.5304,-29.0908 L -25.567,-29.1285
 L -25.601,-29.1687 L -25.6321,-29.211 L -25.6602,-29.2554 L -25.6853,-29.3017 L -25.7072,-29.3495 L -25.7257,-29.3987
 L -25.7409,-29.449 L -25.7525,-29.5003 L -25.7607,-29.5522 L -25.7653,-29.6046 L -25.7663,-29.6572 L -25.7637,-29.7097
 L -25.7575,-29.7619 L -25.7478,-29.8136 L -25.7346,-29.8644 L -25.7179,-29.9143 L -25.6979,-29.9629 L -25.6746,-30.0101
 L -25.6481,-30.0555 L -25.6186,-30.099 L -25.5862,-30.1404 L -25.551,-30.1795 L -25.5133,-30.2161 L -25.4732,-30.2501
 L -25.4308,-30.2812 L -25.3864,-30.3094 L -25.3402,-30.3344 L -25.2924,-30.3563 L -25.2432,-30.3748 L -25.1928,-30.39
 L -25.1415,-30.4017 L -25.0896,-30.4098 L -25.0372,-30.4144 L -24.9847,-30.4154 L -24.9321,-30.4128 L -24.8799,-30.4066
 L -24.8283,-30.3969 L -24.7774,-30.3837 L -24.7275,-30.367 L -24.6789,-30.347 L -24.6318,-30.3237 L -24.5863,-30.2972
 L -24.5428,-30.2677 L -24.5014,-30.2353 L -24.4623,-30.2002 L -24.4257,-30.1624 L -24.3917,-30.1223 L -24.3606,-30.0799
 L -24.3325,-30.0355 L -24.3074,-29.9893 L -24.2855,-29.9415 L -24.267,-29.8923 L -24.2518,-29.8419 L -24.2402,-29.7907
 L -24.232,-29.7387 L -24.2274,-29.6864 L -24.2264,-29.6338 L -24.229,-29.5813 L -24.2352,-29.5291 L -24.2449,-29.4774
 L -24.2581,-29.4265 L -24.2748,-29.3766 L -24.2948,-29.328 L -24.3181,-29.2809 L -24.3446,-29.2355 L -24.3741,-29.1919
 L -24.4065,-29.1505 L -24.4417,-29.1114 L -24.4794,-29.0748 L -24.5195,-29.0409 L -24.5619,-29.0097 L -24.6063,-28.9816
 L -24.6525,-28.9565 L -24.7003,-28.9346 L -24.7495,-28.9161 L -24.7999,-28.901 L -24.8511,-28.8893 L -24.9031,-28.8811
 L -24.9555,-28.8766 L -25.008,-28.8756 z
M 24.9555,-28.8766 L 24.9031,-28.8811 L 24.8511,-28.8893 L 24.7999,-28.901 L 24.7495,-28.9161 L 24.7003,-28.9346
 L 24.6525,-28.9565 L 24.6063,-28.9816 L 24.5619,-29.0097 L 24.5195,-29.0409 L 24.4794,-29.0748 L 24.4417,-29.1114
 L 24.4065,-29.1505 L 24.3741,-29.1919 L 24.3446,-29.2355 L 24.3181,-29.2809 L 24.2948,-29.328 L 24.2748,-29.3766
 L 24.2581,-29.4265 L 24.2449,-29.4774 L 24.2352,-29.5291 L 24.229,-29.5813 L 24.2264,-29.6338 L 24.2274,-29.6864
 L 24.232,-29.7387 L 24.2402,-29.7907 L 24.2518,-29.8419 L 24.267,-29.8923 L 24.2855,-29.9415 L 24.3074,-29.9893
 L 24.3325,-30.0355 L 24.3606,-30.0799 L 24.3917,-30.1223 L 24.4257,-30.1624 L 24.4623,-30.2002 L 24.5014,-30.2353
 L 24.5428,-30.2677 L 24.5863,-30.2972 L 24.6318,-30.3237 L 24.6789,-30.347 L 24.7275,-30.367 L 24.7774,-30.3837
 L 24.8283,-30.3969 L 24.8799,-30.4066 L 24.9321,-30.4128 L 24.9847,-30.4154 L 25.0372,-30.4144 L 25.0896,-30.4098
 L 25.1415,-30.4017 L 25.1928,-30.39 L 25.2432,-30.3748 L 25.2924,-30.3563 L 25.3402,-30.3344 L 25.3864,-30.3094
 L 25.4308,-30.2812 L 25.4732,-30.2501 L 25.5133,-30.2161 L 25.551,-30.1795 L 25.5862,-30.1404 L 25.6186,-30.099
 L 25.6481,-30.0555 L 25.6746,-30.0101 L 25.6979,-29.9629 L 25.7179,-29.9143 L 25.7346,-29.8644 L 25.7478,-29.8136
 L 25.7575,-29.7619 L 25.7637,-29.7097 L 25.7663,-29.6572 L 25.7653,-29.6046 L 25.7607,-29.5522 L 25.7525,-29.5003
 L 25.7409,-29.449 L 25.7257,-29.3987 L 25.7072,-29.3495 L 25.6853,-29.3017 L 25.6602,-29.2554 L 25.6321,-29.211
 L 25.601,-29.1687 L 25.567,-29.1285 L 25.5304,-29.0908 L 25.4913,-29.0556 L 25.4499,-29.0232 L 25.4064,-28.9937
 L 25.3609,-28.9673 L 25.3138,-28.944 L 25.2652,-28.9239 L 25.2153,-28.9073 L 25.1644,-28.894 L 25.1127,-28.8843
 L 25.0605,-28.8782 L 25.008,-28.8756 z
M -27.1934,-25.119 L -27.3296,-25.1288 L -27.4648,-25.1479 L -27.5984,-25.1762 L -27.7298,-25.2136 L -27.8583,-25.2598
 L -27.9833,-25.3147 L -28.1044,-25.3779 L -28.2208,-25.4494 L -28.332,-25.5285 L -28.4376,-25.6151 L -28.5371,-25.7087
 L -28.6299,-25.8089 L -28.7157,-25.9151 L -28.7941,-26.027 L -28.8646,-26.144 L -28.9269,-26.2654 L -28.9809,-26.3909
 L -29.0261,-26.5198 L -29.0624,-26.6514 L -29.0897,-26.7852 L -29.1078,-26.9206 L -29.1166,-27.0568 L -29.1161,-27.1934
 L -29.1062,-27.3296 L -29.0872,-27.4648 L -29.0589,-27.5984 L -29.0215,-27.7298 L -28.9753,-27.8583 L -28.9204,-27.9833
 L -28.8571,-28.1044 L -28.7857,-28.2208 L -28.7065,-28.332 L -28.62,-28.4376 L -28.5264,-28.5371 L -28.4262,-28.6299
 L -28.32,-28.7157 L -28.2081,-28.7941 L -28.0911,-28.8646 L -27.9696,-28.9269 L -27.8442,-28.9809 L -27.7153,-29.0261
 L -27.5837,-29.0624 L -27.4499,-29.0897 L -27.3145,-29.1078 L -27.1782,-29.1166 L -27.0417,-29.1161 L -26.9055,-29.1062
 L -26.7702,-29.0872 L -26.6367,-29.0589 L -26.5053,-29.0215 L -26.3768,-28.9753 L -26.2517,-28.9204 L -26.1307,-28.8571
 L -26.0143,-28.7857 L -25.903,-28.7065 L -25.7974,-28.62 L -25.698,-28.5264 L -25.6051,-28.4262 L -25.5194,-28.32
 L -25.441,-28.2081 L -25.3705,-28.0911 L -25.3082,-27.9696 L -25.2542,-27.8442 L -25.209,-27.7153 L -25.1726,-27.5837
 L -25.1453,-27.4499 L -25.1273,-27.3145 L -25.1185,-27.1782 L -25.119,-27.0417 L -25.1288,-26.9055 L -25.1479,-26.7702
 L -25.1762,-26.6367 L -25.2136,-26.5053 L -25.2598,-26.3768 L -25.3147,-26.2517 L -25.3779,-26.1307 L -25.4494,-26.0143
 L -25.5285,-25.903 L -25.6151,-25.7974 L -25.7087,-25.698 L -25.8089,-25.6051 L -25.9151,-25.5194 L -26.027,-25.441
 L -26.144,-25.3705 L -26.2654,-25.3082 L -26.3909,-25.2542 L -26.5198,-25.209 L -26.6514,-25.1726 L -26.7852,-25.1453
 L -26.9206,-25.1273 L -27.0568,-25.1185 z
M 26.9206,-25.1273 L 26.7852,-25.1453 L 26.6514,-25.1726 L 26.5198,-25.209 L 26.3909,-25.2542 L 26.2654,-25.3082
 L 26.144,-25.3705 L 26.027,-25.441 L 25.9151,-25.5194 L 25.8089,-25.6051 L 25.7087,-25.698 L 25.6151,-25.7974
 L 25.5285,-25.903 L 25.4494,-26.0143 L 25.3779,-26.1307 L 25.3147,-26.2517 L 25.2598,-26.3768 L 25.2136,-26.5053
 L 25.1762,-26.6367 L 25.1479,-26.7702 L 25.1288,-26.9055 L 25.119,-27.0417 L 25.1185,-27.1782 L 25.1273,-27.3145
 L 25.1453,-27.4499 L 25.1726,-27.5837 L 25.209,-27.7153 L 25.2542,-27.8442 L 25.3082,-27.9696 L 25.3705,-28.0911
 L 25.441,-28.2081 L 25.5194,-28.32 L 25.6051,-28.4262 L 25.698,-28.5264 L 25.7974,-28.62 L 25.903,-28.7065
 L 26.0143,-28.7857 L 26.1307,-28.8571 L 26.2517,-28.9204 L 26.3768,-28.9753 L 26.5053,-29.0215 L 26.6367,-29.0589
 L 26.7702,-29.0872 L 26.9055,-29.1062 L 27.0417,-29.1161 L 27.1782,-29.1166 L 27.3145,-29.1078 L 27.4499,-29.0897
 L 27.5837,-29.0624 L 27.7153,-29.0261 L 27.8442,-28.9809 L 27.9696,-28.9269 L 28.0911,-28.8646 L 28.2081,-28.7941
 L 28.32,-28.7157 L 28.4262,-28.6299 L 28.5264,-28.5371 L 28.62,-28.4376 L 28.7065,-28.332 L 28.7857,-28.2208
 L 28.8571,-28.1044 L 28.9204,-27.9833 L 28.9753,-27.8583 L 29.0215,-27.7298 L 29.0589,-27.5984 L 29.0872,-27.4648
 L 29.1062,-27.3296 L 29.1161,-27.1934 L 29.1166,-27.0568 L 29.1078,-26.9206 L 29.0897,-26.7852 L 29.0624,-26.6514
 L 29.0261,-26.5198 L 28.9809,-26.3909 L 28.9269,-26.2654 L 28.8646,-26.144 L 28.7941,-26.027 L 28.7157,-25.9151
 L 28.6299,-25.8089 L 28.5371,-25.7087 L 28.4376,-25.6151 L 28.332,-25.5285 L 28.2208,-25.4494 L 28.1044,-25.3779
 L 27.9833,-25.3147 L 27.8583,-25.2598 L 27.7298,-25.2136 L 27.5984,-25.1762 L 27.4648,-25.1479 L 27.3296,-25.1288
 L 27.1934,-25.119 L 27.0568,-25.1185 z
M -30.3966,-26.9211 L -30.4491,-26.9249 L -30.5011,-26.9323 L -30.5525,-26.9432 L -30.6031,-26.9576 L -30.6526,-26.9753
 L -30.7007,-26.9965 L -30.7473,-27.0208 L -30.7921,-27.0483 L -30.835,-27.0788 L -30.8756,-27.1122 L -30.9139,-27.1482
 L -30.9497,-27.1867 L -30.9827,-27.2277 L -31.0128,-27.2707 L -31.04,-27.3158 L -31.064,-27.3625 L -31.0848,-27.4108
 L -31.1022,-27.4604 L -31.1162,-27.5111 L -31.1267,-27.5626 L -31.1337,-27.6147 L -31.137,-27.6672 L -31.1368,-27.7198
 L -31.133,-27.7722 L -31.1257,-27.8243 L -31.1148,-27.8757 L -31.1004,-27.9263 L -31.0826,-27.9758 L -31.0615,-28.0239
 L -31.0371,-28.0705 L -31.0096,-28.1153 L -30.9792,-28.1582 L -30.9458,-28.1988 L -30.9098,-28.2371 L -30.8712,-28.2728
 L -30.8303,-28.3059 L -30.7873,-28.336 L -30.7422,-28.3632 L -30.6954,-28.3872 L -30.6472,-28.408 L -30.5975,-28.4254
 L -30.5469,-28.4394 L -30.4953,-28.4499 L -30.4432,-28.4568 L -30.3908,-28.4602 L -30.3382,-28.46 L -30.2858,-28.4562
 L -30.2337,-28.4489 L -30.1823,-28.438 L -30.1317,-28.4236 L -30.0822,-28.4058 L -30.0341,-28.3847 L -29.9875,-28.3603
 L -29.9427,-28.3328 L -29.8998,-28.3023 L -29.8592,-28.269 L -29.8209,-28.233 L -29.7851,-28.1944 L -29.7521,-28.1535
 L -29.7219,-28.1104 L -29.6948,-28.0654 L -29.6708,-28.0186 L -29.65,-27.9703 L -29.6326,-27.9207 L -29.6186,-27.87
 L -29.6081,-27.8185 L -29.6011,-27.7664 L -29.5977,-27.7139 L -29.598,-27.6614 L -29.6017,-27.6089 L -29.6091,-27.5569
 L -29.62,-27.5054 L -29.6344,-27.4549 L -29.6522,-27.4054 L -29.6733,-27.3573 L -29.6976,-27.3107 L -29.7251,-27.2658
 L -29.7556,-27.223 L -29.789,-27.1823 L -29.825,-27.1441 L -29.8636,-27.1083 L -29.9045,-27.0753 L -29.9475,-27.0451
 L -29.9926,-27.018 L -30.0393,-26.994 L -30.0876,-26.9732 L -30.1372,-26.9558 L -30.1879,-26.9418 L -30.2394,-26.9313
 L -30.2916,-26.9243 L -30.344,-26.9209 z
M 30.2916,-26.9243 L 30.2394,-26.9313 L 30.1879,-26.9418 L 30.1372,-26.9558 L 30.0876,-26.9732 L 30.0393,-26.994
 L 29.9926,-27.018 L 29.9475,-27.0451 L 29.9045,-27.0753 L 29.8636,-27.1083 L 29.825,-27.1441 L 29.789,-27.1823
 L 29.7556,-27.223 L 29.7251,-27.2658 L 29.6976,-27.3107 L 29.6733,-27.3573 L 29.6522,-27.4054 L 29.6344,-27.4549
 L 29.62,-27.5054 L 29.6091,-27.5569 L 29.6017,-27.6089 L 29.598,-27.6614 L 29.5977,-27.7139 L 29.6011,-27.7664
 L 29.6081,-27.8185 L 29.6186,-27.87 L 29.6326,-27.9207 L 29.65,-27.9703 L 29.6708,-28.0186 L 29.6948,-28.0654
 L 29.7219,-28.1104 L 29.7521,-28.1535 L 29.7851,-28.1944 L 29.8209,-28.233 L 29.8592,-28.269 L 29.8998,-28.3023
 L 29.9427,-28.3328 L 29.9875,-28.3603 L 30.0341,-28.3847 L 30.0822,-28.4058 L 30.1317,-28.4236 L 30.1823,-28.438
 L 30.2337,-28.4489 L 30.2858,-28.4562 L 30.3382,-28.46 L 30.3908,-28.4602 L 30.4432,-28.4568 L 30.4953,-28.4499
 L 30.5469,-28.4394 L 30.5975,-28.4254 L 30.6472,-28.408 L 30.6954,-28.3872 L 30.7422,-28.3632 L 30.7873,-28.336
 L 30.8303,-28.3059 L 30.8712,-28.2728 L 30.9098,-28.2371 L 30.9458,-28.1988 L 30.9792,-28.1582 L 31.0096,-28.1153
 L 31.0371,-28.0705 L 31.0615,-28.0239 L 31.0826,-27.9758 L 31.1004,-27.9263 L 31.1148,-27.8757 L 31.1257,-27.8243
 L 31.133,-27.7722 L 31.1368,-27.7198 L 31.137,-27.6672 L 31.1337,-27.6147 L 31.1267,-27.5626 L 31.1162,-27.5111
 L 31.1022,-27.4604 L 31.0848,-27.4108 L 31.064,-27.3625 L 31.04,-27.3158 L 31.0128,-27.2707 L 30.9827,-27.2277
 L 30.9497,-27.1867 L 30.9139,-27.1482 L 30.8756,-27.1122 L 30.835,-27.0788 L 30.7921,-27.0483 L 30.7473,-27.0208
 L 30.7007,-26.9965 L 30.6526,-26.9753 L 30.6031,-26.9576 L 30.5525,-26.9432 L 30.5011,-26.9323 L 30.4491,-26.9249
 L 30.3966,-26.9211 L 30.344,-26.9209 z
M 20.0118,-4.58151 L 19.808,-4.60211 L 19.6061,-4.63658 L 19.407,-4.68474 L 19.2117,-4.74637 L 19.021,-4.8212
 L 18.8358,-4.90886 L 18.6571,-5.00896 L 18.4856,-5.12102 L 18.3222,-5.24452 L 18.1676,-5.37888 L 18.0902,-5.45354
 L 5.45352,-18.0902 L 5.31371,-18.2399 L 5.18443,-18.3988 L 5.0663,-18.5661 L 4.95987,-18.7412 L 4.86562,-18.923
 L 4.78401,-19.1109 L 4.71541,-19.304 L 4.66014,-19.5012 L 4.61847,-19.7018 L 4.59058,-19.9047 L 4.5766,-20.1091
 L 4.5766,-20.3139 L 4.59058,-20.5183 L 4.61847,-20.7212 L 4.66014,-20.9218 L 4.71541,-21.119 L 4.78401,-21.3121
 L 4.86562,-21.5 L 4.95987,-21.6818 L 5.0663,-21.8569 L 5.18443,-22.0242 L 5.31371,-22.1831 L 5.45352,-22.3328
 L 5.60323,-22.4726 L 5.76213,-22.6019 L 5.92949,-22.72 L 6.10451,-22.8265 L 6.28639,-22.9207 L 6.47429,-23.0023
 L 6.6673,-23.0709 L 6.77037,-23.1016 L 19.1077,-26.5358 L 19.3067,-26.5839 L 19.5087,-26.6184 L 19.7125,-26.639
 L 19.9172,-26.6456 L 20.1219,-26.6383 L 20.3257,-26.617 L 20.5275,-26.5819 L 20.7264,-26.533 L 20.9216,-26.4707
 L 21.112,-26.3952 L 21.2968,-26.3069 L 21.4752,-26.2063 L 21.6463,-26.0936 L 21.8093,-25.9696 L 21.9635,-25.8347
 L 22.1081,-25.6896 L 22.2425,-25.535 L 22.366,-25.3715 L 22.478,-25.2 L 22.6164,-24.9445 L 22.6341,-24.9076
 L 22.7448,-24.6959 L 22.7953,-24.6069 L 22.9204,-24.4029 L 22.9767,-24.3178 L 23.1154,-24.1229 L 23.1775,-24.0417
 L 23.3289,-23.857 L 23.3966,-23.7799 L 23.5606,-23.6057 L 23.6328,-23.534 L 23.8083,-23.3714 L 23.8858,-23.3043
 L 24.0715,-23.1544 L 24.1535,-23.0926 L 24.3494,-22.9555 L 24.4349,-22.8999 L 24.6397,-22.7764 L 24.7291,-22.7266
 L 24.9873,-22.5941 L 24.987,-22.5935 L 25.1058,-22.5324 L 25.2813,-22.4267 L 25.4491,-22.3092 L 25.6085,-22.1805
 L 25.7587,-22.0413 L 25.8991,-21.8921 L 26.029,-21.7337 L 26.1478,-21.5668 L 26.2549,-21.3922 L 26.3498,-21.2107
 L 26.4322,-21.0231 L 26.5015,-20.8304 L 26.5575,-20.6333 L 26.6,-20.4329 L 26.6286,-20.2301 L 26.6434,-20.0258
 L 26.6442,-19.8209 L 26.631,-19.6165 L 26.6039,-19.4135 L 26.563,-19.2127 L 26.5357,-19.1073 L 23.1016,-6.77037
 L 23.04,-6.57503 L 22.9651,-6.38432 L 22.8775,-6.19919 L 22.7774,-6.02046 L 22.6653,-5.84898 L 22.5418,-5.68555
 L 22.4075,-5.53093 L 22.2629,-5.38583 L 22.1087,-5.25095 L 21.9457,-5.12689 L 21.7746,-5.01425 L 21.5962,-4.91354
 L 21.4114,-4.82526 L 21.2209,-4.74979 L 21.0258,-4.68748 L 20.8268,-4.63864 L 20.625,-4.6035 L 20.4213,-4.5822
 L 20.2166,-4.57486 z
M -20.3139,-4.57661 L -20.5183,-4.59059 L -20.7212,-4.61848 L -20.9218,-4.66016 L -21.119,-4.71542 L -21.312,-4.78403
 L -21.4999,-4.86563 L -21.6818,-4.95988 L -21.8568,-5.06631 L -22.0242,-5.18445 L -22.1831,-5.31372 L -22.3328,-5.45354
 L -22.4726,-5.60324 L -22.6019,-5.76215 L -22.72,-5.9295 L -22.8265,-6.10452 L -22.9207,-6.28641 L -23.0023,-6.4743
 L -23.0709,-6.66731 L -23.1016,-6.77037 L -26.5357,-19.1073 L -26.5838,-19.3064 L -26.6183,-19.5084 L -26.6389,-19.7122
 L -26.6456,-19.9169 L -26.6382,-20.1216 L -26.6169,-20.3254 L -26.5818,-20.5272 L -26.5329,-20.7261 L -26.4706,-20.9212
 L -26.3952,-21.1117 L -26.3069,-21.2965 L -26.2062,-21.4749 L -26.0935,-21.646 L -25.9695,-21.809 L -25.8346,-21.9632
 L -25.6895,-22.1078 L -25.5349,-22.2422 L -25.3714,-22.3657 L -25.2,-22.4777 L -25.0212,-22.5778 L -24.9616,-22.6072
 L -24.7291,-22.7266 L -24.6397,-22.7764 L -24.4349,-22.8999 L -24.3494,-22.9555 L -24.1535,-23.0926 L -24.0715,-23.1544
 L -23.8858,-23.3043 L -23.8083,-23.3714 L -23.6328,-23.534 L -23.5606,-23.6057 L -23.3966,-23.7799 L -23.3289,-23.857
 L -23.1775,-24.0417 L -23.1154,-24.1229 L -22.9767,-24.3178 L -22.9204,-24.4029 L -22.7953,-24.6069 L -22.7448,-24.6959
 L -22.6341,-24.9076 L -22.6164,-24.9445 L -22.5214,-25.126 L -22.4143,-25.3006 L -22.2955,-25.4675 L -22.1656,-25.6259
 L -22.0253,-25.7751 L -21.875,-25.9144 L -21.7156,-26.043 L -21.5478,-26.1605 L -21.3724,-26.2663 L -21.1901,-26.3598
 L -21.0019,-26.4407 L -20.8087,-26.5086 L -20.6112,-26.5631 L -20.4105,-26.604 L -20.2074,-26.6311 L -20.003,-26.6443
 L -19.7982,-26.6435 L -19.5938,-26.6287 L -19.391,-26.6 L -19.1077,-26.5358 L -6.77037,-23.1016 L -6.57501,-23.04
 L -6.38432,-22.9652 L -6.19917,-22.8775 L -6.02045,-22.7774 L -5.84897,-22.6653 L -5.68553,-22.5419 L -5.53091,-22.4075
 L -5.38582,-22.2629 L -5.25093,-22.1087 L -5.12688,-21.9457 L -5.01424,-21.7746 L -4.91354,-21.5962 L -4.82524,-21.4114
 L -4.74977,-21.2209 L -4.68747,-21.0258 L -4.63863,-20.8269 L -4.60349,-20.625 L -4.58218,-20.4213 L -4.57484,-20.2166
 L -4.5815,-20.0119 L -4.6021,-19.8081 L -4.63657,-19.6061 L -4.68472,-19.407 L -4.74635,-19.2117 L -4.82118,-19.021
 L -4.90884,-18.8358 L -5.00894,-18.6571 L -5.121,-18.4856 L -5.24449,-18.3222 L -5.37886,-18.1676 L -5.45352,-18.0902
 L -18.0902,-5.45354 L -18.2399,-5.31372 L -18.3988,-5.18445 L -18.5661,-5.06631 L -18.7411,-4.95988 L -18.923,-4.86563
 L -19.1109,-4.78403 L -19.3039,-4.71542 L -19.5012,-4.66016 L -19.7018,-4.61848 L -19.9047,-4.59059 L -20.1091,-4.57661
 z
M -26.0356,-23.248 L -26.0879,-23.253 L -26.1398,-23.2615 L -26.191,-23.2736 L -26.2412,-23.2891 L -26.2903,-23.308
 L -26.3379,-23.3302 L -26.384,-23.3556 L -26.4281,-23.3841 L -26.4703,-23.4156 L -26.5101,-23.4498 L -26.5476,-23.4867
 L -26.5825,-23.5261 L -26.6145,-23.5678 L -26.6437,-23.6115 L -26.6698,-23.6571 L -26.6928,-23.7044 L -26.7124,-23.7532
 L -26.7287,-23.8032 L -26.7416,-23.8542 L -26.7509,-23.9059 L -26.7567,-23.9582 L -26.7589,-24.0107 L -26.7574,-24.0633
 L -26.7525,-24.1156 L -26.7439,-24.1675 L -26.7319,-24.2187 L -26.7163,-24.2689 L -26.6974,-24.318 L -26.6752,-24.3656
 L -26.6498,-24.4116 L -26.6213,-24.4558 L -26.5898,-24.498 L -26.5556,-24.5378 L -26.5187,-24.5753 L -26.4793,-24.6102
 L -26.4377,-24.6422 L -26.3939,-24.6714 L -26.3483,-24.6975 L -26.301,-24.7205 L -26.2522,-24.7401 L -26.2022,-24.7564
 L -26.1513,-24.7692 L -26.0995,-24.7786 L -26.0473,-24.7843 L -25.9947,-24.7865 L -25.9422,-24.7851 L -25.8898,-24.7802
 L -25.8379,-24.7716 L -25.7868,-24.7596 L -25.7365,-24.744 L -25.6875,-24.7251 L -25.6398,-24.7029 L -25.5938,-24.6775
 L -25.5496,-24.649 L -25.5075,-24.6175 L -25.4676,-24.5833 L -25.4301,-24.5464 L -25.3953,-24.507 L -25.3632,-24.4654
 L -25.334,-24.4216 L -25.3079,-24.376 L -25.285,-24.3287 L -25.2653,-24.2799 L -25.249,-24.2299 L -25.2362,-24.1789
 L -25.2269,-24.1272 L -25.2211,-24.0749 L -25.2189,-24.0224 L -25.2203,-23.9698 L -25.2253,-23.9175 L -25.2338,-23.8656
 L -25.2459,-23.8144 L -25.2614,-23.7642 L -25.2803,-23.7151 L -25.3025,-23.6675 L -25.328,-23.6215 L -25.3565,-23.5773
 L -25.3879,-23.5352 L -25.4222,-23.4953 L -25.4591,-23.4578 L -25.4984,-23.423 L -25.5401,-23.3909 L -25.5838,-23.3617
 L -25.6295,-23.3356 L -25.6768,-23.3127 L -25.7255,-23.293 L -25.7755,-23.2767 L -25.8265,-23.2639 L -25.8783,-23.2545
 L -25.9305,-23.2488 L -25.983,-23.2466 z
M 25.9305,-23.2488 L 25.8783,-23.2545 L 25.8265,-23.2639 L 25.7755,-23.2767 L 25.7255,-23.293 L 25.6768,-23.3127
 L 25.6295,-23.3356 L 25.5838,-23.3617 L 25.5401,-23.3909 L 25.4984,-23.423 L 25.4591,-23.4578 L 25.4222,-23.4953
 L 25.3879,-23.5352 L 25.3565,-23.5773 L 25.328,-23.6215 L 25.3025,-23.6675 L 25.2803,-23.7151 L 25.2614,-23.7642
 L 25.2459,-23.8144 L 25.2338,-23.8656 L 25.2253,-23.9175 L 25.2203,-23.9698 L 25.2189,-24.0224 L 25.2211,-24.0749
 L 25.2269,-24.1272 L 25.2362,-24.1789 L 25.249,-24.2299 L 25.2653,-24.2799 L 25.285,-24.3287 L 25.3079,-24.376
 L 25.334,-24.4216 L 25.3632,-24.4654 L 25.3953,-24.507 L 25.4301,-24.5464 L 25.4676,-24.5833 L 25.5075,-24.6175
 L 25.5496,-24.649 L 25.5938,-24.6775 L 25.6398,-24.7029 L 25.6875,-24.7251 L 25.7365,-24.744 L 25.7868,-24.7596
 L 25.8379,-24.7716 L 25.8898,-24.7802 L 25.9422,-24.7851 L 25.9947,-24.7865 L 26.0473,-24.7843 L 26.0995,-24.7786
 L 26.1513,-24.7692 L 26.2022,-24.7564 L 26.2522,-24.7401 L 26.301,-24.7205 L 26.3483,-24.6975 L 26.3939,-24.6714
 L 26.4377,-24.6422 L 26.4793,-24.6102 L 26.5187,-24.5753 L 26.5556,-24.5378 L 26.5898,-24.498 L 26.6213,-24.4558
 L 26.6498,-24.4116 L 26.6752,-24.3656 L 26.6974,-24.318 L 26.7163,-24.2689 L 26.7319,-24.2187 L 26.7439,-24.1675
 L 26.7525,-24.1156 L 26.7574,-24.0633 L 26.7589,-24.0107 L 26.7567,-23.9582 L 26.7509,-23.9059 L 26.7416,-23.8542
 L 26.7287,-23.8032 L 26.7124,-23.7532 L 26.6928,-23.7044 L 26.6698,-23.6571 L 26.6437,-23.6115 L 26.6145,-23.5678
 L 26.5825,-23.5261 L 26.5476,-23.4867 L 26.5101,-23.4498 L 26.4703,-23.4156 L 26.4281,-23.3841 L 26.384,-23.3556
 L 26.3379,-23.3302 L 26.2903,-23.308 L 26.2412,-23.2891 L 26.191,-23.2736 L 26.1398,-23.2615 L 26.0879,-23.253
 L 26.0356,-23.248 L 25.983,-23.2466 z
M -0.075058,-16.9338 L -0.14978,-16.9415 L -0.223801,-16.9542 L -0.296768,-16.972 L -0.368362,-16.9947 L -0.438232,-17.0223
 L -0.506058,-17.0545 L -0.571533,-17.0914 L -0.634338,-17.1326 L -0.694183,-17.1779 L -0.750793,-17.2273 L -0.803909,-17.2804
 L -0.853271,-17.337 L -0.898666,-17.3969 L -0.93985,-17.4597 L -0.976669,-17.5251 L -1.00893,-17.593 L -1.03648,-17.6628
 L -1.0592,-17.7344 L -1.07698,-17.8074 L -1.08975,-17.8814 L -1.09743,-17.9561 L -1.09999,-18.0312 L -1.09743,-18.1063
 L -1.08975,-18.181 L -1.07698,-18.255 L -1.0592,-18.328 L -1.03648,-18.3996 L -1.00893,-18.4695 L -0.976669,-18.5373
 L -0.93985,-18.6028 L -0.898666,-18.6656 L -0.853271,-18.7254 L -0.803909,-18.782 L -0.750793,-18.8351 L -0.694183,-18.8845
 L -0.634338,-18.9299 L -0.571533,-18.9711 L -0.506058,-19.0079 L -0.438232,-19.0401 L -0.368362,-19.0677 L -0.296768,-19.0904
 L -0.223801,-19.1082 L -0.14978,-19.121 L -0.075058,-19.1286 L 0,-19.1312 L 0.075058,-19.1286 L 0.14978,-19.121
 L 0.223801,-19.1082 L 0.296768,-19.0904 L 0.368362,-19.0677 L 0.438232,-19.0401 L 0.506058,-19.0079 L 0.571533,-18.9711
 L 0.634338,-18.9299 L 0.694183,-18.8845 L 0.750793,-18.8351 L 0.803909,-18.782 L 0.853271,-18.7254 L 0.898666,-18.6656
 L 0.93985,-18.6028 L 0.976669,-18.5373 L 1.00893,-18.4695 L 1.03648,-18.3996 L 1.0592,-18.328 L 1.07698,-18.255
 L 1.08975,-18.181 L 1.09743,-18.1063 L 1.09999,-18.0312 L 1.09743,-17.9561 L 1.08975,-17.8814 L 1.07698,-17.8074
 L 1.0592,-17.7344 L 1.03648,-17.6628 L 1.00893,-17.593 L 0.976669,-17.5251 L 0.93985,-17.4597 L 0.898666,-17.3969
 L 0.853271,-17.337 L 0.803909,-17.2804 L 0.750793,-17.2273 L 0.694183,-17.1779 L 0.634338,-17.1326 L 0.571533,-17.0914
 L 0.506058,-17.0545 L 0.438232,-17.0223 L 0.368362,-16.9947 L 0.296768,-16.972 L 0.223801,-16.9542 L 0.14978,-16.9415
 L 0.075058,-16.9338 L 0,-16.9312 z
M -3.52547,16.8066 L -3.72841,16.7788 L -3.92897,16.7371 L -4.12622,16.6819 L -4.31924,16.6133 L -4.50714,16.5317
 L -4.68903,16.4374 L -4.86406,16.331 L -5.03143,16.2129 L -5.19034,16.0836 L -5.34024,15.9437 L -7.19963,14.0843
 L -7.33945,13.9346 L -7.46872,13.7757 L -7.58685,13.6083 L -7.69328,13.4333 L -7.78754,13.2514 L -7.86914,13.0635
 L -7.93774,12.8705 L -7.99301,12.6732 L -8.03468,12.4727 L -8.06258,12.2697 L -8.07655,12.0654 L -8.07655,11.8605
 L -8.06258,11.6562 L -8.03468,11.4532 L -7.99301,11.2527 L -7.93774,11.0554 L -7.86922,10.8626 L -7.85165,10.818
 L -7.81725,10.7212 L -7.80078,10.6694 L -7.77318,10.5709 L -7.76018,10.5175 L -7.73941,10.4176 L -7.7301,10.3636
 L -7.71617,10.2622 L -7.71062,10.2081 L -7.7036,10.1057 L -7.70174,10.051 L -7.70174,9.94902 L -7.7036,9.89424
 L -7.71062,9.79192 L -7.71617,9.73779 L -7.7301,9.63638 L -7.73941,9.58241 L -7.76018,9.48247 L -7.77318,9.42911
 L -7.80078,9.3306 L -7.81725,9.27876 L -7.85168,9.18188 L -7.87158,9.13142 L -7.91241,9.03738 L -7.93587,8.9881
 L -7.98297,8.89717 L -8.00963,8.84975 L -8.06302,8.76195 L -8.09283,8.71651 L -8.15189,8.63284 L -8.18478,8.58946
 L -8.24965,8.50974 L -8.28534,8.46881 L -8.35533,8.39386 L -8.39386,8.35533 L -8.46881,8.28534 L -8.50974,8.24965
 L -8.58946,8.18478 L -8.63284,8.15189 L -8.71651,8.09283 L -8.76195,8.06302 L -8.84975,8.00963 L -8.89717,7.98297
 L -8.9881,7.93587 L -9.03738,7.91241 L -9.13142,7.87158 L -9.18188,7.85168 L -9.27876,7.81725 L -9.3306,7.80078
 L -9.42911,7.77318 L -9.48247,7.76018 L -9.58241,7.73941 L -9.63638,7.7301 L -9.73779,7.71617 L -9.79192,7.71062
 L -9.89424,7.7036 L -9.94902,7.70174 L -10.051,7.70174 L -10.1057,7.7036 L -10.2081,7.71062 L -10.2622,7.71617
 L -10.3636,7.7301 L -10.4176,7.73941 L -10.5175,7.76018 L -10.5709,7.77318 L -10.6694,7.80078 L -10.7212,7.81725
 L -10.818,7.85165 L -10.8626,7.86922 L -11.0556,7.93781 L -11.2529,7.99306 L -11.4534,8.03471 L -11.6564,8.06261
 L -11.8607,8.07657 L -12.0656,8.07655 L -12.2699,8.06256 L -12.4729,8.03465 L -12.6734,7.99297 L -12.8707,7.93768
 L -13.0637,7.86906 L -13.2516,7.78745 L -13.4335,7.69319 L -13.6085,7.58675 L -13.7758,7.4686 L -13.9347,7.33931
 L -14.0843,7.19963 L -15.9437,5.34024 L -16.0835,5.19054 L -16.2128,5.03163 L -16.3309,4.86427 L -16.4373,4.68925
 L -16.5316,4.50737 L -16.6132,4.31947 L -16.6818,4.12646 L -16.737,3.92921 L -16.7787,3.72865 L -16.8066,3.52571
 L -16.8206,3.32133 L -16.8206,3.1165 L -16.8066,2.91212 L -16.7787,2.70918 L -16.737,2.50862 L -16.6818,2.31137
 L -16.6132,2.11836 L -16.5316,1.93047 L -16.4373,1.74858 L -16.3309,1.57356 L -16.2126,1.40601 L -16.1831,1.36708
 L -16.1241,1.28348 L -16.0943,1.23804 L -16.0409,1.15024 L -16.0142,1.10281 L -15.9671,1.01189 L -15.9436,0.962601
 L -15.9028,0.868561 L -15.8829,0.8181 L -15.8485,0.721222 L -15.832,0.669388 L -15.8044,0.570877 L -15.7914,0.517517
 L -15.7706,0.417572 L -15.7613,0.363602 L -15.7474,0.262192 L -15.7419,0.208069 L -15.7348,0.105743 L -15.733,0.0509796
 L -15.733,-0.0509796 L -15.7348,-0.105743 L -15.7419,-0.208069 L -15.7474,-0.262192 L -15.7613,-0.363602 L -15.7706,-0.417572
 L -15.7914,-0.517517 L -15.8044,-0.570877 L -15.832,-0.669388 L -15.8485,-0.721222 L -15.8829,-0.8181 L -15.9028,-0.868561
 L -15.9436,-0.962601 L -15.9671,-1.01189 L -16.0142,-1.10281 L -16.0409,-1.15024 L -16.0943,-1.23804 L -16.1241,-1.28348
 L -16.1831,-1.36708 L -16.2126,-1.40601 L -16.3307,-1.57335 L -16.4372,-1.74837 L -16.5315,-1.93024 L -16.6131,-2.11812
 L -16.6817,-2.31114 L -16.737,-2.50838 L -16.7787,-2.70894 L -16.8066,-2.91188 L -16.8206,-3.11624 L -16.8206,-3.32109
 L -16.8066,-3.52547 L -16.7788,-3.72841 L -16.7371,-3.92897 L -16.6819,-4.12622 L -16.6133,-4.31924 L -16.5317,-4.50714
 L -16.4374,-4.68903 L -16.331,-4.86406 L -16.2129,-5.03143 L -16.0836,-5.19034 L -15.9437,-5.34024 L -14.0843,-7.19963
 L -13.9346,-7.33945 L -13.7757,-7.46872 L -13.6083,-7.58685 L -13.4333,-7.69328 L -13.2514,-7.78754 L -13.0635,-7.86914
 L -12.8705,-7.93774 L -12.6732,-7.99301 L -12.4727,-8.03468 L -12.2697,-8.06258 L -12.0654,-8.07655 L -11.8605,-8.07655
 L -11.6562,-8.06258 L -11.4532,-8.03468 L -11.2527,-7.99301 L -11.0554,-7.93774 L -10.8626,-7.86922 L -10.818,-7.85165
 L -10.7212,-7.81725 L -10.6694,-7.80078 L -10.5709,-7.77318 L -10.5175,-7.76018 L -10.4176,-7.73941 L -10.3636,-7.7301
 L -10.2622,-7.71617 L -10.2081,-7.71062 L -10.1057,-7.7036 L -10.051,-7.70174 L -9.94902,-7.70174 L -9.89424,-7.7036
 L -9.79192,-7.71062 L -9.73779,-7.71617 L -9.63638,-7.7301 L -9.58241,-7.73941 L -9.48247,-7.76018 L -9.42911,-7.77318
 L -9.3306,-7.80078 L -9.27876,-7.81725 L -9.18188,-7.85168 L -9.13142,-7.87158 L -9.03738,-7.91241 L -8.9881,-7.93587
 L -8.89717,-7.98297 L -8.84975,-8.00963 L -8.76195,-8.06302 L -8.71651,-8.09283 L -8.63284,-8.15189 L -8.58946,-8.18478
 L -8.50974,-8.24965 L -8.46881,-8.28534 L -8.39386,-8.35533 L -8.35533,-8.39386 L -8.28534,-8.46881 L -8.24965,-8.50974
 L -8.18478,-8.58946 L -8.15189,-8.63284 L -8.09283,-8.71651 L -8.06302,-8.76195 L -8.00963,-8.84975 L -7.98297,-8.89717
 L -7.93587,-8.9881 L -7.91241,-9.03738 L -7.87158,-9.13142 L -7.85168,-9.18188 L -7.81725,-9.27876 L -7.80078,-9.3306
 L -7.77318,-9.42911 L -7.76018,-9.48247 L -7.73941,-9.58241 L -7.7301,-9.63638 L -7.71617,-9.73779 L -7.71062,-9.79192
 L -7.7036,-9.89424 L -7.70174,-9.94902 L -7.70174,-10.051 L -7.7036,-10.1057 L -7.71062,-10.2081 L -7.71617,-10.2622
 L -7.7301,-10.3636 L -7.73941,-10.4176 L -7.76018,-10.5175 L -7.77318,-10.5709 L -7.80078,-10.6694 L -7.81725,-10.7212
 L -7.85165,-10.818 L -7.86922,-10.8626 L -7.93781,-11.0556 L -7.99306,-11.2529 L -8.03471,-11.4534 L -8.06261,-11.6564
 L -8.07657,-11.8607 L -8.07655,-12.0656 L -8.06256,-12.2699 L -8.03465,-12.4729 L -7.99297,-12.6734 L -7.93768,-12.8707
 L -7.86906,-13.0637 L -7.78745,-13.2516 L -7.69319,-13.4335 L -7.58675,-13.6085 L -7.4686,-13.7758 L -7.33931,-13.9347
 L -7.19963,-14.0843 L -5.34024,-15.9437 L -5.19054,-16.0835 L -5.03163,-16.2128 L -4.86427,-16.3309 L -4.68925,-16.4373
 L -4.50737,-16.5316 L -4.31947,-16.6132 L -4.12646,-16.6818 L -3.92921,-16.737 L -3.72865,-16.7787 L -3.52571,-16.8066
 L -3.32133,-16.8206 L -3.1165,-16.8206 L -2.91212,-16.8066 L -2.70918,-16.7787 L -2.50862,-16.737 L -2.31137,-16.6818
 L -2.11836,-16.6132 L -1.93047,-16.5316 L -1.74858,-16.4373 L -1.57356,-16.3309 L -1.40601,-16.2126 L -1.36708,-16.1831
 L -1.28348,-16.1241 L -1.23804,-16.0943 L -1.15024,-16.0409 L -1.10281,-16.0142 L -1.01189,-15.9671 L -0.962601,-15.9436
 L -0.868561,-15.9028 L -0.8181,-15.8829 L -0.721222,-15.8485 L -0.669388,-15.832 L -0.570877,-15.8044 L -0.517517,-15.7914
 L -0.417572,-15.7706 L -0.363602,-15.7613 L -0.262192,-15.7474 L -0.208069,-15.7419 L -0.105743,-15.7348 L -0.0509796,-15.733
 L 0.0509796,-15.733 L 0.105743,-15.7348 L 0.208069,-15.7419 L 0.262192,-15.7474 L 0.363602,-15.7613 L 0.417572,-15.7706
 L 0.517517,-15.7914 L 0.570877,-15.8044 L 0.669388,-15.832 L 0.721222,-15.8485 L 0.8181,-15.8829 L 0.868561,-15.9028
 L 0.962601,-15.9436 L 1.01189,-15.9671 L 1.10281,-16.0142 L 1.15024,-16.0409 L 1.23804,-16.0943 L 1.28348,-16.1241
 L 1.36708,-16.1831 L 1.40601,-16.2126 L 1.57335,-16.3307 L 1.74837,-16.4372 L 1.93024,-16.5315 L 2.11812,-16.6131
 L 2.31114,-16.6817 L 2.50838,-16.737 L 2.70894,-16.7787 L 2.91188,-16.8066 L 3.11624,-16.8206 L 3.32109,-16.8206
 L 3.52547,-16.8066 L 3.72841,-16.7788 L 3.92897,-16.7371 L 4.12622,-16.6819 L 4.31924,-16.6133 L 4.50714,-16.5317
 L 4.68903,-16.4374 L 4.86406,-16.331 L 5.03143,-16.2129 L 5.19034,-16.0836 L 5.34024,-15.9437 L 7.19963,-14.0843
 L 7.33945,-13.9346 L 7.46872,-13.7757 L 7.58685,-13.6083 L 7.69328,-13.4333 L 7.78754,-13.2514 L 7.86914,-13.0635
 L 7.93774,-12.8705 L 7.99301,-12.6732 L 8.03468,-12.4727 L 8.06258,-12.2697 L 8.07655,-12.0654 L 8.07655,-11.8605
 L 8.06258,-11.6562 L 8.03468,-11.4532 L 7.99301,-11.2527 L 7.93774,-11.0554 L 7.86922,-10.8626 L 7.85165,-10.818
 L 7.81725,-10.7212 L 7.80078,-10.6694 L 7.77318,-10.5709 L 7.76018,-10.5175 L 7.73941,-10.4176 L 7.7301,-10.3636
 L 7.71617,-10.2622 L 7.71062,-10.2081 L 7.7036,-10.1057 L 7.70174,-10.051 L 7.70174,-9.94902 L 7.7036,-9.89424
 L 7.71062,-9.79192 L 7.71617,-9.73779 L 7.7301,-9.63638 L 7.73941,-9.58241 L 7.76018,-9.48247 L 7.77318,-9.42911
 L 7.80078,-9.3306 L 7.81725,-9.27876 L 7.85168,-9.18188 L 7.87158,-9.13142 L 7.91241,-9.03738 L 7.93587,-8.9881
 L 7.98297,-8.89717 L 8.00963,-8.84975 L 8.06302,-8.76195 L 8.09283,-8.71651 L 8.15189,-8.63284 L 8.18478,-8.58946
 L 8.24965,-8.50974 L 8.28534,-8.46881 L 8.35533,-8.39386 L 8.39386,-8.35533 L 8.46881,-8.28534 L 8.50974,-8.24965
 L 8.58946,-8.18478 L 8.63284,-8.15189 L 8.71651,-8.09283 L 8.76195,-8.06302 L 8.84975,-8.00963 L 8.89717,-7.98297
 L 8.9881,-7.93587 L 9.03738,-7.91241 L 9.13142,-7.87158 L 9.18188,-7.85168 L 9.27876,-7.81725 L 9.3306,-7.80078
 L 9.42911,-7.77318 L 9.48247,-7.76018 L 9.58241,-7.73941 L 9.63638,-7.7301 L 9.73779,-7.71617 L 9.79192,-7.71062
 L 9.89424,-7.7036 L 9.94902,-7.70174 L 10.051,-7.70174 L 10.1057,-7.7036 L 10.2081,-7.71062 L 10.2622,-7.71617
 L 10.3636,-7.7301 L 10.4176,-7.73941 L 10.5175,-7.76018 L 10.5709,-7.77318 L 10.6694,-7.80078 L 10.7212,-7.81725
 L 10.818,-7.85165 L 10.8626,-7.86922 L 11.0556,-7.93781 L 11.2529,-7.99306 L 11.4534,-8.03471 L 11.6564,-8.06261
 L 11.8607,-8.07657 L 12.0656,-8.07655 L 12.2699,-8.06256 L 12.4729,-8.03465 L 12.6734,-7.99297 L 12.8707,-7.93768
 L 13.0637,-7.86906 L 13.2516,-7.78745 L 13.4335,-7.69319 L 13.6085,-7.58675 L 13.7758,-7.4686 L 13.9347,-7.33931
 L 14.0843,-7.19963 L 15.9437,-5.34024 L 16.0835,-5.19054 L 16.2128,-5.03163 L 16.3309,-4.86427 L 16.4373,-4.68925
 L 16.5316,-4.50737 L 16.6132,-4.31947 L 16.6818,-4.12646 L 16.737,-3.92921 L 16.7787,-3.72865 L 16.8066,-3.52571
 L 16.8206,-3.32133 L 16.8206,-3.1165 L 16.8066,-2.91212 L 16.7787,-2.70918 L 16.737,-2.50862 L 16.6818,-2.31137
 L 16.6132,-2.11836 L 16.5316,-1.93047 L 16.4373,-1.74858 L 16.3309,-1.57356 L 16.2126,-1.40601 L 16.1831,-1.36708
 L 16.1241,-1.28348 L 16.0943,-1.23804 L 16.0409,-1.15024 L 16.0142,-1.10281 L 15.9671,-1.01189 L 15.9436,-0.962601
 L 15.9028,-0.868561 L 15.8829,-0.8181 L 15.8485,-0.721222 L 15.832,-0.669388 L 15.8044,-0.570877 L 15.7914,-0.517517
 L 15.7706,-0.417572 L 15.7613,-0.363602 L 15.7474,-0.262192 L 15.7419,-0.208069 L 15.7348,-0.105743 L 15.733,-0.0509796
 L 15.733,0.0509796 L 15.7348,0.105743 L 15.7419,0.208069 L 15.7474,0.262192 L 15.7613,0.363602 L 15.7706,0.417572
 L 15.7914,0.517517 L 15.8044,0.570877 L 15.832,0.669388 L 15.8485,0.721222 L 15.8829,0.8181 L 15.9028,0.868561
 L 15.9436,0.962601 L 15.9671,1.01189 L 16.0142,1.10281 L 16.0409,1.15024 L 16.0943,1.23804 L 16.1241,1.28348
 L 16.1831,1.36708 L 16.2126,1.40601 L 16.3307,1.57335 L 16.4372,1.74837 L 16.5315,1.93024 L 16.6131,2.11812
 L 16.6817,2.31114 L 16.737,2.50838 L 16.7787,2.70894 L 16.8066,2.91188 L 16.8206,3.11624 L 16.8206,3.32109
 L 16.8066,3.52547 L 16.7788,3.72841 L 16.7371,3.92897 L 16.6819,4.12622 L 16.6133,4.31924 L 16.5317,4.50714
 L 16.4374,4.68903 L 16.331,4.86406 L 16.2129,5.03143 L 16.0836,5.19034 L 15.9437,5.34024 L 14.0843,7.19963
 L 13.9346,7.33945 L 13.7757,7.46872 L 13.6083,7.58685 L 13.4333,7.69328 L 13.2514,7.78754 L 13.0635,7.86914
 L 12.8705,7.93774 L 12.6732,7.99301 L 12.4727,8.03468 L 12.2697,8.06258 L 12.0654,8.07655 L 11.8605,8.07655
 L 11.6562,8.06258 L 11.4532,8.03468 L 11.2527,7.99301 L 11.0554,7.93774 L 10.8626,7.86922 L 10.818,7.85165
 L 10.7212,7.81725 L 10.6694,7.80078 L 10.5709,7.77318 L 10.5175,7.76018 L 10.4176,7.73941 L 10.3636,7.7301
 L 10.2622,7.71617 L 10.2081,7.71062 L 10.1057,7.7036 L 10.051,7.70174 L 9.94902,7.70174 L 9.89424,7.7036
 L 9.79192,7.71062 L 9.73779,7.71617 L 9.63638,7.7301 L 9.58241,7.73941 L 9.48247,7.76018 L 9.42911,7.77318
 L 9.3306,7.80078 L 9.27876,7.81725 L 9.18188,7.85168 L 9.13142,7.87158 L 9.03738,7.91241 L 8.9881,7.93587
 L 8.89717,7.98297 L 8.84975,8.00963 L 8.76195,8.06302 L 8.71651,8.09283 L 8.63284,8.15189 L 8.58946,8.18478
 L 8.50974,8.24965 L 8.46881,8.28534 L 8.39386,8.35533 L 8.35533,8.39386 L 8.28534,8.46881 L 8.24965,8.50974
 L 8.18478,8.58946 L 8.15189,8.63284 L 8.09283,8.71651 L 8.06302,8.76195 L 8.00963,8.84975 L 7.98297,8.89717
 L 7.93587,8.9881 L 7.91241,9.03738 L 7.87158,9.13142 L 7.85168,9.18188 L 7.81725,9.27876 L 7.80078,9.3306
 L 7.77318,9.42911 L 7.76018,9.48247 L 7.73941,9.58241 L 7.7301,9.63638 L 7.71617,9.73779 L 7.71062,9.79192
 L 7.7036,9.89424 L 7.70174,9.94902 L 7.70174,10.051 L 7.7036,10.1057 L 7.71062,10.2081 L 7.71617,10.2622
 L 7.7301,10.3636 L 7.73941,10.4176 L 7.76018,10.5175 L 7.77318,10.5709 L 7.80078,10.6694 L 7.81725,10.7212
 L 7.85165,10.818 L 7.86922,10.8626 L 7.93781,11.0556 L 7.99306,11.2529 L 8.03471,11.4534 L 8.06261,11.6564
 L 8.07657,11.8607 L 8.07655,12.0656 L 8.06256,12.2699 L 8.03465,12.4729 L 7.99297,12.6734 L 7.93768,12.8707
 L 7.86906,13.0637 L 7.78745,13.2516 L 7.69319,13.4335 L 7.58675,13.6085 L 7.4686,13.7758 L 7.33931,13.9347
 L 7.19963,14.0843 L 5.34024,15.9437 L 5.19054,16.0835 L 5.03163,16.2128 L 4.86427,16.3309 L 4.68925,16.4373
 L 4.50737,16.5316 L 4.31947,16.6132 L 4.12646,16.6818 L 3.92921,16.737 L 3.72865,16.7787 L 3.52571,16.8066
 L 3.32133,16.8206 L 3.1165,16.8206 L 2.91212,16.8066 L 2.70918,16.7787 L 2.50862,16.737 L 2.31137,16.6818
 L 2.11836,16.6132 L 1.93047,16.5316 L 1.74858,16.4373 L 1.57356,16.3309 L 1.40601,16.2126 L 1.36708,16.1831
 L 1.28348,16.1241 L 1.23804,16.0943 L 1.15024,16.0409 L 1.10281,16.0142 L 1.01189,15.9671 L 0.962616,15.9437
 L 0.868561,15.9028 L 0.8181,15.8829 L 0.721222,15.8485 L 0.669388,15.832 L 0.570877,15.8044 L 0.517517,15.7914
 L 0.417572,15.7706 L 0.363602,15.7613 L 0.262192,15.7474 L 0.208069,15.7419 L 0.105743,15.7348 L 0.0509796,15.733
 L -0.0509796,15.733 L -0.105743,15.7348 L -0.208069,15.7419 L -0.262192,15.7474 L -0.363602,15.7613 L -0.417572,15.7706
 L -0.517517,15.7914 L -0.570877,15.8044 L -0.669388,15.832 L -0.721222,15.8485 L -0.8181,15.8829 L -0.868561,15.9028
 L -0.962616,15.9437 L -1.01189,15.9671 L -1.10281,16.0142 L -1.15024,16.0409 L -1.23804,16.0943 L -1.28348,16.1241
 L -1.36708,16.1831 L -1.40601,16.2126 L -1.57335,16.3307 L -1.74837,16.4372 L -1.93024,16.5315 L -2.11812,16.6131
 L -2.31114,16.6817 L -2.50838,16.737 L -2.70894,16.7787 L -2.91188,16.8066 L -3.11624,16.8206 L -3.32109,16.8206
 z
M -10.0751,-8.90256 L -10.1498,-8.91023 L -10.2238,-8.923 L -10.2968,-8.94078 L -10.3684,-8.9635 L -10.4382,-8.99106
 L -10.5061,-9.02332 L -10.5715,-9.06013 L -10.6343,-9.10132 L -10.6942,-9.14671 L -10.7508,-9.19608 L -10.8039,-9.24919
 L -10.8533,-9.3058 L -10.8987,-9.36565 L -10.9398,-9.42845 L -10.9767,-9.49393 L -11.0089,-9.56175 L -11.0365,-9.63162
 L -11.0592,-9.70322 L -11.077,-9.77618 L -11.0898,-9.8502 L -11.0974,-9.92493 L -11.1,-10 L -11.0974,-10.0751
 L -11.0898,-10.1498 L -11.077,-10.2238 L -11.0592,-10.2968 L -11.0365,-10.3684 L -11.0089,-10.4382 L -10.9767,-10.5061
 L -10.9398,-10.5715 L -10.8987,-10.6343 L -10.8533,-10.6942 L -10.8039,-10.7508 L -10.7508,-10.8039 L -10.6942,-10.8533
 L -10.6343,-10.8987 L -10.5715,-10.9398 L -10.5061,-10.9767 L -10.4382,-11.0089 L -10.3684,-11.0365 L -10.2968,-11.0592
 L -10.2238,-11.077 L -10.1498,-11.0898 L -10.0751,-11.0974 L -10,-11.1 L -9.92493,-11.0974 L -9.8502,-11.0898
 L -9.77618,-11.077 L -9.70322,-11.0592 L -9.63162,-11.0365 L -9.56175,-11.0089 L -9.49393,-10.9767 L -9.42845,-10.9398
 L -9.36565,-10.8987 L -9.3058,-10.8533 L -9.24919,-10.8039 L -9.19608,-10.7508 L -9.14671,-10.6942 L -9.10132,-10.6343
 L -9.06013,-10.5715 L -9.02332,-10.5061 L -8.99106,-10.4382 L -8.9635,-10.3684 L -8.94078,-10.2968 L -8.923,-10.2238
 L -8.91023,-10.1498 L -8.90256,-10.0751 L -8.89999,-10 L -8.90256,-9.92493 L -8.91023,-9.8502 L -8.923,-9.77618
 L -8.94078,-9.70322 L -8.9635,-9.63162 L -8.99106,-9.56175 L -9.02332,-9.49393 L -9.06013,-9.42845 L -9.10132,-9.36565
 L -9.14671,-9.3058 L -9.19608,-9.24919 L -9.24919,-9.19608 L -9.3058,-9.14671 L -9.36565,-9.10132 L -9.42845,-9.06013
 L -9.49393,-9.02332 L -9.56175,-8.99106 L -9.63162,-8.9635 L -9.70322,-8.94078 L -9.77618,-8.923 L -9.8502,-8.91023
 L -9.92493,-8.90256 L -10,-8.89999 z
M 9.92493,-8.90256 L 9.8502,-8.91023 L 9.77618,-8.923 L 9.70322,-8.94078 L 9.63162,-8.9635 L 9.56175,-8.99106
 L 9.49393,-9.02332 L 9.42845,-9.06013 L 9.36565,-9.10132 L 9.3058,-9.14671 L 9.24919,-9.19608 L 9.19608,-9.24919
 L 9.14671,-9.3058 L 9.10132,-9.36565 L 9.06013,-9.42845 L 9.02332,-9.49393 L 8.99106,-9.56175 L 8.9635,-9.63162
 L 8.94078,-9.70322 L 8.923,-9.77618 L 8.91023,-9.8502 L 8.90256,-9.92493 L 8.89999,-10 L 8.90256,-10.0751
 L 8.91023,-10.1498 L 8.923,-10.2238 L 8.94078,-10.2968 L 8.9635,-10.3684 L 8.99106,-10.4382 L 9.02332,-10.5061
 L 9.06013,-10.5715 L 9.10132,-10.6343 L 9.14671,-10.6942 L 9.19608,-10.7508 L 9.24919,-10.8039 L 9.3058,-10.8533
 L 9.36565,-10.8987 L 9.42845,-10.9398 L 9.49393,-10.9767 L 9.56175,-11.0089 L 9.63162,-11.0365 L 9.70322,-11.0592
 L 9.77618,-11.077 L 9.8502,-11.0898 L 9.92493,-11.0974 L 10,-11.1 L 10.0751,-11.0974 L 10.1498,-11.0898
 L 10.2238,-11.077 L 10.2968,-11.0592 L 10.3684,-11.0365 L 10.4382,-11.0089 L 10.5061,-10.9767 L 10.5715,-10.9398
 L 10.6343,-10.8987 L 10.6942,-10.8533 L 10.7508,-10.8039 L 10.8039,-10.7508 L 10.8533,-10.6942 L 10.8987,-10.6343
 L 10.9398,-10.5715 L 10.9767,-10.5061 L 11.0089,-10.4382 L 11.0365,-10.3684 L 11.0592,-10.2968 L 11.077,-10.2238
 L 11.0898,-10.1498 L 11.0974,-10.0751 L 11.1,-10 L 11.0974,-9.92493 L 11.0898,-9.8502 L 11.077,-9.77618
 L 11.0592,-9.70322 L 11.0365,-9.63162 L 11.0089,-9.56175 L 10.9767,-9.49393 L 10.9398,-9.42845 L 10.8987,-9.36565
 L 10.8533,-9.3058 L 10.8039,-9.24919 L 10.7508,-9.19608 L 10.6942,-9.14671 L 10.6343,-9.10132 L 10.5715,-9.06013
 L 10.5061,-9.02332 L 10.4382,-8.99106 L 10.3684,-8.9635 L 10.2968,-8.94078 L 10.2238,-8.923 L 10.1498,-8.91023
 L 10.0751,-8.90256 L 10,-8.89999 z
M 17.9561,1.09743 L 17.8814,1.08975 L 17.8074,1.07698 L 17.7344,1.0592 L 17.6628,1.03648 L 17.593,1.00893
 L 17.5251,0.976669 L 17.4597,0.93985 L 17.3969,0.898666 L 17.337,0.853271 L 17.2804,0.803909 L 17.2273,0.750793
 L 17.1779,0.694183 L 17.1326,0.634338 L 17.0914,0.571533 L 17.0545,0.506058 L 17.0223,0.438232 L 16.9947,0.368362
 L 16.972,0.296768 L 16.9542,0.223801 L 16.9415,0.14978 L 16.9338,0.075058 L 16.9312,-0 L 16.9338,-0.075058
 L 16.9415,-0.14978 L 16.9542,-0.223801 L 16.972,-0.296768 L 16.9947,-0.368362 L 17.0223,-0.438232 L 17.0545,-0.506058
 L 17.0914,-0.571533 L 17.1326,-0.634338 L 17.1779,-0.694183 L 17.2273,-0.750793 L 17.2804,-0.803909 L 17.337,-0.853271
 L 17.3969,-0.898666 L 17.4597,-0.93985 L 17.5251,-0.976669 L 17.593,-1.00893 L 17.6628,-1.03648 L 17.7344,-1.0592
 L 17.8074,-1.07698 L 17.8814,-1.08975 L 17.9561,-1.09743 L 18.0312,-1.09999 L 18.1063,-1.09743 L 18.181,-1.08975
 L 18.255,-1.07698 L 18.328,-1.0592 L 18.3996,-1.03648 L 18.4695,-1.00893 L 18.5373,-0.976669 L 18.6028,-0.93985
 L 18.6656,-0.898666 L 18.7254,-0.853271 L 18.782,-0.803909 L 18.8351,-0.750793 L 18.8845,-0.694183 L 18.9299,-0.634338
 L 18.9711,-0.571533 L 19.0079,-0.506058 L 19.0401,-0.438232 L 19.0677,-0.368362 L 19.0904,-0.296768 L 19.1082,-0.223801
 L 19.121,-0.14978 L 19.1286,-0.075058 L 19.1312,-0 L 19.1286,0.075058 L 19.121,0.14978 L 19.1082,0.223801
 L 19.0904,0.296768 L 19.0677,0.368362 L 19.0401,0.438232 L 19.0079,0.506058 L 18.9711,0.571533 L 18.9299,0.634338
 L 18.8845,0.694183 L 18.8351,0.750793 L 18.782,0.803909 L 18.7254,0.853271 L 18.6656,0.898666 L 18.6028,0.93985
 L 18.5373,0.976669 L 18.4695,1.00893 L 18.3996,1.03648 L 18.328,1.0592 L 18.255,1.07698 L 18.181,1.08975
 L 18.1063,1.09743 L 18.0312,1.09999 z
M -18.1063,1.09743 L -18.181,1.08975 L -18.255,1.07698 L -18.328,1.0592 L -18.3996,1.03648 L -18.4695,1.00893
 L -18.5373,0.976669 L -18.6028,0.93985 L -18.6656,0.898666 L -18.7254,0.853271 L -18.782,0.803909 L -18.8351,0.750793
 L -18.8845,0.694183 L -18.9299,0.634338 L -18.9711,0.571533 L -19.0079,0.506058 L -19.0401,0.438232 L -19.0677,0.368362
 L -19.0904,0.296768 L -19.1082,0.223801 L -19.121,0.14978 L -19.1286,0.075058 L -19.1312,-0 L -19.1286,-0.075058
 L -19.121,-0.14978 L -19.1082,-0.223801 L -19.0904,-0.296768 L -19.0677,-0.368362 L -19.0401,-0.438232 L -19.0079,-0.506058
 L -18.9711,-0.571533 L -18.9299,-0.634338 L -18.8845,-0.694183 L -18.8351,-0.750793 L -18.782,-0.803909 L -18.7254,-0.853271
 L -18.6656,-0.898666 L -18.6028,-0.93985 L -18.5373,-0.976669 L -18.4695,-1.00893 L -18.3996,-1.03648 L -18.328,-1.0592
 L -18.255,-1.07698 L -18.181,-1.08975 L -18.1063,-1.09743 L -18.0312,-1.09999 L -17.9561,-1.09743 L -17.8814,-1.08975
 L -17.8074,-1.07698 L -17.7344,-1.0592 L -17.6628,-1.03648 L -17.593,-1.00893 L -17.5251,-0.976669 L -17.4597,-0.93985
 L -17.3969,-0.898666 L -17.337,-0.853271 L -17.2804,-0.803909 L -17.2273,-0.750793 L -17.1779,-0.694183 L -17.1326,-0.634338
 L -17.0914,-0.571533 L -17.0545,-0.506058 L -17.0223,-0.438232 L -16.9947,-0.368362 L -16.972,-0.296768 L -16.9542,-0.223801
 L -16.9415,-0.14978 L -16.9338,-0.075058 L -16.9312,-0 L -16.9338,0.075058 L -16.9415,0.14978 L -16.9542,0.223801
 L -16.972,0.296768 L -16.9947,0.368362 L -17.0223,0.438232 L -17.0545,0.506058 L -17.0914,0.571533 L -17.1326,0.634338
 L -17.1779,0.694183 L -17.2273,0.750793 L -17.2804,0.803909 L -17.337,0.853271 L -17.3969,0.898666 L -17.4597,0.93985
 L -17.5251,0.976669 L -17.593,1.00893 L -17.6628,1.03648 L -17.7344,1.0592 L -17.8074,1.07698 L -17.8814,1.08975
 L -17.9561,1.09743 L -18.0312,1.09999 z
M -20.1219,26.6383 L -20.3257,26.617 L -20.5275,26.5819 L -20.7264,26.533 L -20.9216,26.4707 L -21.112,26.3952
 L -21.2968,26.3069 L -21.4752,26.2063 L -21.6463,26.0936 L -21.8093,25.9696 L -21.9635,25.8347 L -22.1081,25.6896
 L -22.2425,25.535 L -22.366,25.3715 L -22.478,25.2 L -22.6164,24.9445 L -22.6341,24.9076 L -22.7448,24.6959
 L -22.7953,24.6069 L -22.9204,24.4029 L -22.9767,24.3178 L -23.1154,24.1229 L -23.1775,24.0417 L -23.3289,23.857
 L -23.3966,23.7799 L -23.5606,23.6057 L -23.6328,23.534 L -23.8083,23.3714 L -23.8858,23.3043 L -24.0715,23.1544
 L -24.1535,23.0926 L -24.3494,22.9555 L -24.4349,22.8999 L -24.6397,22.7764 L -24.7291,22.7266 L -24.9873,22.5941
 L -24.987,22.5935 L -25.1058,22.5324 L -25.2813,22.4267 L -25.4491,22.3092 L -25.6085,22.1805 L -25.7587,22.0413
 L -25.8991,21.8921 L -26.029,21.7337 L -26.1478,21.5668 L -26.2549,21.3922 L -26.3498,21.2107 L -26.4322,21.0231
 L -26.5015,20.8304 L -26.5575,20.6333 L -26.6,20.4329 L -26.6286,20.2301 L -26.6434,20.0258 L -26.6442,19.8209
 L -26.631,19.6165 L -26.6039,19.4135 L -26.563,19.2127 L -26.5357,19.1073 L -23.1016,6.77037 L -23.04,6.57503
 L -22.9651,6.38432 L -22.8775,6.19919 L -22.7774,6.02046 L -22.6653,5.84898 L -22.5418,5.68555 L -22.4075,5.53093
 L -22.2629,5.38583 L -22.1087,5.25095 L -21.9457,5.12689 L -21.7746,5.01425 L -21.5962,4.91354 L -21.4114,4.82526
 L -21.2209,4.74979 L -21.0258,4.68748 L -20.8268,4.63864 L -20.625,4.6035 L -20.4213,4.5822 L -20.2166,4.57486
 L -20.0118,4.58151 L -19.808,4.60211 L -19.6061,4.63658 L -19.407,4.68474 L -19.2117,4.74637 L -19.021,4.8212
 L -18.8358,4.90886 L -18.6571,5.00896 L -18.4856,5.12102 L -18.3222,5.24452 L -18.1676,5.37888 L -18.0902,5.45354
 L -5.45352,18.0902 L -5.31371,18.2399 L -5.18443,18.3988 L -5.0663,18.5661 L -4.95987,18.7412 L -4.86562,18.923
 L -4.78401,19.1109 L -4.71541,19.304 L -4.66014,19.5012 L -4.61847,19.7018 L -4.59058,19.9047 L -4.5766,20.1091
 L -4.5766,20.3139 L -4.59058,20.5183 L -4.61847,20.7212 L -4.66014,20.9218 L -4.71541,21.119 L -4.78401,21.3121
 L -4.86562,21.5 L -4.95987,21.6818 L -5.0663,21.8569 L -5.18443,22.0242 L -5.31371,22.1831 L -5.45352,22.3328
 L -5.60323,22.4726 L -5.76213,22.6019 L -5.92949,22.72 L -6.10451,22.8265 L -6.28639,22.9207 L -6.47429,23.0023
 L -6.6673,23.0709 L -6.77037,23.1016 L -19.1077,26.5358 L -19.3067,26.5839 L -19.5087,26.6184 L -19.7125,26.639
 L -19.9172,26.6456 z
M 19.7982,26.6435 L 19.5938,26.6287 L 19.391,26.6 L 19.1077,26.5358 L 6.77037,23.1016 L 6.57501,23.04
 L 6.38432,22.9652 L 6.19917,22.8775 L 6.02045,22.7774 L 5.84897,22.6653 L 5.68553,22.5419 L 5.53091,22.4075
 L 5.38582,22.2629 L 5.25093,22.1087 L 5.12688,21.9457 L 5.01424,21.7746 L 4.91354,21.5962 L 4.82524,21.4114
 L 4.74977,21.2209 L 4.68747,21.0258 L 4.63863,20.8269 L 4.60349,20.625 L 4.58218,20.4213 L 4.57484,20.2166
 L 4.5815,20.0119 L 4.6021,19.8081 L 4.63657,19.6061 L 4.68472,19.407 L 4.74635,19.2117 L 4.82118,19.021
 L 4.90884,18.8358 L 5.00894,18.6571 L 5.121,18.4856 L 5.24449,18.3222 L 5.37886,18.1676 L 5.45352,18.0902
 L 18.0902,5.45354 L 18.2399,5.31372 L 18.3988,5.18445 L 18.5661,5.06631 L 18.7411,4.95988 L 18.923,4.86563
 L 19.1109,4.78403 L 19.3039,4.71542 L 19.5012,4.66016 L 19.7018,4.61848 L 19.9047,4.59059 L 20.1091,4.57661
 L 20.3139,4.57661 L 20.5183,4.59059 L 20.7212,4.61848 L 20.9218,4.66016 L 21.119,4.71542 L 21.312,4.78403
 L 21.4999,4.86563 L 21.6818,4.95988 L 21.8568,5.06631 L 22.0242,5.18445 L 22.1831,5.31372 L 22.3328,5.45354
 L 22.4726,5.60324 L 22.6019,5.76215 L 22.72,5.9295 L 22.8265,6.10452 L 22.9207,6.28641 L 23.0023,6.4743
 L 23.0709,6.66731 L 23.1016,6.77037 L 26.5357,19.1073 L 26.5838,19.3064 L 26.6183,19.5084 L 26.6389,19.7122
 L 26.6456,19.9169 L 26.6382,20.1216 L 26.6169,20.3254 L 26.5818,20.5272 L 26.5329,20.7261 L 26.4706,20.9212
 L 26.3952,21.1117 L 26.3069,21.2965 L 26.2062,21.4749 L 26.0935,21.646 L 25.9695,21.809 L 25.8346,21.9632
 L 25.6895,22.1078 L 25.5349,22.2422 L 25.3714,22.3657 L 25.2,22.4777 L 25.0212,22.5778 L 24.9616,22.6072
 L 24.7291,22.7266 L 24.6397,22.7764 L 24.4349,22.8999 L 24.3494,22.9555 L 24.1535,23.0926 L 24.0715,23.1544
 L 23.8858,23.3043 L 23.8083,23.3714 L 23.6328,23.534 L 23.5606,23.6057 L 23.3966,23.7799 L 23.3289,23.857
 L 23.1775,24.0417 L 23.1154,24.1229 L 22.9767,24.3178 L 22.9204,24.4029 L 22.7953,24.6069 L 22.7448,24.6959
 L 22.6341,24.9076 L 22.6164,24.9445 L 22.5214,25.126 L 22.4143,25.3006 L 22.2955,25.4675 L 22.1656,25.6259
 L 22.0253,25.7751 L 21.875,25.9144 L 21.7156,26.043 L 21.5478,26.1605 L 21.3724,26.2663 L 21.1901,26.3598
 L 21.0019,26.4407 L 20.8087,26.5086 L 20.6112,26.5631 L 20.4105,26.604 L 20.2074,26.6311 L 20.003,26.6443
 z
M -10.0751,11.0974 L -10.1498,11.0898 L -10.2238,11.077 L -10.2968,11.0592 L -10.3684,11.0365 L -10.4382,11.0089
 L -10.5061,10.9767 L -10.5715,10.9398 L -10.6343,10.8987 L -10.6942,10.8533 L -10.7508,10.8039 L -10.8039,10.7508
 L -10.8533,10.6942 L -10.8987,10.6343 L -10.9398,10.5715 L -10.9767,10.5061 L -11.0089,10.4382 L -11.0365,10.3684
 L -11.0592,10.2968 L -11.077,10.2238 L -11.0898,10.1498 L -11.0974,10.0751 L -11.1,10 L -11.0974,9.92493
 L -11.0898,9.8502 L -11.077,9.77618 L -11.0592,9.70322 L -11.0365,9.63162 L -11.0089,9.56175 L -10.9767,9.49393
 L -10.9398,9.42845 L -10.8987,9.36565 L -10.8533,9.3058 L -10.8039,9.24919 L -10.7508,9.19608 L -10.6942,9.14671
 L -10.6343,9.10132 L -10.5715,9.06013 L -10.5061,9.02332 L -10.4382,8.99106 L -10.3684,8.9635 L -10.2968,8.94078
 L -10.2238,8.923 L -10.1498,8.91023 L -10.0751,8.90256 L -10,8.89999 L -9.92493,8.90256 L -9.8502,8.91023
 L -9.77618,8.923 L -9.70322,8.94078 L -9.63162,8.9635 L -9.56175,8.99106 L -9.49393,9.02332 L -9.42845,9.06013
 L -9.36565,9.10132 L -9.3058,9.14671 L -9.24919,9.19608 L -9.19608,9.24919 L -9.14671,9.3058 L -9.10132,9.36565
 L -9.06013,9.42845 L -9.02332,9.49393 L -8.99106,9.56175 L -8.9635,9.63162 L -8.94078,9.70322 L -8.923,9.77618
 L -8.91023,9.8502 L -8.90256,9.92493 L -8.89999,10 L -8.90256,10.0751 L -8.91023,10.1498 L -8.923,10.2238
 L -8.94078,10.2968 L -8.9635,10.3684 L -8.99106,10.4382 L -9.02332,10.5061 L -9.06013,10.5715 L -9.10132,10.6343
 L -9.14671,10.6942 L -9.19608,10.7508 L -9.24919,10.8039 L -9.3058,10.8533 L -9.36565,10.8987 L -9.42845,10.9398
 L -9.49393,10.9767 L -9.56175,11.0089 L -9.63162,11.0365 L -9.70322,11.0592 L -9.77618,11.077 L -9.8502,11.0898
 L -9.92493,11.0974 L -10,11.1 z
M 9.92493,11.0974 L 9.8502,11.0898 L 9.77618,11.077 L 9.70322,11.0592 L 9.63162,11.0365 L 9.56175,11.0089
 L 9.49393,10.9767 L 9.42845,10.9398 L 9.36565,10.8987 L 9.3058,10.8533 L 9.24919,10.8039 L 9.19608,10.7508
 L 9.14671,10.6942 L 9.10132,10.6343 L 9.06013,10.5715 L 9.02332,10.5061 L 8.99106,10.4382 L 8.9635,10.3684
 L 8.94078,10.2968 L 8.923,10.2238 L 8.91023,10.1498 L 8.90256,10.0751 L 8.89999,10 L 8.90256,9.92493
 L 8.91023,9.8502 L 8.923,9.77618 L 8.94078,9.70322 L 8.9635,9.63162 L 8.99106,9.56175 L 9.02332,9.49393
 L 9.06013,9.42845 L 9.10132,9.36565 L 9.14671,9.3058 L 9.19608,9.24919 L 9.24919,9.19608 L 9.3058,9.14671
 L 9.36565,9.10132 L 9.42845,9.06013 L 9.49393,9.02332 L 9.56175,8.99106 L 9.63162,8.9635 L 9.70322,8.94078
 L 9.77618,8.923 L 9.8502,8.91023 L 9.92493,8.90256 L 10,8.89999 L 10.0751,8.90256 L 10.1498,8.91023
 L 10.2238,8.923 L 10.2968,8.94078 L 10.3684,8.9635 L 10.4382,8.99106 L 10.5061,9.02332 L 10.5715,9.06013
 L 10.6343,9.10132 L 10.6942,9.14671 L 10.7508,9.19608 L 10.8039,9.24919 L 10.8533,9.3058 L 10.8987,9.36565
 L 10.9398,9.42845 L 10.9767,9.49393 L 11.0089,9.56175 L 11.0365,9.63162 L 11.0592,9.70322 L 11.077,9.77618
 L 11.0898,9.8502 L 11.0974,9.92493 L 11.1,10 L 11.0974,10.0751 L 11.0898,10.1498 L 11.077,10.2238
 L 11.0592,10.2968 L 11.0365,10.3684 L 11.0089,10.4382 L 10.9767,10.5061 L 10.9398,10.5715 L 10.8987,10.6343
 L 10.8533,10.6942 L 10.8039,10.7508 L 10.7508,10.8039 L 10.6942,10.8533 L 10.6343,10.8987 L 10.5715,10.9398
 L 10.5061,10.9767 L 10.4382,11.0089 L 10.3684,11.0365 L 10.2968,11.0592 L 10.2238,11.077 L 10.1498,11.0898
 L 10.0751,11.0974 L 10,11.1 z
M -0.075058,19.1286 L -0.14978,19.121 L -0.223801,19.1082 L -0.296768,19.0904 L -0.368362,19.0677 L -0.438232,19.0401
 L -0.506058,19.0079 L -0.571533,18.9711 L -0.634338,18.9299 L -0.694183,18.8845 L -0.750793,18.8351 L -0.803909,18.782
 L -0.853271,18.7254 L -0.898666,18.6656 L -0.93985,18.6028 L -0.976669,18.5373 L -1.00893,18.4695 L -1.03648,18.3996
 L -1.0592,18.328 L -1.07698,18.255 L -1.08975,18.181 L -1.09743,18.1063 L -1.09999,18.0312 L -1.09743,17.9561
 L -1.08975,17.8814 L -1.07698,17.8074 L -1.0592,17.7344 L -1.03648,17.6628 L -1.00893,17.593 L -0.976669,17.5251
 L -0.93985,17.4597 L -0.898666,17.3969 L -0.853271,17.337 L -0.803909,17.2804 L -0.750793,17.2273 L -0.694183,17.1779
 L -0.634338,17.1326 L -0.571533,17.0914 L -0.506058,17.0545 L -0.438232,17.0223 L -0.368362,16.9947 L -0.296768,16.972
 L -0.223801,16.9542 L -0.14978,16.9415 L -0.075058,16.9338 L 0,16.9312 L 0.075058,16.9338 L 0.14978,16.9415
 L 0.223801,16.9542 L 0.296768,16.972 L 0.368362,16.9947 L 0.438232,17.0223 L 0.506058,17.0545 L 0.571533,17.0914
 L 0.634338,17.1326 L 0.694183,17.1779 L 0.750793,17.2273 L 0.803909,17.2804 L 0.853271,17.337 L 0.898666,17.3969
 L 0.93985,17.4597 L 0.976669,17.5251 L 1.00893,17.593 L 1.03648,17.6628 L 1.0592,17.7344 L 1.07698,17.8074
 L 1.08975,17.8814 L 1.09743,17.9561 L 1.09999,18.0312 L 1.09743,18.1063 L 1.08975,18.181 L 1.07698,18.255
 L 1.0592,18.328 L 1.03648,18.3996 L 1.00893,18.4695 L 0.976669,18.5373 L 0.93985,18.6028 L 0.898666,18.6656
 L 0.853271,18.7254 L 0.803909,18.782 L 0.750793,18.8351 L 0.694183,18.8845 L 0.634338,18.9299 L 0.571533,18.9711
 L 0.506058,19.0079 L 0.438232,19.0401 L 0.368362,19.0677 L 0.296768,19.0904 L 0.223801,19.1082 L 0.14978,19.121
 L 0.075058,19.1286 L 0,19.1312 z
M -26.0473,24.7843 L -26.0995,24.7786 L -26.1513,24.7692 L -26.2022,24.7564 L -26.2522,24.7401 L -26.301,24.7205
 L -26.3483,24.6975 L -26.3939,24.6714 L -26.4377,24.6422 L -26.4793,24.6102 L -26.5187,24.5753 L -26.5556,24.5378
 L -26.5898,24.498 L -26.6213,24.4558 L -26.6498,24.4116 L -26.6752,24.3656 L -26.6974,24.318 L -26.7163,24.2689
 L -26.7319,24.2187 L -26.7439,24.1675 L -26.7525,24.1156 L -26.7574,24.0633 L -26.7589,24.0107 L -26.7567,23.9582
 L -26.7509,23.9059 L -26.7416,23.8542 L -26.7287,23.8032 L -26.7124,23.7532 L -26.6928,23.7044 L -26.6698,23.6571
 L -26.6437,23.6115 L -26.6145,23.5678 L -26.5825,23.5261 L -26.5476,23.4867 L -26.5101,23.4498 L -26.4703,23.4156
 L -26.4281,23.3841 L -26.384,23.3556 L -26.3379,23.3302 L -26.2903,23.308 L -26.2412,23.2891 L -26.191,23.2736
 L -26.1398,23.2615 L -26.0879,23.253 L -26.0356,23.248 L -25.983,23.2466 L -25.9305,23.2488 L -25.8783,23.2545
 L -25.8265,23.2639 L -25.7755,23.2767 L -25.7255,23.293 L -25.6768,23.3127 L -25.6295,23.3356 L -25.5838,23.3617
 L -25.5401,23.3909 L -25.4984,23.423 L -25.4591,23.4578 L -25.4222,23.4953 L -25.3879,23.5352 L -25.3565,23.5773
 L -25.328,23.6215 L -25.3025,23.6675 L -25.2803,23.7151 L -25.2614,23.7642 L -25.2459,23.8144 L -25.2338,23.8656
 L -25.2253,23.9175 L -25.2203,23.9698 L -25.2189,24.0224 L -25.2211,24.0749 L -25.2269,24.1272 L -25.2362,24.1789
 L -25.249,24.2299 L -25.2653,24.2799 L -25.285,24.3287 L -25.3079,24.376 L -25.334,24.4216 L -25.3632,24.4654
 L -25.3953,24.507 L -25.4301,24.5464 L -25.4676,24.5833 L -25.5075,24.6175 L -25.5496,24.649 L -25.5938,24.6775
 L -25.6398,24.7029 L -25.6875,24.7251 L -25.7365,24.744 L -25.7868,24.7596 L -25.8379,24.7716 L -25.8898,24.7802
 L -25.9422,24.7851 L -25.9947,24.7865 z
M 25.9422,24.7851 L 25.8898,24.7802 L 25.8379,24.7716 L 25.7868,24.7596 L 25.7365,24.744 L 25.6875,24.7251
 L 25.6398,24.7029 L 25.5938,24.6775 L 25.5496,24.649 L 25.5075,24.6175 L 25.4676,24.5833 L 25.4301,24.5464
 L 25.3953,24.507 L 25.3632,24.4654 L 25.334,24.4216 L 25.3079,24.376 L 25.285,24.3287 L 25.2653,24.2799
 L 25.249,24.2299 L 25.2362,24.1789 L 25.2269,24.1272 L 25.2211,24.0749 L 25.2189,24.0224 L 25.2203,23.9698
 L 25.2253,23.9175 L 25.2338,23.8656 L 25.2459,23.8144 L 25.2614,23.7642 L 25.2803,23.7151 L 25.3025,23.6675
 L 25.328,23.6215 L 25.3565,23.5773 L 25.3879,23.5352 L 25.4222,23.4953 L 25.4591,23.4578 L 25.4984,23.423
 L 25.5401,23.3909 L 25.5838,23.3617 L 25.6295,23.3356 L 25.6768,23.3127 L 25.7255,23.293 L 25.7755,23.2767
 L 25.8265,23.2639 L 25.8783,23.2545 L 25.9305,23.2488 L 25.983,23.2466 L 26.0356,23.248 L 26.0879,23.253
 L 26.1398,23.2615 L 26.191,23.2736 L 26.2412,23.2891 L 26.2903,23.308 L 26.3379,23.3302 L 26.384,23.3556
 L 26.4281,23.3841 L 26.4703,23.4156 L 26.5101,23.4498 L 26.5476,23.4867 L 26.5825,23.5261 L 26.6145,23.5678
 L 26.6437,23.6115 L 26.6698,23.6571 L 26.6928,23.7044 L 26.7124,23.7532 L 26.7287,23.8032 L 26.7416,23.8542
 L 26.7509,23.9059 L 26.7567,23.9582 L 26.7589,24.0107 L 26.7574,24.0633 L 26.7525,24.1156 L 26.7439,24.1675
 L 26.7319,24.2187 L 26.7163,24.2689 L 26.6974,24.318 L 26.6752,24.3656 L 26.6498,24.4116 L 26.6213,24.4558
 L 26.5898,24.498 L 26.5556,24.5378 L 26.5187,24.5753 L 26.4793,24.6102 L 26.4377,24.6422 L 26.3939,24.6714
 L 26.3483,24.6975 L 26.301,24.7205 L 26.2522,24.7401 L 26.2022,24.7564 L 26.1513,24.7692 L 26.0995,24.7786
 L 26.0473,24.7843 L 25.9947,24.7865 z
M -2.06824,32.0289 L -2.13615,32.0219 L -2.20345,32.0103 L -2.26979,31.9941 L -2.33487,31.9735 L -2.39839,31.9484
 L -2.46005,31.9191 L -2.51958,31.8856 L -2.57668,31.8482 L -2.63107,31.8069 L -2.68254,31.7621 L -2.73083,31.7138
 L -2.77571,31.6623 L -2.81696,31.6079 L -2.85442,31.5508 L -2.88788,31.4913 L -2.91721,31.4296 L -2.94226,31.3661
 L -2.96291,31.301 L -2.97908,31.2347 L -2.99068,31.1674 L -2.99767,31.0995 L -3,31.0312 L -3,26.0312
 L -2.99767,25.963 L -2.99068,25.8951 L -2.97908,25.8278 L -2.96291,25.7614 L -2.94226,25.6963 L -2.91721,25.6328
 L -2.88788,25.5712 L -2.85442,25.5116 L -2.81696,25.4545 L -2.77571,25.4001 L -2.73083,25.3487 L -2.68254,25.3004
 L -2.63107,25.2555 L -2.57668,25.2142 L -2.51958,25.1768 L -2.46005,25.1433 L -2.39839,25.114 L -2.33487,25.089
 L -2.26979,25.0683 L -2.20345,25.0521 L -2.13615,25.0405 L -2.06824,25.0336 L -2,25.0312 L -1.93175,25.0336
 L -1.86383,25.0405 L -1.79654,25.0521 L -1.73019,25.0683 L -1.66512,25.089 L -1.60159,25.114 L -1.53993,25.1433
 L -1.48041,25.1768 L -1.42331,25.2142 L -1.36891,25.2555 L -1.31744,25.3004 L -1.26915,25.3487 L -1.22427,25.4001
 L -1.18303,25.4545 L -1.14557,25.5116 L -1.11211,25.5712 L -1.08278,25.6328 L -1.05772,25.6963 L -1.03708,25.7614
 L -1.0209,25.8278 L -1.00931,25.8951 L -1.00232,25.963 L -1,26.0312 L -1,31.0312 L -1.00232,31.0995
 L -1.00931,31.1674 L -1.0209,31.2347 L -1.03708,31.301 L -1.05772,31.3661 L -1.08278,31.4296 L -1.11211,31.4913
 L -1.14557,31.5508 L -1.18303,31.6079 L -1.22427,31.6623 L -1.26915,31.7138 L -1.31744,31.7621 L -1.36891,31.8069
 L -1.42331,31.8482 L -1.48041,31.8856 L -1.53993,31.9191 L -1.60159,31.9484 L -1.66512,31.9735 L -1.73019,31.9941
 L -1.79654,32.0103 L -1.86383,32.0219 L -1.93175,32.0289 L -2,32.0312 z
M 1.93175,32.0289 L 1.86383,32.0219 L 1.79654,32.0103 L 1.73019,31.9941 L 1.66512,31.9735 L 1.60159,31.9484
 L 1.53993,31.9191 L 1.48041,31.8856 L 1.42331,31.8482 L 1.36891,31.8069 L 1.31744,31.7621 L 1.26915,31.7138
 L 1.22427,31.6623 L 1.18303,31.6079 L 1.14557,31.5508 L 1.11211,31.4913 L 1.08278,31.4296 L 1.05772,31.3661
 L 1.03708,31.301 L 1.0209,31.2347 L 1.00931,31.1674 L 1.00232,31.0995 L 1,31.0312 L 1,26.0312
 L 1.00232,25.963 L 1.00931,25.8951 L 1.0209,25.8278 L 1.03708,25.7614 L 1.05772,25.6963 L 1.08278,25.6328
 L 1.11211,25.5712 L 1.14557,25.5116 L 1.18303,25.4545 L 1.22427,25.4001 L 1.26915,25.3487 L 1.31744,25.3004
 L 1.36891,25.2555 L 1.42331,25.2142 L 1.48041,25.1768 L 1.53993,25.1433 L 1.60159,25.114 L 1.66512,25.089
 L 1.73019,25.0683 L 1.79654,25.0521 L 1.86383,25.0405 L 1.93175,25.0336 L 2,25.0312 L 2.06824,25.0336
 L 2.13615,25.0405 L 2.20345,25.0521 L 2.26979,25.0683 L 2.33487,25.089 L 2.39839,25.114 L 2.46005,25.1433
 L 2.51958,25.1768 L 2.57668,25.2142 L 2.63107,25.2555 L 2.68254,25.3004 L 2.73083,25.3487 L 2.77571,25.4001
 L 2.81696,25.4545 L 2.85442,25.5116 L 2.88788,25.5712 L 2.91721,25.6328 L 2.94226,25.6963 L 2.96291,25.7614
 L 2.97908,25.8278 L 2.99068,25.8951 L 2.99767,25.963 L 3,26.0312 L 3,31.0312 L 2.99767,31.0995
 L 2.99068,31.1674 L 2.97908,31.2347 L 2.96291,31.301 L 2.94226,31.3661 L 2.91721,31.4296 L 2.88788,31.4913
 L 2.85442,31.5508 L 2.81696,31.6079 L 2.77571,31.6623 L 2.73083,31.7138 L 2.68254,31.7621 L 2.63107,31.8069
 L 2.57668,31.8482 L 2.51958,31.8856 L 2.46005,31.9191 L 2.39839,31.9484 L 2.33487,31.9735 L 2.26979,31.9941
 L 2.20345,32.0103 L 2.13615,32.0219 L 2.06824,32.0289 L 2,32.0312 z
M 27.0417,29.1161 L 26.9055,29.1062 L 26.7702,29.0872 L 26.6367,29.0589 L 26.5053,29.0215 L 26.3768,28.9753
 L 26.2517,28.9204 L 26.1307,28.8571 L 26.0143,28.7857 L 25.903,28.7065 L 25.7974,28.62 L 25.698,28.5264
 L 25.6051,28.4262 L 25.5194,28.32 L 25.441,28.2081 L 25.3705,28.0911 L 25.3082,27.9696 L 25.2542,27.8442
 L 25.209,27.7153 L 25.1726,27.5837 L 25.1453,27.4499 L 25.1273,27.3145 L 25.1185,27.1782 L 25.119,27.0417
 L 25.1288,26.9055 L 25.1479,26.7702 L 25.1762,26.6367 L 25.2136,26.5053 L 25.2598,26.3768 L 25.3147,26.2517
 L 25.3779,26.1307 L 25.4494,26.0143 L 25.5285,25.903 L 25.6151,25.7974 L 25.7087,25.698 L 25.8089,25.6051
 L 25.9151,25.5194 L 26.027,25.441 L 26.144,25.3705 L 26.2654,25.3082 L 26.3909,25.2542 L 26.5198,25.209
 L 26.6514,25.1726 L 26.7852,25.1453 L 26.9206,25.1273 L 27.0568,25.1185 L 27.1934,25.119 L 27.3296,25.1288
 L 27.4648,25.1479 L 27.5984,25.1762 L 27.7298,25.2136 L 27.8583,25.2598 L 27.9833,25.3147 L 28.1044,25.3779
 L 28.2208,25.4494 L 28.332,25.5285 L 28.4376,25.6151 L 28.5371,25.7087 L 28.6299,25.8089 L 28.7157,25.9151
 L 28.7941,26.027 L 28.8646,26.144 L 28.9269,26.2654 L 28.9809,26.3909 L 29.0261,26.5198 L 29.0624,26.6514
 L 29.0897,26.7852 L 29.1078,26.9206 L 29.1166,27.0568 L 29.1161,27.1934 L 29.1062,27.3296 L 29.0872,27.4648
 L 29.0589,27.5984 L 29.0215,27.7298 L 28.9753,27.8583 L 28.9204,27.9833 L 28.8571,28.1044 L 28.7857,28.2208
 L 28.7065,28.332 L 28.62,28.4376 L 28.5264,28.5371 L 28.4262,28.6299 L 28.32,28.7157 L 28.2081,28.7941
 L 28.0911,28.8646 L 27.9696,28.9269 L 27.8442,28.9809 L 27.7153,29.0261 L 27.5837,29.0624 L 27.4499,29.0897
 L 27.3145,29.1078 L 27.1782,29.1166 z
M -27.3145,29.1078 L -27.4499,29.0897 L -27.5837,29.0624 L -27.7153,29.0261 L -27.8442,28.9809 L -27.9696,28.9269
 L -28.0911,28.8646 L -28.2081,28.7941 L -28.32,28.7157 L -28.4262,28.6299 L -28.5264,28.5371 L -28.62,28.4376
 L -28.7065,28.332 L -28.7857,28.2208 L -28.8571,28.1044 L -28.9204,27.9833 L -28.9753,27.8583 L -29.0215,27.7298
 L -29.0589,27.5984 L -29.0872,27.4648 L -29.1062,27.3296 L -29.1161,27.1934 L -29.1166,27.0568 L -29.1078,26.9206
 L -29.0897,26.7852 L -29.0624,26.6514 L -29.0261,26.5198 L -28.9809,26.3909 L -28.9269,26.2654 L -28.8646,26.144
 L -28.7941,26.027 L -28.7157,25.9151 L -28.6299,25.8089 L -28.5371,25.7087 L -28.4376,25.6151 L -28.332,25.5285
 L -28.2208,25.4494 L -28.1044,25.3779 L -27.9833,25.3147 L -27.8583,25.2598 L -27.7298,25.2136 L -27.5984,25.1762
 L -27.4648,25.1479 L -27.3296,25.1288 L -27.1934,25.119 L -27.0568,25.1185 L -26.9206,25.1273 L -26.7852,25.1453
 L -26.6514,25.1726 L -26.5198,25.209 L -26.3909,25.2542 L -26.2654,25.3082 L -26.144,25.3705 L -26.027,25.441
 L -25.9151,25.5194 L -25.8089,25.6051 L -25.7087,25.698 L -25.6151,25.7974 L -25.5285,25.903 L -25.4494,26.0143
 L -25.3779,26.1307 L -25.3147,26.2517 L -25.2598,26.3768 L -25.2136,26.5053 L -25.1762,26.6367 L -25.1479,26.7702
 L -25.1288,26.9055 L -25.119,27.0417 L -25.1185,27.1782 L -25.1273,27.3145 L -25.1453,27.4499 L -25.1726,27.5837
 L -25.209,27.7153 L -25.2542,27.8442 L -25.3082,27.9696 L -25.3705,28.0911 L -25.441,28.2081 L -25.5194,28.32
 L -25.6051,28.4262 L -25.698,28.5264 L -25.7974,28.62 L -25.903,28.7065 L -26.0143,28.7857 L -26.1307,28.8571
 L -26.2517,28.9204 L -26.3768,28.9753 L -26.5053,29.0215 L -26.6367,29.0589 L -26.7702,29.0872 L -26.9055,29.1062
 L -27.0417,29.1161 L -27.1782,29.1166 z
M 30.3382,28.46 L 30.2858,28.4562 L 30.2337,28.4489 L 30.1823,28.438 L 30.1317,28.4236 L 30.0822,28.4058
 L 30.0341,28.3847 L 29.9875,28.3603 L 29.9427,28.3328 L 29.8998,28.3023 L 29.8592,28.269 L 29.8209,28.233
 L 29.7851,28.1944 L 29.7521,28.1535 L 29.7219,28.1104 L 29.6948,28.0654 L 29.6708,28.0186 L 29.65,27.9703
 L 29.6326,27.9207 L 29.6186,27.87 L 29.6081,27.8185 L 29.6011,27.7664 L 29.5977,27.7139 L 29.598,27.6614
 L 29.6017,27.6089 L 29.6091,27.5569 L 29.62,27.5054 L 29.6344,27.4549 L 29.6522,27.4054 L 29.6733,27.3573
 L 29.6976,27.3107 L 29.7251,27.2658 L 29.7556,27.223 L 29.789,27.1823 L 29.825,27.1441 L 29.8636,27.1083
 L 29.9045,27.0753 L 29.9475,27.0451 L 29.9926,27.018 L 30.0393,26.994 L 30.0876,26.9732 L 30.1372,26.9558
 L 30.1879,26.9418 L 30.2394,26.9313 L 30.2916,26.9243 L 30.344,26.9209 L 30.3966,26.9211 L 30.4491,26.9249
 L 30.5011,26.9323 L 30.5525,26.9432 L 30.6031,26.9576 L 30.6526,26.9753 L 30.7007,26.9965 L 30.7473,27.0208
 L 30.7921,27.0483 L 30.835,27.0788 L 30.8756,27.1122 L 30.9139,27.1482 L 30.9497,27.1867 L 30.9827,27.2277
 L 31.0128,27.2707 L 31.04,27.3158 L 31.064,27.3625 L 31.0848,27.4108 L 31.1022,27.4604 L 31.1162,27.5111
 L 31.1267,27.5626 L 31.1337,27.6147 L 31.137,27.6672 L 31.1368,27.7198 L 31.133,27.7722 L 31.1257,27.8243
 L 31.1148,27.8757 L 31.1004,27.9263 L 31.0826,27.9758 L 31.0615,28.0239 L 31.0371,28.0705 L 31.0096,28.1153
 L 30.9792,28.1582 L 30.9458,28.1988 L 30.9098,28.2371 L 30.8712,28.2728 L 30.8303,28.3059 L 30.7873,28.336
 L 30.7422,28.3632 L 30.6954,28.3872 L 30.6472,28.408 L 30.5975,28.4254 L 30.5469,28.4394 L 30.4953,28.4499
 L 30.4432,28.4568 L 30.3908,28.4602 z
M -30.4432,28.4568 L -30.4953,28.4499 L -30.5469,28.4394 L -30.5975,28.4254 L -30.6472,28.408 L -30.6954,28.3872
 L -30.7422,28.3632 L -30.7873,28.336 L -30.8303,28.3059 L -30.8712,28.2728 L -30.9098,28.2371 L -30.9458,28.1988
 L -30.9792,28.1582 L -31.0096,28.1153 L -31.0371,28.0705 L -31.0615,28.0239 L -31.0826,27.9758 L -31.1004,27.9263
 L -31.1148,27.8757 L -31.1257,27.8243 L -31.133,27.7722 L -31.1368,27.7198 L -31.137,27.6672 L -31.1337,27.6147
 L -31.1267,27.5626 L -31.1162,27.5111 L -31.1022,27.4604 L -31.0848,27.4108 L -31.064,27.3625 L -31.04,27.3158
 L -31.0128,27.2707 L -30.9827,27.2277 L -30.9497,27.1867 L -30.9139,27.1482 L -30.8756,27.1122 L -30.835,27.0788
 L -30.7921,27.0483 L -30.7473,27.0208 L -30.7007,26.9965 L -30.6526,26.9753 L -30.6031,26.9576 L -30.5525,26.9432
 L -30.5011,26.9323 L -30.4491,26.9249 L -30.3966,26.9211 L -30.344,26.9209 L -30.2916,26.9243 L -30.2394,26.9313
 L -30.1879,26.9418 L -30.1372,26.9558 L -30.0876,26.9732 L -30.0393,26.994 L -29.9926,27.018 L -29.9475,27.0451
 L -29.9045,27.0753 L -29.8636,27.1083 L -29.825,27.1441 L -29.789,27.1823 L -29.7556,27.223 L -29.7251,27.2658
 L -29.6976,27.3107 L -29.6733,27.3573 L -29.6522,27.4054 L -29.6344,27.4549 L -29.62,27.5054 L -29.6091,27.5569
 L -29.6017,27.6089 L -29.598,27.6614 L -29.5977,27.7139 L -29.6011,27.7664 L -29.6081,27.8185 L -29.6186,27.87
 L -29.6326,27.9207 L -29.65,27.9703 L -29.6708,28.0186 L -29.6948,28.0654 L -29.7219,28.1104 L -29.7521,28.1535
 L -29.7851,28.1944 L -29.8209,28.233 L -29.8592,28.269 L -29.8998,28.3023 L -29.9427,28.3328 L -29.9875,28.3603
 L -30.0341,28.3847 L -30.0822,28.4058 L -30.1317,28.4236 L -30.1823,28.438 L -30.2337,28.4489 L -30.2858,28.4562
 L -30.3382,28.46 L -30.3908,28.4602 z
M 24.9321,30.4128 L 24.8799,30.4066 L 24.8283,30.3969 L 24.7774,30.3837 L 24.7275,30.367 L 24.6789,30.347
 L 24.6318,30.3237 L 24.5863,30.2972 L 24.5428,30.2677 L 24.5014,30.2353 L 24.4623,30.2002 L 24.4257,30.1624
 L 24.3917,30.1223 L 24.3606,30.0799 L 24.3325,30.0355 L 24.3074,29.9893 L 24.2855,29.9415 L 24.267,29.8923
 L 24.2518,29.8419 L 24.2402,29.7907 L 24.232,29.7387 L 24.2274,29.6864 L 24.2264,29.6338 L 24.229,29.5813
 L 24.2352,29.5291 L 24.2449,29.4774 L 24.2581,29.4265 L 24.2748,29.3766 L 24.2948,29.328 L 24.3181,29.2809
 L 24.3446,29.2355 L 24.3741,29.1919 L 24.4065,29.1505 L 24.4417,29.1114 L 24.4794,29.0748 L 24.5195,29.0409
 L 24.5619,29.0097 L 24.6063,28.9816 L 24.6525,28.9565 L 24.7003,28.9346 L 24.7495,28.9161 L 24.7999,28.901
 L 24.8511,28.8893 L 24.9031,28.8811 L 24.9555,28.8766 L 25.008,28.8756 L 25.0605,28.8782 L 25.1127,28.8843
 L 25.1644,28.894 L 25.2153,28.9073 L 25.2652,28.9239 L 25.3138,28.944 L 25.3609,28.9673 L 25.4064,28.9937
 L 25.4499,29.0232 L 25.4913,29.0556 L 25.5304,29.0908 L 25.567,29.1285 L 25.601,29.1687 L 25.6321,29.211
 L 25.6602,29.2554 L 25.6853,29.3017 L 25.7072,29.3495 L 25.7257,29.3987 L 25.7409,29.449 L 25.7525,29.5003
 L 25.7607,29.5522 L 25.7653,29.6046 L 25.7663,29.6572 L 25.7637,29.7097 L 25.7575,29.7619 L 25.7478,29.8136
 L 25.7346,29.8644 L 25.7179,29.9143 L 25.6979,29.9629 L 25.6746,30.0101 L 25.6481,30.0555 L 25.6186,30.099
 L 25.5862,30.1404 L 25.551,30.1795 L 25.5133,30.2161 L 25.4732,30.2501 L 25.4308,30.2812 L 25.3864,30.3094
 L 25.3402,30.3344 L 25.2924,30.3563 L 25.2432,30.3748 L 25.1928,30.39 L 25.1415,30.4017 L 25.0896,30.4098
 L 25.0372,30.4144 L 24.9847,30.4154 z
M -25.0372,30.4144 L -25.0896,30.4098 L -25.1415,30.4017 L -25.1928,30.39 L -25.2432,30.3748 L -25.2924,30.3563
 L -25.3402,30.3344 L -25.3864,30.3094 L -25.4308,30.2812 L -25.4732,30.2501 L -25.5133,30.2161 L -25.551,30.1795
 L -25.5862,30.1404 L -25.6186,30.099 L -25.6481,30.0555 L -25.6746,30.0101 L -25.6979,29.9629 L -25.7179,29.9143
 L -25.7346,29.8644 L -25.7478,29.8136 L -25.7575,29.7619 L -25.7637,29.7097 L -25.7663,29.6572 L -25.7653,29.6046
 L -25.7607,29.5522 L -25.7525,29.5003 L -25.7409,29.449 L -25.7257,29.3987 L -25.7072,29.3495 L -25.6853,29.3017
 L -25.6602,29.2554 L -25.6321,29.211 L -25.601,29.1687 L -25.567,29.1285 L -25.5304,29.0908 L -25.4913,29.0556
 L -25.4499,29.0232 L -25.4064,28.9937 L -25.3609,28.9673 L -25.3138,28.944 L -25.2652,28.9239 L -25.2153,28.9073
 L -25.1644,28.894 L -25.1127,28.8843 L -25.0605,28.8782 L -25.008,28.8756 L -24.9555,28.8766 L -24.9031,28.8811
 L -24.8511,28.8893 L -24.7999,28.901 L -24.7495,28.9161 L -24.7003,28.9346 L -24.6525,28.9565 L -24.6063,28.9816
 L -24.5619,29.0097 L -24.5195,29.0409 L -24.4794,29.0748 L -24.4417,29.1114 L -24.4065,29.1505 L -24.3741,29.1919
 L -24.3446,29.2355 L -24.3181,29.2809 L -24.2948,29.328 L -24.2748,29.3766 L -24.2581,29.4265 L -24.2449,29.4774
 L -24.2352,29.5291 L -24.229,29.5813 L -24.2264,29.6338 L -24.2274,29.6864 L -24.232,29.7387 L -24.2402,29.7907
 L -24.2518,29.8419 L -24.267,29.8923 L -24.2855,29.9415 L -24.3074,29.9893 L -24.3325,30.0355 L -24.3606,30.0799
 L -24.3917,30.1223 L -24.4257,30.1624 L -24.4623,30.2002 L -24.5014,30.2353 L -24.5428,30.2677 L -24.5863,30.2972
 L -24.6318,30.3237 L -24.6789,30.347 L -24.7275,30.367 L -24.7774,30.3837 L -24.8283,30.3969 L -24.8799,30.4066
 L -24.9321,30.4128 L -24.9847,30.4154 z
" stroke="black" fill="lightgray" stroke-width="0.5"/>
</svg>
