<?xml version="1.0" encoding="UTF-8" standalone="no"?>
<svg
   width="2048"
   height="1152"
   viewBox="-410 -77 541.86668 304.80001"
   version="1.1"
   id="svg1"
   sodipodi:docname="schome1fpv-logo-youtube.svg"
   inkscape:export-filename="schome1fpv-logo-yellow.png"
   inkscape:export-xdpi="96"
   inkscape:export-ydpi="96"
   inkscape:version="1.3.2 (091e20e, 2023-11-25)"
   xmlns:inkscape="http://www.inkscape.org/namespaces/inkscape"
   xmlns:sodipodi="http://sodipodi.sourceforge.net/DTD/sodipodi-0.dtd"
   xmlns="http://www.w3.org/2000/svg"
   xmlns:svg="http://www.w3.org/2000/svg"
   xmlns:rdf="http://www.w3.org/1999/02/22-rdf-syntax-ns#"
   xmlns:cc="http://creativecommons.org/ns#"
   xmlns:dc="http://purl.org/dc/elements/1.1/">
  <defs
     id="defs1" />
  <sodipodi:namedview
     id="namedview1"
     pagecolor="#333333"
     bordercolor="#000000"
     borderopacity="0.25"
     inkscape:showpageshadow="2"
     inkscape:pageopacity="0.0"
     inkscape:pagecheckerboard="true"
     inkscape:deskcolor="#d1d1d1"
     inkscape:document-units="mm"
     showborder="true"
     inkscape:clip-to-page="false"
     inkscape:export-bgcolor="#000066ff"
     inkscape:zoom="0.52587891"
     inkscape:cx="1024"
     inkscape:cy="575.22748"
     inkscape:window-width="1648"
     inkscape:window-height="1192"
     inkscape:window-x="1802"
     inkscape:window-y="25"
     inkscape:window-maximized="0"
     inkscape:current-layer="svg1" />
  <title
     id="title1">OpenSCAD Model</title>
  <path
     d="m -113.73649,113.8498 1.07472,-0.14772 1.06221,-0.22073 1.0446,-0.29269 1.02223,-0.36329 0.99506,-0.43225 0.96324,-0.4991 0.92689,-0.56366 0.88632,-0.6256 0.84154,-0.68466 0.79284,-0.74046 0.7405,-0.79289 0.68461,-0.84153 0.6256,-0.88628 0.56371,-0.92695 0.49911,-0.96323 0.43219,-0.99505 0.3633,-1.02218 0.292676,-1.04465 0.22074,-1.06216 0.14772,-1.074778 0.074,-1.082325 v -1.084891 l -0.074,-1.082318 -0.14772,-1.07472 -0.22074,-1.062218 -0.292676,-1.044598 -0.3633,-1.022228 -0.43219,-0.99506 -0.49911,-0.963226 -0.56371,-0.926902 -0.6256,-0.88632 -0.10263,-0.126152 3.514186,-3.514202 0.05,-0.04664 0.053,-0.04313 0.0558,-0.03939 0.0584,-0.03554 0.0607,-0.03142 0.0628,-0.02722 0.0643,-0.02291 0.0658,-0.01841 0.0669,-0.0139 0.0677,-0.0093 0.0682,-0.0046 h 0.0683 l 0.0682,0.0046 0.0677,0.0093 0.0669,0.0139 0.0658,0.01841 0.0644,0.02291 0.0627,0.02722 0.0607,0.03142 0.0584,0.03554 0.0558,0.03939 0.0531,0.04313 0.0499,0.04664 0.0466,0.04994 0.0431,0.05305 0.0394,0.05579 0.0356,0.0584 0.0315,0.0607 0.0272,0.06266 0.0229,0.0644 0.0184,0.0658 0.0139,0.0669 0.009,0.0677 0.004,0.04884 0.21585,4.033724 0.002,0.02452 0.005,0.04884 0.005,0.03387 0.008,0.04383 0.007,0.03343 0.0105,0.04304 0.009,0.03308 0.0134,0.04228 0.0114,0.03207 0.0163,0.04132 0.0137,0.03147 0.019,0.0399 0.0158,0.03052 0.0217,0.03861 0.0177,0.02918 0.0243,0.03715 0.0197,0.02794 0.0268,0.03527 0.0216,0.02655 0.0291,0.03345 0.0234,0.02502 0.0314,0.03135 0.025,0.02343 0.0335,0.02918 0.0265,0.02151 0.0353,0.02684 0.0279,0.01975 0.037,0.02432 0.0292,0.01781 0.0387,0.02174 0.0304,0.01576 0.0401,0.01898 0.0314,0.01359 0.0412,0.01629 0.0324,0.01149 0.0421,0.01336 0.0331,0.0093 0.043,0.01042 0.0333,0.007 0.0438,0.0076 0.034,0.0046 0.044,0.0046 0.0341,0.0023 0.0526,0.0017 0.026,4.45e-4 0.0683,0.0035 0.0679,0.0081 0.0671,0.01277 0.0661,0.01735 0.0648,0.0218 0.0631,0.02619 0.0612,0.03035 0.059,0.03452 0.0565,0.03843 0.0538,0.04225 0.0507,0.04576 0.0475,0.04916 0.0441,0.05233 0.0403,0.05513 0.0365,0.05777 0.0325,0.06015 0.0283,0.0622 0.024,0.064 0.0195,0.06551 0.0151,0.06665 0.0104,0.06755 0.006,0.06806 0.001,0.05118 v 2.384234 l -0.003,0.06833 -0.007,0.06795 -0.0116,0.06735 -0.0162,0.06638 -0.0207,0.0651 -0.025,0.06352 -0.0293,0.06172 -0.0334,0.05962 -0.0375,0.05715 -0.0413,0.05437 -0.0449,0.05145 -0.0484,0.04838 -0.0358,0.03345 -0.0234,0.02512 -0.0215,0.0264 -0.0196,0.0279 -0.0178,0.02925 -0.0156,0.03008 -0.0136,0.03142 -0.0115,0.0324 -0.009,0.0327 -0.007,0.03375 -0.005,0.0336 -0.003,0.03405 v 0.03405 l 0.003,0.03428 0.005,0.03368 0.007,0.03352 0.009,0.0327 0.0115,0.0324 0.0136,0.03142 0.0157,0.03023 0.0178,0.02917 0.0197,0.0279 0.0215,0.02655 0.0233,0.0249 0.025,0.02347 0.0265,0.02145 0.0278,0.01965 0.0293,0.01778 0.0301,0.0156 0.0314,0.01358 0.0324,0.01147 0.0326,0.0092 0.0337,0.0067 0.0336,0.0045 0.0343,0.003 0.008,2.47e-4 0.0176,3e-4 h 4.98657 l 0.0175,-3e-4 0.008,-2.47e-4 0.0344,-0.003 0.0336,-0.0045 0.0335,-0.0067 0.0327,-0.0092 0.0324,-0.01147 0.0314,-0.01358 0.0301,-0.0156 0.0292,-0.0177 0.028,-0.01973 0.0263,-0.0213 0.0251,-0.02348 0.0233,-0.0249 0.0215,-0.02647 0.0197,-0.02783 0.0178,-0.02925 0.0156,-0.03008 0.0136,-0.03142 0.0115,-0.0324 0.009,-0.0327 0.007,-0.03375 0.005,-0.0336 0.002,-0.03405 v -0.03405 l -0.002,-0.0342 -0.005,-0.03368 -0.007,-0.03353 -0.009,-0.0327 -0.0115,-0.0324 -0.0136,-0.03143 -0.0156,-0.03022 -0.0178,-0.02918 -0.0197,-0.0279 -0.0214,-0.02625 -0.0234,-0.02513 -0.0358,-0.03345 -0.0483,-0.0483 -0.0449,-0.05145 -0.0413,-0.05437 -0.0375,-0.05715 -0.0335,-0.05962 -0.0293,-0.06172 -0.025,-0.0636 -0.0207,-0.0651 -0.0162,-0.06637 -0.0116,-0.06735 -0.007,-0.06795 -0.002,-0.0684 v -2.383951 l 0.002,-0.06831 0.007,-0.06796 0.0116,-0.06736 0.0162,-0.0664 0.0207,-0.06511 0.025,-0.06359 0.0293,-0.06171 0.0335,-0.05955 0.0375,-0.05713 0.0413,-0.05449 0.0449,-0.05151 0.0483,-0.04828 0.0515,-0.04494 0.0545,-0.04132 0.0571,-0.0375 0.0596,-0.03345 0.0617,-0.02936 0.0636,-0.02508 0.0651,-0.02068 0.0664,-0.01623 0.0673,-0.01155 0.068,-0.007 0.0511,-0.0023 0.026,-4.51e-4 0.0526,-0.0017 0.0341,-0.0023 0.044,-0.0046 0.034,-0.0046 0.0438,-0.0076 0.0333,-0.007 0.0431,-0.01042 0.0331,-0.0093 0.0421,-0.01336 0.0324,-0.01149 0.0412,-0.01629 0.0313,-0.0136 0.0401,-0.01898 0.0304,-0.01576 0.0386,-0.02174 0.0293,-0.01781 0.0371,-0.02432 0.028,-0.01969 0.0354,-0.02684 0.0264,-0.0215 0.0334,-0.02918 0.0251,-0.02343 0.0313,-0.03136 0.0234,-0.02502 0.0291,-0.03339 0.0216,-0.02655 0.0268,-0.03527 0.0197,-0.02794 0.0244,-0.03715 0.0177,-0.02918 0.0217,-0.03861 0.0158,-0.03053 0.019,-0.0399 0.0137,-0.03147 0.0163,-0.04132 0.0114,-0.03207 0.0134,-0.04228 0.009,-0.03308 0.0105,-0.04304 0.007,-0.03343 0.008,-0.04383 0.005,-0.03387 0.005,-0.04884 0.002,-0.02452 0.21585,-4.033723 0.006,-0.06806 0.0106,-0.06751 0.0152,-0.06665 0.0197,-0.06541 0.0241,-0.06395 0.0284,-0.06215 0.0326,-0.06005 0.0366,-0.05769 0.0405,-0.05505 0.0441,-0.05219 0.0476,-0.04904 0.0508,-0.04563 0.0538,-0.04209 0.0565,-0.03833 0.0591,-0.03437 0.0613,-0.03027 0.0632,-0.02602 0.0648,-0.02161 0.0662,-0.01716 0.0672,-0.01261 0.0679,-0.008 0.0683,-0.0033 0.0683,0.0014 0.0681,0.0059 0.0676,0.01061 0.0666,0.01521 0.0654,0.01971 0.0639,0.02411 0.0622,0.02842 0.0601,0.03263 0.0577,0.03664 0.0551,0.04042 0.0521,0.04419 0.0355,0.03378 3.5142,3.514202 -0.10263,0.126152 -0.62561,0.88632 -0.5637,0.9269 -0.49911,0.963239 -0.4322,0.99506 -0.36329,1.022228 -0.29269,1.044601 -0.22073,1.062211 -0.14772,1.074713 -0.0741,1.082325 v 1.084883 l 0.0741,1.082325 0.14772,1.074771 0.22073,1.06217 0.29269,1.04465 0.36329,1.02218 0.4322,0.99505 0.49911,0.96323 0.5637,0.92696 0.62561,0.88627 0.68461,0.84153 0.7405,0.79289 0.79284,0.74045 0.84153,0.68466 0.88632,0.62561 0.92691,0.56365 0.96323,0.49911 0.99506,0.43224 1.02222,0.3633 1.0446,0.29268 1.06221,0.22074 1.07473,0.14772 1.08232,0.074 h 1.08488 l 1.08233,-0.074 1.07478,-0.14772 1.06216,-0.22074 1.04465,-0.29268 1.02217,-0.3633 0.99506,-0.43224 0.96323,-0.49911 0.92696,-0.56365 0.88627,-0.62561 0.84153,-0.68466 0.79289,-0.74045 0.74045,-0.79289 0.68466,-0.84153 0.62561,-0.88627 0.56365,-0.92696 0.49911,-0.96323 0.43225,-0.99505 0.36329,-1.02218 0.29269,-1.04465 0.22073,-1.06217 0.14772,-1.074771 0.074,-1.082325 v -1.084868 l -0.0739,-1.082603 -0.14772,-1.074713 -0.22073,-1.062218 -0.29269,-1.044598 -0.36329,-1.022235 -0.43225,-0.995056 -0.49911,-0.963228 -0.56366,-0.926903 -0.6256,-0.88632 -0.68466,-0.841532 -0.74045,-0.792844 -0.79289,-0.740501 -0.84154,-0.684606 -0.88627,-0.625608 -0.92695,-0.563706 -0.96323,-0.499106 -0.99506,-0.432201 -1.02218,-0.363293 -1.04464,-0.292689 -1.06217,-0.220729 -1.07477,-0.147719 -1.08233,-0.07406 h -1.08488 l -1.08233,0.07406 -1.07472,0.147719 -1.06221,0.220729 -1.0446,0.292689 -1.02223,0.363293 -0.99505,0.432201 -0.96324,0.499106 -0.9269,0.563706 -0.88632,0.625608 -0.12615,0.102634 -3.70416,-3.704206 -0.0466,-0.04994 -0.0431,-0.05299 -0.0394,-0.05585 -0.0355,-0.0584 -0.0315,-0.06064 -0.0272,-0.0627 -0.0229,-0.0644 -0.0184,-0.0658 -0.0139,-0.0669 -0.009,-0.0677 -0.005,-0.06815 v -0.06836 l 0.005,-0.06815 0.009,-0.0677 0.0139,-0.06691 0.0184,-0.0658 0.0229,-0.0644 0.0272,-0.06266 0.0315,-0.0607 0.0539,-0.08547 2.36652,-3.362974 0.009,-0.01351 0.0985,-0.150221 0.0178,-0.02926 0.0837,-0.148871 0.0157,-0.03026 0.0735,-0.15447 0.0135,-0.03111 0.0627,-0.159085 0.0114,-0.03211 0.0516,-0.162737 0.009,-0.03313 0.0404,-0.165886 0.007,-0.03339 0.029,-0.168347 0.005,-0.03385 0.0175,-0.170099 0.002,-0.0338 0.006,-0.170985 v -0.03396 l -0.006,-0.170984 -0.002,-0.0338 -0.0175,-0.170097 -0.005,-0.03385 -0.029,-0.168347 -0.007,-0.03339 -0.0404,-0.165885 -0.009,-0.03313 -0.0516,-0.162738 -0.0114,-0.03211 -0.0627,-0.159083 -0.0135,-0.03111 -0.0735,-0.15447 -0.0157,-0.03026 -0.0837,-0.148871 -0.0178,-0.02926 -0.0985,-0.150222 -0.009,-0.01351 -2.36652,-3.362974 -0.0374,-0.0572 -0.0334,-0.05965 -0.0293,-0.06175 -0.025,-0.0636 -0.0206,-0.06515 -0.0161,-0.06645 -0.0115,-0.06736 -0.007,-0.06796 -0.002,-0.0683 0.002,-0.0683 0.007,-0.06796 0.0117,-0.06736 0.0163,-0.06635 0.0208,-0.0651 0.0252,-0.06356 0.0295,-0.06165 0.0336,-0.05956 0.0375,-0.05705 0.0414,-0.05445 0.0678,-0.07491 3.70416,-3.704205 0.12615,0.102633 0.88632,0.625609 0.9269,0.563706 0.96323,0.499105 0.99506,0.432201 1.02223,0.363295 1.0446,0.292687 1.06221,0.220729 1.07472,0.14772 1.08233,0.07406 h 1.08488 l 1.08233,-0.07406 1.07477,-0.14772 1.06216,-0.220729 1.04465,-0.292687 1.02218,-0.363295 0.99506,-0.432201 0.96323,-0.499105 0.92695,-0.563706 0.88627,-0.625609 0.84153,-0.684605 0.7929,-0.740501 0.74045,-0.792843 0.68465,-0.841533 0.62561,-0.886316 0.56366,-0.926902 0.4991,-0.963232 0.43226,-0.995058 0.36329,-1.022229 0.29269,-1.044598 0.22073,-1.062212 0.14772,-1.074721 0.074,-1.08233 v -1.08488 l -0.074,-1.082328 -0.14772,-1.074772 -0.22073,-1.062162 -0.29269,-1.044648 -0.36329,-1.02218 -0.43226,-0.995057 -0.4991,-0.963231 -0.56366,-0.926952 -0.62561,-0.88627 -0.68465,-0.841533 -0.74045,-0.792894 -0.7929,-0.74045 -0.84153,-0.684656 -0.88627,-0.625608 -0.92695,-0.563657 -0.96323,-0.499104 -0.99506,-0.432252 -1.02218,-0.363294 -1.04465,-0.292688 -1.06216,-0.220728 -1.07477,-0.14772 -1.08233,-0.07401 h -1.08488 l -1.08233,0.07401 -1.07472,0.14772 -1.06221,0.220728 -1.0446,0.292688 -1.02223,0.363294 -0.99506,0.432252 -0.96323,0.499104 -0.9269,0.563657 -0.88632,0.625608 -0.84153,0.684656 -0.79285,0.74045 -0.7405,0.792894 -0.6846,0.841533 -0.62561,0.88627 -0.56371,0.926952 -0.4991,0.963231 -0.4322,0.995057 -0.3633,1.02218 -0.29268,1.044648 -0.22073,1.062162 -0.14772,1.074772 -0.0741,1.082328 v 1.08488 l 0.0741,1.08233 0.14772,1.074721 0.22073,1.062212 0.29268,1.044598 0.3633,1.022229 0.4322,0.995058 0.4991,0.963232 0.56371,0.926902 0.62561,0.886319 0.10263,0.126152 -2.37067,2.370673 -0.0499,0.04664 -0.053,0.04313 -0.0558,0.03938 -0.0584,0.03554 -0.0607,0.03142 -0.0627,0.02722 -0.0643,0.02292 -0.0658,0.01841 -0.0669,0.01391 -0.0677,0.0093 -0.0682,0.0046 h -0.0683 l -0.0682,-0.0046 -0.0677,-0.0093 -0.0669,-0.01391 -0.0658,-0.01841 -0.0644,-0.02292 -0.0627,-0.02722 -0.0607,-0.03142 -0.0584,-0.03554 -0.0558,-0.03938 -0.0531,-0.04313 -0.0499,-0.04664 -0.0466,-0.04994 -0.0431,-0.05305 -0.0394,-0.05579 -0.0355,-0.05839 -0.0314,-0.0607 -0.0272,-0.06265 -0.0229,-0.0644 -0.0184,-0.0658 -0.0139,-0.06691 -0.009,-0.0677 -0.005,-0.06815 9e-4,-0.08767 0.11445,-2.138435 0.004,-0.04884 0.01,-0.09263 0.002,-0.03398 0.0132,-0.386063 v -0.03398 l -0.0132,-0.386063 -0.002,-0.03387 -0.0395,-0.384263 -0.005,-0.03368 -0.0656,-0.380558 -0.007,-0.03337 -0.0914,-0.375155 -0.009,-0.03287 -0.1169,-0.3682 -0.0113,-0.03188 -0.14171,-0.359392 -0.0136,-0.03133 -0.16578,-0.348583 -0.0158,-0.03037 -0.18925,-0.336573 -0.0177,-0.02907 -0.21188,-0.323013 -0.0195,-0.02767 -0.23349,-0.307899 -0.0214,-0.02627 -0.25385,-0.291138 -0.0233,-0.02497 -0.27302,-0.273021 -0.0249,-0.02327 -0.29105,-0.253807 -0.0265,-0.02151 -0.30756,-0.23324 -0.0281,-0.01982 -0.32273,-0.211671 -0.0294,-0.01781 -0.33635,-0.189155 -0.0305,-0.01576 -0.34849,-0.165734 -0.0315,-0.01371 -0.3593,-0.141666 -0.0318,-0.01131 -0.36822,-0.116894 -0.0329,-0.0092 -0.37509,-0.09142 -0.0334,-0.0069 -0.38066,-0.06565 -0.0336,-0.0046 -0.38421,-0.03948 -0.034,-0.0023 -0.38604,-0.01321 h -0.0339 l -0.38604,0.01321 -0.034,0.0023 -0.38421,0.03948 -0.0336,0.0046 -0.38067,0.06565 -0.0334,0.0069 -0.37508,0.09142 -0.0328,0.0092 -0.36822,0.116894 -0.0319,0.01131 -0.35929,0.141666 -0.0315,0.01371 -0.34849,0.165734 -0.0305,0.01576 -0.33635,0.189155 -0.0293,0.01781 -0.32274,0.211671 -0.0281,0.01982 -0.30756,0.23324 -0.0265,0.02151 -0.29105,0.253807 -0.0249,0.02327 -0.27302,0.273021 -0.0232,0.02497 -0.25385,0.291138 -0.0213,0.02627 -0.2335,0.307899 -0.0196,0.02767 -0.21187,0.323013 -0.0177,0.02907 -0.18926,0.336573 -0.0157,0.03037 -0.16578,0.348583 -0.0136,0.03133 -0.14171,0.359392 -0.0113,0.03188 -0.11689,0.3682 -0.009,0.03287 -0.0914,0.375155 -0.007,0.03337 -0.0656,0.380558 -0.005,0.03368 -0.0394,0.384263 -0.003,0.03387 -0.0131,0.386063 v 0.03398 l 0.0131,0.386063 0.003,0.03398 0.01,0.09263 0.004,0.04884 0.11444,2.138435 10e-4,0.0683 -0.003,0.06826 -0.008,0.06791 -0.0126,0.06715 -0.0171,0.06615 -0.0217,0.0648 -0.0259,0.0632 -0.0303,0.06124 -0.0344,0.0591 -0.0383,0.0566 -0.0421,0.0538 -0.0457,0.05084 -0.049,0.0476 -0.0521,0.04419 -0.0551,0.04043 -0.0577,0.03663 -0.0601,0.03263 -0.0621,0.02842 -0.0639,0.02412 -0.0655,0.01971 -0.0666,0.01522 -0.0675,0.0106 -0.0681,0.0059 -0.0683,0.0014 -0.0683,-0.0033 -0.0679,-0.008 -0.0672,-0.01261 -0.0661,-0.01716 -0.0649,-0.02162 -0.0632,-0.02602 -0.0613,-0.03027 -0.0591,-0.03437 -0.0566,-0.03833 -0.0538,-0.04208 -0.0647,-0.0592 -2.37066,-2.370673 0.10263,-0.126152 0.6256,-0.886318 0.56371,-0.926904 0.49911,-0.963231 0.43219,-0.995058 0.3633,-1.022229 0.292672,-1.044599 0.22074,-1.062212 0.14772,-1.074721 0.074,-1.082328 v -1.084881 l -0.074,-1.082328 -0.14772,-1.074773 -0.22074,-1.06216 -0.292672,-1.044648 -0.3633,-1.022181 -0.43219,-0.995058 -0.49911,-0.96323 -0.56371,-0.926953 -0.6256,-0.886269 -0.68461,-0.841533 -0.7405,-0.792894 -0.79284,-0.74045 -0.84154,-0.684656 -0.88632,-0.625607 -0.92689,-0.563659 -0.96324,-0.499104 -0.99506,-0.43225 -1.02223,-0.363296 -1.0446,-0.292688 -1.06221,-0.220728 -1.07472,-0.14772 -1.08232,-0.07401 h -1.08489 l -1.08233,0.07401 -1.07477,0.14772 -1.06216,0.220728 -1.04464,0.292688 -1.02218,0.363296 -0.99506,0.43225 -0.96324,0.499104 -0.92694,0.563659 -0.88628,0.625607 -0.84154,0.684656 -0.79289,0.74045 -0.74044,0.792894 -0.68465,0.841533 -0.62562,0.886269 -0.56365,0.926953 -0.49911,0.96323 -0.43225,0.995058 -0.3633,1.022181 -0.29268,1.044648 -0.22073,1.06216 -0.14772,1.074773 -0.074,1.082328 v 1.084881 l 0.074,1.082328 0.14772,1.074721 0.22073,1.062212 0.29268,1.044599 0.3633,1.022229 0.43225,0.995058 0.49911,0.963231 0.56365,0.926904 0.62562,0.886318 0.68465,0.841533 0.74044,0.792844 0.79289,0.7405 0.84154,0.684606 0.88628,0.625607 0.92694,0.563708 0.96324,0.499105 0.99506,0.4322 1.02218,0.363296 1.04464,0.292688 1.06216,0.220728 1.07477,0.14772 1.08233,0.07406 h 1.08489 l 1.08232,-0.07406 1.07472,-0.14772 1.06221,-0.220728 1.0446,-0.292688 1.02223,-0.363296 0.99506,-0.4322 0.96324,-0.499105 0.92689,-0.563708 0.88632,-0.625607 0.12616,-0.102633 3.70415,3.704205 0.0466,0.04994 0.0431,0.053 0.0394,0.05584 0.0355,0.0584 0.0315,0.06065 0.0272,0.0627 0.0229,0.0644 0.0184,0.06581 0.014,0.06691 0.009,0.0677 0.004,0.06815 v 0.06836 l -0.004,0.06815 -0.009,0.0677 -0.014,0.0669 -0.0184,0.06581 -0.0229,0.0644 -0.0272,0.06265 -0.0315,0.0607 -0.0539,0.08547 -2.36652,3.362973 -0.009,0.01351 -0.0985,0.150222 -0.0178,0.02927 -0.0837,0.148871 -0.0157,0.03025 -0.0734,0.154471 -0.0135,0.03111 -0.0628,0.159083 -0.0114,0.03211 -0.0517,0.162738 -0.009,0.03313 -0.0404,0.165885 -0.007,0.03339 -0.029,0.168346 -0.005,0.03385 -0.0175,0.170097 -0.002,0.0338 -0.006,0.170983 v 0.03396 l 0.006,0.170984 0.002,0.0338 0.0175,0.170099 0.005,0.03385 0.029,0.168348 0.007,0.03339 0.0404,0.165886 0.009,0.03312 0.0517,0.162736 0.0114,0.03211 0.0628,0.159084 0.0135,0.03112 0.0734,0.154469 0.0157,0.03026 0.0837,0.148871 0.0178,0.02927 0.0985,0.150222 0.009,0.01351 2.36652,3.362974 0.0374,0.0572 0.0334,0.05965 0.0292,0.06175 0.025,0.0636 0.0206,0.06515 0.0161,0.06645 0.0115,0.06736 0.007,0.06796 0.002,0.0683 -0.003,0.0683 -0.007,0.06796 -0.0117,0.06736 -0.0163,0.06635 -0.0208,0.0651 -0.0251,0.06356 -0.0295,0.06166 -0.0336,0.05955 -0.0375,0.05705 -0.0414,0.05445 -0.0677,0.07491 -3.70416,3.704206 -0.12615,-0.102633 -0.88632,-0.625609 -0.92691,-0.563706 -0.96322,-0.499105 -0.99506,-0.432202 -1.02223,-0.363294 -1.0446,-0.292689 -1.06221,-0.220729 -1.07472,-0.147719 -1.08233,-0.07406 h -1.08488 l -1.08233,0.07406 -1.07478,0.147719 -1.06215,0.220729 -1.04465,0.292689 -1.02217,0.363294 -0.99507,0.432202 -0.96323,0.499105 -0.92695,0.563706 -0.88627,0.625609 -0.84154,0.684605 -0.79289,0.7405 -0.74045,0.792844 -0.68464,0.841533 -0.62562,0.88632 -0.56365,0.926901 -0.49911,0.963235 -0.43225,0.995049 -0.3633,1.022235 -0.29268,1.044594 -0.22073,1.062225 -0.14772,1.074713 -0.074,1.082318 v 1.08489 l 0.074,1.082326 0.14772,1.074772 0.22073,1.06217 0.29268,1.04464 0.3633,1.02218 0.43225,0.99505 0.49911,0.96324 0.56365,0.92694 0.62562,0.88628 0.68464,0.84153 0.74045,0.7929 0.79289,0.74044 0.84154,0.68466 0.88627,0.62562 0.92695,0.56365 0.96323,0.4991 0.99507,0.43225 1.02217,0.36329 1.04465,0.29268 1.06215,0.22073 1.07478,0.14773 1.08233,0.074 h 1.08488 z m 43.192696,-47.218015 -0.94597,-0.0647 -0.93936,-0.129105 -0.92835,-0.192956 -0.91304,-0.255808 -0.89343,-0.317508 -0.86965,-0.377756 -0.84189,-0.436254 -0.81015,-0.49265 -0.68281,-0.48194 6.897,-6.897047 0.0499,-0.04664 0.053,-0.04313 0.0558,-0.03939 0.0584,-0.03554 0.0607,-0.03142 0.0627,-0.02722 0.0644,-0.02287 0.0658,-0.01846 0.0669,-0.01391 0.0677,-0.0093 0.0682,-0.0046 h 0.0684 l 0.0682,0.0046 0.0677,0.0093 0.0669,0.01391 0.0791,0.01927 0.0335,0.007 0.0858,0.01481 0.0338,0.0046 0.0866,0.0089 0.0344,0.0023 0.0868,0.0029 h 0.0344 l 0.0868,-0.0029 0.0344,-0.0023 0.0865,-0.0089 0.0338,-0.0046 0.0859,-0.01481 0.0333,-0.0069 0.0848,-0.02067 0.0329,-0.0092 0.0832,-0.02642 0.032,-0.01131 0.0813,-0.03207 0.0311,-0.01351 0.0789,-0.03748 0.0301,-0.01562 0.0761,-0.04283 0.0291,-0.01767 0.0728,-0.04773 0.0281,-0.01986 0.0692,-0.05244 0.0268,-0.02177 0.0654,-0.0571 0.0251,-0.02342 2.31343,-2.313427 0.0233,-0.02498 0.0572,-0.0656 0.0216,-0.02652 0.0525,-0.06925 0.0199,-0.02817 0.0477,-0.07276 0.0177,-0.02913 0.0428,-0.07606 0.0156,-0.03017 0.0374,-0.07871 0.0136,-0.03133 0.032,-0.08106 0.0115,-0.03228 0.0263,-0.08287 0.009,-0.03308 0.0206,-0.08457 0.007,-0.03347 0.0148,-0.08582 0.005,-0.03378 0.009,-0.08672 0.002,-0.03403 0.003,-0.08722 v -0.03398 l -0.003,-0.08722 -0.002,-0.03403 -0.009,-0.08667 -0.005,-0.03378 -0.0148,-0.08592 -0.007,-0.03327 -0.0206,-0.08472 -0.009,-0.03308 -0.0264,-0.08297 -0.0114,-0.03202 -0.0321,-0.08132 -0.0135,-0.03108 -0.0375,-0.07886 -0.0156,-0.03013 -0.0428,-0.07611 -0.0177,-0.02907 -0.0477,-0.07281 -0.0199,-0.02812 -0.0525,-0.06925 -0.0216,-0.02657 -0.0572,-0.0656 -0.0233,-0.02498 -2.31348,-2.313477 -0.025,-0.02332 -0.0656,-0.0572 -0.0266,-0.02162 -0.0692,-0.05249 -0.0281,-0.01986 -0.0728,-0.04774 -0.0291,-0.01772 -0.0761,-0.04279 -0.0301,-0.01562 -0.0789,-0.03753 -0.0311,-0.01346 -0.0813,-0.03207 -0.032,-0.01137 -0.083,-0.02637 -0.0331,-0.0093 -0.0847,-0.02062 -0.0333,-0.007 -0.0859,-0.01481 -0.0338,-0.0046 -0.0867,-0.0089 -0.034,-0.0023 -0.0872,-0.0029 h -0.034 l -0.0872,0.0029 -0.034,0.0023 -0.0867,0.0089 -0.0338,0.0046 -0.0858,0.01481 -0.0335,0.007 -0.0846,0.02062 -0.0331,0.0093 -0.0829,0.02632 -0.0323,0.01146 -0.0811,0.03197 -0.0313,0.01361 -0.0787,0.03742 -0.0302,0.01562 -0.0761,0.04279 -0.0291,0.01772 -0.0727,0.04773 -0.0282,0.01986 -0.0693,0.05249 -0.0265,0.02162 -0.0656,0.0572 -0.025,0.02332 -2.31342,2.313428 -0.0234,0.02507 -0.0571,0.06545 -0.0218,0.02678 -0.0524,0.06916 -0.0199,0.02812 -0.0477,0.07281 -0.0177,0.02907 -0.0428,0.07611 -0.0156,0.03013 -0.0375,0.07886 -0.0135,0.03108 -0.0321,0.08132 -0.0113,0.03197 -0.0264,0.08317 -0.009,0.03287 -0.0207,0.08477 -0.007,0.03328 -0.0148,0.08592 -0.005,0.03378 -0.009,0.08652 -0.002,0.03442 -0.003,0.08677 v 0.03438 l 0.003,0.08677 0.002,0.03442 0.009,0.08657 0.005,0.03378 0.0148,0.08582 0.007,0.03347 0.0193,0.07906 0.0139,0.0669 0.009,0.0677 0.005,0.06815 v 0.06835 l -0.005,0.06816 -0.009,0.0677 -0.0139,0.0669 -0.0184,0.0658 -0.0229,0.0644 -0.0272,0.0627 -0.0314,0.06065 -0.0355,0.0584 -0.0394,0.05585 -0.0431,0.05299 -0.0466,0.05 -6.89705,6.896997 -0.48194,-0.682805 -0.49265,-0.810157 -0.43625,-0.841883 -0.37776,-0.869657 -0.31751,-0.893424 -0.25581,-0.91304 -0.19295,-0.928354 -0.12911,-0.939362 -0.0647,-0.945968 v -0.948169 l 0.0647,-0.946017 0.12911,-0.939312 0.19295,-0.928354 0.25581,-0.913041 0.31751,-0.893425 0.37776,-0.869706 0.43625,-0.841884 0.49265,-0.810156 0.54679,-0.77463 0.59839,-0.735496 0.64717,-0.692962 0.69297,-0.647175 0.73554,-0.598386 0.77463,-0.546844 0.81016,-0.492649 0.84188,-0.436204 0.86966,-0.377757 0.89342,-0.317557 0.91304,-0.255808 0.92836,-0.192907 0.93936,-0.129105 0.94597,-0.0647 h 0.94817 l 0.94601,0.0647 0.93932,0.129105 0.92835,0.192907 0.91304,0.255808 0.89343,0.317557 0.8697,0.377757 0.84189,0.436204 0.81015,0.492649 0.77463,0.546844 0.7355,0.598386 0.69296,0.647175 0.64718,0.692962 0.59838,0.735496 0.54685,0.77463 0.49265,0.810156 0.4362,0.841884 0.37776,0.869706 0.31755,0.893425 0.25581,0.913041 0.19291,0.928354 0.1291,0.939312 0.0647,0.946017 v 0.948179 l -0.0647,0.945967 -0.1291,0.939362 -0.19291,0.928354 -0.25581,0.913041 -0.31755,0.893424 -0.37776,0.869657 -0.4362,0.841882 -0.49265,0.810158 -0.54685,0.774629 -0.59838,0.735547 -0.64718,0.692962 -0.69296,0.647175 -0.7355,0.598386 -0.77463,0.546792 -0.81015,0.492651 -0.84189,0.436254 -0.8697,0.377755 -0.89343,0.317509 -0.91304,0.255808 -0.92835,0.192956 -0.93932,0.129105 -0.94601,0.0647 z m -45.291546,0 -0.94602,-0.0647 -0.93931,-0.129105 -0.92836,-0.192956 -0.91303,-0.255808 -0.89342,-0.317508 -0.86971,-0.377756 -0.84188,-0.436254 -0.81017,-0.49265 -0.77462,-0.546793 -0.7355,-0.598386 -0.69297,-0.647175 -0.64717,-0.692962 -0.59838,-0.735547 -0.54685,-0.774629 -0.49265,-0.810158 -0.4362,-0.841882 -0.37776,-0.869657 -0.31755,-0.893423 -0.25581,-0.913042 -0.19291,-0.928354 -0.1291,-0.939361 -0.0647,-0.945968 v -0.94817 l 0.0647,-0.946018 0.1291,-0.939312 0.19291,-0.928353 0.25581,-0.913041 0.31755,-0.893426 0.37776,-0.869706 0.4362,-0.841883 0.49265,-0.810156 0.54685,-0.774629 0.59838,-0.735496 0.64717,-0.692963 0.69297,-0.647175 0.7355,-0.598386 0.77462,-0.546844 0.81017,-0.49265 0.84188,-0.436203 0.86971,-0.377757 0.89342,-0.317557 0.91303,-0.255807 0.92836,-0.192908 0.93931,-0.129105 0.94602,-0.0647 h 0.94817 l 0.94597,0.0647 0.93935,0.129105 0.92836,0.192908 0.91304,0.255807 0.89343,0.317557 0.86965,0.377757 0.84188,0.436203 0.81016,0.49265 0.77463,0.546844 0.73555,0.598386 0.69296,0.647175 0.64718,0.692963 0.59838,0.735496 0.54679,0.774629 0.49266,0.810156 0.43626,0.841883 0.37775,0.869706 0.3175,0.893426 0.25581,0.913041 0.19296,0.928353 0.12911,0.939312 0.0647,0.946018 v 0.94817 l -0.0647,0.945968 -0.12911,0.939361 -0.19296,0.928354 -0.25581,0.913042 -0.3175,0.893423 -0.37775,0.869657 -0.43626,0.841882 -0.49266,0.810158 -0.48193,0.682805 -6.89706,-6.896998 -0.0466,-0.04994 -0.0431,-0.05305 -0.0394,-0.05579 -0.0356,-0.0584 -0.0314,-0.0607 -0.0272,-0.06265 -0.0229,-0.0644 -0.0185,-0.06581 -0.0139,-0.0669 -0.009,-0.0677 -0.004,-0.06815 v -0.06836 l 0.004,-0.0682 0.009,-0.06766 0.0139,-0.06695 0.0193,-0.07906 0.007,-0.03347 0.0148,-0.08582 0.005,-0.03378 0.009,-0.08657 0.003,-0.03442 0.003,-0.08677 v -0.03438 l -0.003,-0.08677 -0.003,-0.03443 -0.009,-0.08652 -0.005,-0.03378 -0.0148,-0.08592 -0.007,-0.03327 -0.0206,-0.08477 -0.009,-0.03287 -0.0264,-0.08317 -0.0113,-0.03197 -0.0321,-0.08132 -0.0135,-0.03108 -0.0375,-0.07886 -0.0156,-0.03013 -0.0429,-0.07611 -0.0177,-0.02907 -0.0477,-0.07281 -0.0199,-0.02812 -0.0525,-0.06916 -0.0217,-0.02678 -0.0572,-0.06545 -0.0234,-0.02507 -2.31342,-2.313427 -0.0249,-0.02332 -0.0656,-0.0572 -0.0266,-0.02162 -0.0692,-0.05249 -0.0281,-0.01987 -0.0728,-0.04774 -0.0291,-0.01771 -0.0761,-0.04279 -0.0302,-0.01562 -0.0787,-0.03742 -0.0314,-0.01361 -0.0811,-0.03197 -0.0323,-0.01146 -0.0829,-0.02632 -0.0331,-0.0093 -0.0846,-0.02061 -0.0334,-0.007 -0.0858,-0.01481 -0.0338,-0.0046 -0.0867,-0.0089 -0.034,-0.0023 -0.0872,-0.0029 h -0.0339 l -0.0872,0.0029 -0.034,0.0023 -0.0867,0.0089 -0.0338,0.0046 -0.0859,0.01481 -0.0333,0.007 -0.0847,0.02061 -0.0331,0.0093 -0.083,0.02637 -0.0321,0.01137 -0.0813,0.03207 -0.031,0.01346 -0.0789,0.03753 -0.0301,0.01562 -0.0761,0.04279 -0.0291,0.01772 -0.0728,0.04773 -0.0281,0.01987 -0.0692,0.05249 -0.0266,0.02162 -0.0656,0.0572 -0.0249,0.02332 -2.31348,2.313477 -0.0233,0.02498 -0.0572,0.0656 -0.0216,0.02657 -0.0526,0.06925 -0.0199,0.02812 -0.0477,0.07281 -0.0177,0.02907 -0.0428,0.07611 -0.0156,0.03013 -0.0375,0.07886 -0.0135,0.03108 -0.0321,0.08132 -0.0113,0.03203 -0.0263,0.08297 -0.009,0.03308 -0.0206,0.08472 -0.007,0.03327 -0.0148,0.08592 -0.005,0.03378 -0.009,0.08667 -0.003,0.03403 -0.003,0.08722 v 0.03398 l 0.003,0.08722 0.003,0.03403 0.009,0.08672 0.005,0.03378 0.0148,0.08582 0.007,0.03347 0.0206,0.08457 0.009,0.03308 0.0263,0.08287 0.0115,0.03228 0.032,0.08107 0.0136,0.03133 0.0375,0.07871 0.0156,0.03017 0.0428,0.07606 0.0177,0.02912 0.0477,0.07276 0.0199,0.02817 0.0526,0.06925 0.0216,0.02652 0.0572,0.0656 0.0233,0.02497 2.31343,2.313427 0.025,0.02342 0.0655,0.0571 0.0267,0.02176 0.0692,0.05244 0.0281,0.01987 0.0728,0.04774 0.0291,0.01767 0.0761,0.04283 0.0301,0.01562 0.0789,0.03748 0.0311,0.01351 0.0813,0.03207 0.032,0.01131 0.0832,0.02642 0.0328,0.0092 0.0848,0.02066 0.0333,0.0069 0.0859,0.01481 0.0338,0.0046 0.0865,0.0089 0.0345,0.0023 0.0868,0.0029 h 0.0344 l 0.0868,-0.0029 0.0345,-0.0023 0.0866,-0.0089 0.0338,-0.0046 0.0858,-0.01481 0.0334,-0.007 0.0791,-0.01927 0.0669,-0.0139 0.0677,-0.0093 0.0682,-0.0046 h 0.0683 l 0.0682,0.0046 0.0677,0.0093 0.0669,0.0139 0.0658,0.01841 0.0644,0.02291 0.0628,0.02722 0.0607,0.03142 0.0584,0.03548 0.0559,0.03943 0.053,0.04313 0.05,0.04664 6.89699,6.897049 -0.6828,0.481941 -0.81016,0.492649 -0.84188,0.436255 -0.86966,0.377756 -0.89342,0.317507 -0.91305,0.255809 -0.92834,0.192955 -0.93936,0.129105 -0.94598,0.0647 z m 0,45.291555 -0.94602,-0.0647 -0.93931,-0.1291 -0.92836,-0.1929 -0.91303,-0.25581 -0.89342,-0.31756 -0.86971,-0.37776 -0.84188,-0.4362 -0.81017,-0.49265 -0.77462,-0.54684 -0.7355,-0.5984 -0.69297,-0.64717 -0.64717,-0.69296 -0.59838,-0.7355 -0.54685,-0.77463 -0.49265,-0.81016 -0.4362,-0.84187 -0.37776,-0.86971 -0.31755,-0.89343 -0.25581,-0.91304 -0.19291,-0.92835 -0.1291,-0.939316 -0.0647,-0.94602 v -0.94817 l 0.0647,-0.945968 0.1291,-0.93936 0.19291,-0.928351 0.25581,-0.913041 0.31755,-0.893435 0.37776,-0.869647 0.4362,-0.841886 0.49265,-0.810159 0.54685,-0.774629 0.59838,-0.735547 0.64717,-0.692962 0.69297,-0.647174 0.7355,-0.598386 0.77462,-0.546794 0.81017,-0.49265 0.84188,-0.436255 0.86971,-0.377756 0.89342,-0.317507 0.91303,-0.255807 0.92836,-0.192957 0.93931,-0.129105 0.94602,-0.0647 h 0.94817 l 0.94597,0.0647 0.93935,0.129105 0.92836,0.192957 0.91304,0.255807 0.89343,0.317507 0.86965,0.377756 0.84188,0.436255 0.81016,0.49265 0.68281,0.481942 -6.89699,6.897044 -0.0499,0.0466 -0.0531,0.04312 -0.0558,0.0393 -0.0584,0.03555 -0.0608,0.0315 -0.0627,0.0273 -0.0644,0.02287 -0.0658,0.01845 -0.0669,0.01387 -0.0677,0.0093 -0.0682,0.0045 h -0.0683 l -0.0682,-0.0045 -0.0677,-0.0093 -0.067,-0.01387 -0.0791,-0.01927 -0.0334,-0.0068 -0.0858,-0.01478 -0.0338,-0.0045 -0.0866,-0.0089 -0.0345,-0.003 -0.0868,-0.003 h -0.0344 l -0.0868,0.003 -0.0345,0.003 -0.0865,0.0089 -0.0338,0.0045 -0.0859,0.01478 -0.0333,0.0068 -0.0848,0.0207 -0.0328,0.0092 -0.0832,0.0264 -0.032,0.01125 -0.0813,0.03203 -0.031,0.01358 -0.0789,0.0375 -0.0301,0.0156 -0.0761,0.0429 -0.029,0.0177 -0.0728,0.0477 -0.0281,0.01987 -0.0692,0.0525 -0.0268,0.02175 -0.0655,0.05708 -0.025,0.02347 -2.31343,2.313429 -0.0233,0.0249 -0.0572,0.06562 -0.0216,0.02655 -0.0525,0.06923 -0.0199,0.0282 -0.0477,0.07275 -0.0177,0.0291 -0.0428,0.07606 -0.0156,0.03023 -0.0374,0.07871 -0.0136,0.03142 -0.032,0.08107 -0.0115,0.03225 -0.0263,0.08286 -0.009,0.03307 -0.0206,0.08457 -0.007,0.03345 -0.0148,0.08582 -0.004,0.03382 -0.009,0.08672 -0.003,0.03397 -0.003,0.08722 v 0.0339 l 0.003,0.08723 0.003,0.03397 0.009,0.08666 0.004,0.03375 0.0148,0.08592 0.007,0.0333 0.0206,0.08472 0.009,0.03307 0.0263,0.08296 0.0114,0.0321 0.0321,0.08132 0.0135,0.03105 0.0375,0.07887 0.0156,0.03015 0.0428,0.0761 0.0177,0.0291 0.0477,0.07282 0.0199,0.02813 0.0525,0.06923 0.0216,0.02655 0.0572,0.06562 0.0233,0.0249 2.31347,2.31347 0.0249,0.0233 0.0656,0.0572 0.0265,0.0216 0.0693,0.0525 0.0281,0.0199 0.0728,0.0477 0.029,0.0177 0.0761,0.0428 0.0302,0.0157 0.0789,0.0375 0.031,0.0135 0.0813,0.032 0.0321,0.0113 0.083,0.0263 0.0331,0.009 0.0847,0.0207 0.0333,0.007 0.0859,0.0148 0.0338,0.005 0.0867,0.009 0.034,0.003 0.0872,0.003 h 0.0339 l 0.0872,-0.003 0.034,-0.003 0.0867,-0.009 0.0338,-0.005 0.0858,-0.0148 0.0335,-0.007 0.0846,-0.0207 0.0331,-0.009 0.0829,-0.0263 0.0323,-0.0115 0.0811,-0.032 0.0314,-0.0136 0.0787,-0.0375 0.0302,-0.0157 0.0761,-0.0428 0.0291,-0.0178 0.0727,-0.0477 0.0281,-0.0199 0.0692,-0.0525 0.0266,-0.0216 0.0656,-0.0572 0.0249,-0.0233 2.31343,-2.313425 0.0234,-0.02505 0.0571,-0.06548 0.0218,-0.0267 0.0525,-0.06915 0.0199,-0.02813 0.0477,-0.07282 0.0177,-0.0291 0.0429,-0.07611 0.0156,-0.03015 0.0375,-0.07888 0.0135,-0.03105 0.0321,-0.08131 0.0113,-0.03203 0.0264,-0.08317 0.009,-0.03285 0.0206,-0.08477 0.007,-0.0333 0.0148,-0.08591 0.004,-0.03383 0.009,-0.08652 0.003,-0.0345 0.003,-0.08677 v -0.03442 l -0.003,-0.08677 -0.003,-0.0345 -0.009,-0.08657 -0.004,-0.03383 -0.0148,-0.08581 -0.007,-0.03345 -0.0193,-0.07906 -0.0139,-0.0669 -0.009,-0.06773 -0.005,-0.06817 v -0.06833 l 0.005,-0.06817 0.009,-0.06772 0.0139,-0.0669 0.0184,-0.06578 0.023,-0.06442 0.0272,-0.0627 0.0314,-0.06068 0.0355,-0.0585 0.0394,-0.05588 0.0431,-0.05302 0.0466,-0.05003 6.89705,-6.896995 0.48194,0.682806 0.49265,0.810153 0.43626,0.841885 0.37776,0.869654 0.3175,0.893428 0.2558,0.913043 0.19296,0.92835 0.12911,0.939353 0.0647,0.945975 v 0.948173 l -0.0647,0.946013 -0.12911,0.939317 -0.19296,0.92836 -0.2558,0.91303 -0.3175,0.89343 -0.37776,0.86971 -0.43626,0.84188 -0.49265,0.81015 -0.5468,0.77463 -0.59838,0.7355 -0.64717,0.69296 -0.69297,0.64718 -0.73555,0.59838 -0.77462,0.54684 -0.81016,0.49266 -0.84188,0.4362 -0.86966,0.37776 -0.89342,0.31756 -0.91304,0.25581 -0.92836,0.1929 -0.93935,0.12911 -0.94597,0.0647 z m 45.291546,0 -0.94597,-0.0647 -0.93936,-0.1291 -0.92835,-0.1929 -0.91304,-0.25581 -0.89343,-0.31756 -0.86965,-0.37776 -0.84189,-0.4362 -0.81015,-0.49265 -0.77463,-0.54684 -0.73555,-0.5984 -0.69296,-0.64717 -0.64718,-0.69296 -0.59838,-0.7355 -0.5468,-0.77463 -0.49265,-0.81016 -0.43625,-0.84187 -0.37776,-0.86971 -0.3175,-0.89343 -0.25581,-0.91304 -0.19296,-0.92835 -0.1291,-0.939316 -0.0647,-0.94602 v -0.94817 l 0.0647,-0.945968 0.1291,-0.93936 0.19296,-0.928351 0.25581,-0.913041 0.3175,-0.893435 0.37776,-0.869647 0.43625,-0.841886 0.49265,-0.810159 0.48194,-0.682805 6.89705,6.896992 0.0466,0.04995 0.0431,0.0531 0.0394,0.0558 0.0355,0.0585 0.0314,0.06068 0.0272,0.06262 0.0229,0.06442 0.0185,0.06578 0.0139,0.0669 0.009,0.06772 0.005,0.06818 v 0.06832 l -0.005,0.06818 -0.009,0.06765 -0.0139,0.06697 -0.0193,0.07907 -0.007,0.03345 -0.0148,0.08581 -0.005,0.03375 -0.009,0.08657 -0.002,0.0345 -0.003,0.08677 v 0.03442 l 0.003,0.08678 0.002,0.0345 0.009,0.08652 0.005,0.03375 0.0148,0.08591 0.007,0.0333 0.0207,0.08477 0.009,0.03285 0.0264,0.08317 0.0113,0.03203 0.0321,0.08132 0.0135,0.03097 0.0375,0.07886 0.0156,0.03015 0.0428,0.07612 0.0177,0.02902 0.0477,0.07283 0.0199,0.02813 0.0524,0.06915 0.0218,0.0267 0.0571,0.06547 0.0234,0.02505 2.31343,2.313436 0.025,0.0233 0.0656,0.0572 0.0265,0.0216 0.0693,0.0525 0.0282,0.0199 0.0727,0.0477 0.0291,0.0178 0.0761,0.0428 0.0302,0.0156 0.0787,0.0375 0.0313,0.0136 0.0811,0.032 0.0323,0.0115 0.0829,0.0263 0.0331,0.009 0.0846,0.0206 0.0335,0.007 0.0858,0.0148 0.0338,0.004 0.0867,0.009 0.034,0.003 0.0872,0.003 h 0.034 l 0.0872,-0.003 0.034,-0.003 0.0867,-0.009 0.0338,-0.004 0.0859,-0.0148 0.0333,-0.007 0.0847,-0.0206 0.0331,-0.009 0.083,-0.0263 0.032,-0.0114 0.0813,-0.032 0.0311,-0.0135 0.0789,-0.0375 0.0301,-0.0156 0.0761,-0.0428 0.0291,-0.0177 0.0728,-0.0478 0.0281,-0.0199 0.0692,-0.0525 0.0266,-0.0216 0.0656,-0.0572 0.025,-0.0233 2.31348,-2.313481 0.0233,-0.02497 0.0572,-0.06562 0.0216,-0.02655 0.0525,-0.06923 0.0199,-0.02813 0.0477,-0.07282 0.0177,-0.0291 0.0428,-0.07612 0.0156,-0.03015 0.0375,-0.07886 0.0135,-0.03097 0.0321,-0.08132 0.0114,-0.03203 0.0264,-0.08297 0.009,-0.03307 0.0206,-0.08471 0.007,-0.0333 0.0148,-0.08592 0.005,-0.03382 0.009,-0.08667 0.002,-0.03397 0.003,-0.08722 v -0.0339 l -0.003,-0.08723 -0.002,-0.03397 -0.009,-0.08673 -0.005,-0.03383 -0.0148,-0.08581 -0.007,-0.03345 -0.0206,-0.08457 -0.009,-0.03307 -0.0263,-0.08287 -0.0115,-0.03225 -0.032,-0.08108 -0.0136,-0.03142 -0.0374,-0.0787 -0.0156,-0.03023 -0.0428,-0.07606 -0.0177,-0.02902 -0.0477,-0.07275 -0.0199,-0.0282 -0.0525,-0.06923 -0.0216,-0.02655 -0.0572,-0.06562 -0.0233,-0.0249 -2.31343,-2.313429 -0.0251,-0.02348 -0.0655,-0.05707 -0.0268,-0.02175 -0.0692,-0.0525 -0.0281,-0.01987 -0.0728,-0.0477 -0.0291,-0.0177 -0.0761,-0.0429 -0.0301,-0.0156 -0.0789,-0.0375 -0.0311,-0.01358 -0.0813,-0.03202 -0.032,-0.01132 -0.0832,-0.0264 -0.0329,-0.0092 -0.0848,-0.0207 -0.0333,-0.0067 -0.0859,-0.01478 -0.0338,-0.0045 -0.0865,-0.0088 -0.0344,-0.003 -0.0868,-0.003 h -0.0344 l -0.0868,0.003 -0.0344,0.003 -0.0866,0.0088 -0.0338,0.0045 -0.0858,0.01478 -0.0335,0.0067 -0.0791,0.01927 -0.0669,0.01395 -0.0677,0.0093 -0.0682,0.0045 h -0.0684 l -0.0682,-0.0045 -0.0677,-0.0093 -0.0669,-0.01395 -0.0658,-0.01837 -0.0644,-0.02295 -0.0627,-0.0273 -0.0607,-0.03142 -0.0584,-0.03555 -0.0559,-0.03938 -0.053,-0.04312 -0.05,-0.0466 -6.89699,-6.897049 0.6828,-0.481941 0.81016,-0.492651 0.84188,-0.436254 0.86966,-0.377756 0.89342,-0.317508 0.91304,-0.255806 0.92836,-0.192958 0.93936,-0.129105 0.94597,-0.0647 h 0.94817 l 0.94601,0.0647 0.93932,0.129105 0.92835,0.192958 0.91304,0.255806 0.89343,0.317508 0.8697,0.377756 0.84188,0.436254 0.81016,0.492651 0.77463,0.546793 0.7355,0.598386 0.69296,0.647176 0.64718,0.692961 0.59838,0.735547 0.54684,0.77463 0.49265,0.810153 0.43621,0.841882 0.37775,0.86966 0.31756,0.893428 0.25581,0.913031 0.19291,0.928365 0.1291,0.939353 0.0647,0.945976 v 0.948165 l -0.0647,0.946013 -0.1291,0.939321 -0.19291,0.92835 -0.25581,0.91304 -0.31756,0.89343 -0.37775,0.86971 -0.43621,0.84188 -0.49265,0.81015 -0.54684,0.77464 -0.59838,0.73548 -0.64718,0.69297 -0.69296,0.64717 -0.7355,0.5984 -0.77463,0.54684 -0.81016,0.49264 -0.84188,0.43621 -0.8697,0.37775 -0.89343,0.31757 -0.91304,0.25581 -0.92835,0.1929 -0.93932,0.1291 -0.94601,0.0647 z M -132.81347,62.612023 h -5.71788 l -0.18966,0.385062 -0.20147,0.374654 -0.21327,0.364347 -0.22504,0.353937 -0.23679,0.343578 -0.2486,0.33317 -0.26041,0.322812 -0.27216,0.312504 -0.28398,0.302094 -0.29574,0.291688 -0.30756,0.281378 -0.31931,0.27097 -0.33618,0.262613 -0.35803,0.256258 -0.37996,0.249902 -0.40183,0.243548 -0.42384,0.237194 -0.44584,0.230836 -0.4674,0.224433 -0.4899,0.218127 -0.5114,0.211721 -0.53345,0.205417 -0.55494,0.199011 -0.57747,0.192657 v 5.666851 l 0.39333,-0.122072 0.38179,-0.123009 0.37081,-0.123956 0.35929,-0.124887 0.34828,-0.125841 0.33728,-0.126773 0.32577,-0.127724 0.31476,-0.128665 0.30373,-0.1296 0.29224,-0.130545 0.28122,-0.131487 0.27022,-0.132427 0.26521,-0.136321 0.26648,-0.143151 0.26826,-0.149987 0.26977,-0.156828 0.27132,-0.163652 0.27282,-0.170494 0.27437,-0.177329 0.27588,-0.184174 0.27742,-0.190995 0.27894,-0.19784 0.28047,-0.204672 0.28203,-0.211506 v 16.576702 h 6.99042 z m -152.71648,25.714366 0.57647,-0.02171 0.55946,-0.03623 0.54193,-0.05074 0.52493,-0.0652 0.50792,-0.07971 0.49039,-0.09418 0.47339,-0.108688 0.45587,-0.12315 0.43885,-0.137662 0.42185,-0.152173 0.40432,-0.166636 0.38883,-0.180697 0.3738,-0.194256 0.35979,-0.20782 0.34478,-0.221329 0.32977,-0.234891 0.31575,-0.248402 0.30074,-0.262012 0.28623,-0.275524 0.27172,-0.289084 0.25721,-0.302596 0.24269,-0.316156 0.22769,-0.329717 0.21117,-0.339126 0.19315,-0.344279 0.17465,-0.349484 0.15612,-0.354687 0.13812,-0.359842 0.11909,-0.365046 0.10109,-0.370201 0.0831,-0.375405 0.0641,-0.38061 0.0461,-0.385812 0.0275,-0.390937 0.009,-0.396146 -0.007,-0.336609 -0.0211,-0.331194 -0.034,-0.325774 -0.0485,-0.32035 -0.0621,-0.314935 -0.0756,-0.309527 -0.0896,-0.304102 -0.10357,-0.298682 -0.1171,-0.293267 -0.13111,-0.287854 -0.14461,-0.282434 -0.15863,-0.277011 -0.17365,-0.27059 -0.19015,-0.263168 -0.20667,-0.25574 -0.22317,-0.248316 -0.2397,-0.240887 -0.25621,-0.233466 -0.27273,-0.226039 -0.28923,-0.218606 -0.30523,-0.211182 -0.32226,-0.203761 -0.33878,-0.196329 -0.3553,-0.188908 -0.3828,-0.185055 -0.42335,-0.184696 -0.46237,-0.184353 -0.50241,-0.18399 -0.54194,-0.183644 -0.58197,-0.183284 -0.6215,-0.182922 -0.66105,-0.182578 -0.70107,-0.182224 -0.7406,-0.181862 -0.78013,-0.181513 -0.82017,-0.181157 -0.32876,-0.07115 -0.30825,-0.07211 -0.28723,-0.07304 -0.26672,-0.074 -0.24619,-0.07493 -0.22518,-0.07588 -0.20468,-0.07683 -0.18364,-0.07777 -0.16314,-0.07872 -0.14211,-0.07966 -0.1216,-0.0806 -0.10109,-0.08157 -0.0896,-0.08002 -0.0816,-0.08167 -0.0741,-0.08332 -0.0661,-0.08492 -0.058,-0.08662 -0.0506,-0.08822 -0.043,-0.08992 -0.0351,-0.09152 -0.027,-0.09323 -0.0195,-0.09483 -0.0115,-0.09648 -0.004,-0.09813 0.005,-0.134008 0.0145,-0.130608 0.0236,-0.127203 0.0331,-0.1238 0.042,-0.120347 0.052,-0.116946 0.0611,-0.113541 0.071,-0.11014 0.0801,-0.106687 0.0896,-0.103284 0.0986,-0.09983 0.10859,-0.09648 0.1176,-0.09077 0.1271,-0.08292 0.13611,-0.07501 0.14511,-0.0671 0.15463,-0.05919 0.16363,-0.05134 0.17264,-0.04343 0.18215,-0.03553 0.19116,-0.02762 0.20066,-0.01972 0.20967,-0.01186 0.21869,-0.0039 0.2667,0.0053 0.25671,0.01591 0.2472,0.02652 0.23719,0.03712 0.22719,0.04769 0.21768,0.05835 0.20816,0.06895 0.19816,0.07952 0.18816,0.09017 0.17864,0.100732 0.16864,0.11139 0.15913,0.12195 0.14962,0.133607 0.14112,0.146319 0.1316,0.159028 0.12361,0.171791 0.11408,0.184499 0.10558,0.19726 0.0966,0.209971 0.0881,0.22268 0.0786,0.235442 0.0706,0.24815 0.0611,0.260863 0.0525,0.273622 7.24488,-0.424095 -0.0931,-0.630211 -0.1216,-0.601138 -0.14962,-0.571965 -0.17765,-0.542939 -0.20566,-0.513767 -0.23419,-0.484694 -0.26221,-0.455569 -0.29024,-0.426497 -0.31876,-0.397322 -0.34676,-0.368299 -0.37481,-0.339125 -0.40333,-0.310052 -0.43236,-0.283179 -0.46437,-0.25856 -0.49591,-0.233941 -0.52692,-0.209269 -0.55896,-0.1847 -0.58997,-0.16003 -0.62151,-0.13546 -0.65303,-0.11079 -0.68456,-0.08622 -0.71608,-0.06155 -0.7476,-0.03693 -0.77863,-0.01232 -0.63602,0.0067 -0.613,0.02037 -0.59048,0.03387 -0.56696,0.04739 -0.54445,0.061 -0.52092,0.07451 -0.49839,0.08807 -0.4754,0.101632 -0.45186,0.115145 -0.42935,0.128703 -0.40633,0.142266 -0.38381,0.155827 -0.36379,0.167636 -0.34879,0.177794 -0.33277,0.187952 -0.31726,0.198061 -0.30174,0.20817 -0.28673,0.218327 -0.27072,0.228435 -0.25521,0.238593 -0.23969,0.248753 -0.22418,0.258858 -0.20818,0.268969 -0.19315,0.279127 -0.17765,0.285681 -0.16213,0.288585 -0.14661,0.291587 -0.13112,0.294488 -0.11559,0.297443 -0.10057,0.300392 -0.0846,0.303347 -0.0695,0.306299 -0.054,0.30925 -0.0386,0.312154 -0.0236,0.315155 -0.007,0.318058 0.015,0.47919 0.0455,0.464853 0.0751,0.450454 0.10559,0.436074 0.1356,0.421702 0.16614,0.407326 0.19617,0.392949 0.22617,0.378577 0.25622,0.36419 0.28673,0.349825 0.31676,0.335441 0.34677,0.321072 0.37932,0.308697 0.41982,0.298329 0.45988,0.287962 0.49991,0.2776 0.54044,0.26723 0.58097,0.256869 0.621,0.246499 0.66155,0.236137 0.70156,0.225773 0.74211,0.215399 0.78213,0.205037 0.82216,0.194668 0.49941,0.113682 0.46789,0.114859 0.43684,0.116048 0.40583,0.117226 0.3748,0.118417 0.34329,0.119586 0.31275,0.120773 0.28122,0.12195 0.25021,0.123139 0.21917,0.124311 0.18816,0.125502 0.15663,0.126672 0.13561,0.128645 0.1241,0.131476 0.11159,0.13431 0.10008,0.137146 0.0886,0.139969 0.0765,0.142805 0.0651,0.145644 0.053,0.148465 0.0411,0.151313 0.0295,0.154126 0.0176,0.156976 0.006,0.159779 -0.006,0.167937 -0.0185,0.164534 -0.031,0.161081 -0.0435,0.157728 -0.0555,0.154275 -0.068,0.150873 -0.0806,0.147419 -0.0926,0.144067 -0.10509,0.140614 -0.1176,0.137211 -0.1301,0.133809 -0.14212,0.130406 -0.15362,0.1233 -0.16414,0.112541 -0.17464,0.101832 -0.18515,0.09118 -0.19566,0.08036 -0.20617,0.06971 -0.21667,0.05895 -0.22718,0.04824 -0.2377,0.03753 -0.2482,0.02683 -0.25822,0.01606 -0.2692,0.0053 -0.3608,-0.01046 -0.34628,-0.03147 -0.33227,-0.05244 -0.31826,-0.07341 -0.30374,-0.09438 -0.28974,-0.115343 -0.27572,-0.136311 -0.26171,-0.157277 -0.24771,-0.178245 -0.23319,-0.199262 -0.21917,-0.220178 -0.20517,-0.241195 -0.1181,-0.161432 -0.11108,-0.173191 -0.10459,-0.184999 -0.0976,-0.19681 -0.0911,-0.20852 -0.0841,-0.220329 -0.077,-0.232137 -0.0701,-0.243894 -0.0635,-0.255677 -0.0571,-0.267457 -0.0494,-0.279236 -0.043,-0.291017 -7.31293,0.458122 0.0686,0.618567 0.0981,0.600167 0.1271,0.581822 0.15712,0.563458 0.18617,0.545041 0.21566,0.526677 0.24521,0.508263 0.27472,0.489947 0.30424,0.471534 0.33327,0.453167 0.3633,0.434752 0.39231,0.416388 0.43437,0.390266 0.48839,0.35629 0.54293,0.322362 0.59649,0.288434 0.65153,0.254507 0.70506,0.220578 0.75962,0.186602 0.81366,0.152724 0.86771,0.118746 0.92225,0.08487 0.97629,0.0509 1.03034,0.01696 z M 19.503077,63.036117 H 11.698246 L 6.1837688,80.936142 0.58472778,63.036117 H -7.4572982 l 9.399632,24.873435 h 8.3307622 z m -41.321528,15.64345 h 4.207413 l 0.758616,-0.01473 0.725088,-0.04417 0.692061,-0.07364 0.659035,-0.103083 0.625509,-0.132547 0.592981,-0.161996 0.559453,-0.19145 0.526428,-0.220914 0.4934,-0.250362 0.460373,-0.279819 0.427348,-0.30927 0.393818,-0.338731 0.361795,-0.36492 0.330267,-0.38778 0.2992438,-0.410651 0.267216,-0.433494 0.236191,-0.456366 0.204166,-0.479213 0.173141,-0.502083 0.141615,-0.524931 0.110089,-0.547799 0.07856,-0.570653 0.04704,-0.593513 0.01601,-0.616369 -0.01451,-0.599142 -0.04304,-0.575767 -0.07256,-0.552499 -0.101081,-0.529129 -0.129605,-0.50581 -0.15863,-0.482491 -0.187652,-0.459123 -0.216676,-0.435854 -0.245198,-0.412485 -0.274224,-0.389166 -0.3032438,-0.365846 -0.332271,-0.342528 -0.360793,-0.317057 -0.389816,-0.289486 -0.41934,-0.261963 -0.448364,-0.234339 -0.477387,-0.206768 -0.506411,-0.179196 -0.535435,-0.151673 -0.564958,-0.12405 -0.593482,-0.09653 -0.623005,-0.06891 -0.652031,-0.04133 -0.681051,-0.01382 h -12.776357 v 24.873434 h 7.720265 z m 0,-5.039095 V 68.09222 h 2.188775 l 0.349284,0.0057 0.33077,0.01696 0.311251,0.02828 0.292238,0.03958 0.27322,0.05094 0.254207,0.0622 0.235191,0.07351 0.216176,0.08482 0.196657,0.09618 0.177646,0.107437 0.158629,0.118796 0.139613,0.130056 0.125101,0.138212 0.113593,0.143166 0.103083,0.148121 0.09207,0.153025 0.08157,0.158026 0.07006,0.162932 0.06005,0.167887 0.04854,0.17289 0.03803,0.177796 0.02703,0.182722 0.01651,0.187697 0.005,0.192636 -0.006,0.197787 -0.01901,0.191775 -0.03103,0.185766 -0.04353,0.179761 -0.05655,0.173755 -0.06856,0.167736 -0.08107,0.161736 -0.09358,0.155722 -0.106086,0.149716 -0.119097,0.143713 -0.131106,0.137701 -0.143617,0.131688 -0.158628,0.123283 -0.177645,0.112572 -0.195659,0.101849 -0.214674,0.09112 -0.232188,0.08041 -0.251204,0.06968 -0.269219,0.05896 -0.287733,0.04824 -0.306248,0.03753 -0.324264,0.02679 -0.343279,0.01609 -0.361292,0.0053 z m -22.567314,4.105832 h 9.63732 v -5.02207 h -9.63732 v -4.34353 h 11.283156 v -5.344587 h -19.002925 v 24.873435 h 7.719769 z m -198.361965,1.510231 0.005,-0.399554 0.016,-0.378573 0.027,-0.357605 0.0381,-0.336633 0.049,-0.315646 0.0596,-0.294679 0.0706,-0.273702 0.0811,-0.252731 0.0921,-0.231747 0.10308,-0.210772 0.1136,-0.189804 0.12459,-0.168824 0.13362,-0.15178 0.14011,-0.138579 0.14662,-0.125383 0.15313,-0.112183 0.15962,-0.09899 0.16614,-0.08579 0.17314,-0.07259 0.17964,-0.0594 0.18615,-0.04619 0.19266,-0.033 0.19966,-0.01979 0.20567,-0.0066 0.18615,0.005 0.17866,0.01467 0.17213,0.02444 0.16464,0.03423 0.15762,0.04401 0.15062,0.05378 0.14362,0.06356 0.13611,0.07334 0.1296,0.08312 0.12209,0.09289 0.1151,0.102683 0.10809,0.11245 0.10058,0.124239 0.0916,0.138029 0.0826,0.151802 0.074,0.1656 0.0656,0.179375 0.0566,0.193167 0.0481,0.206952 0.0395,0.22074 0.0305,0.23452 0.0215,0.248307 0.013,0.262093 0.005,0.275873 v 9.908741 h 6.93915 v -11.45256 l -0.0111,-0.578296 -0.0335,-0.552848 -0.0566,-0.527391 -0.0786,-0.501938 -0.10159,-0.476492 -0.1236,-0.451045 -0.14612,-0.425581 -0.16913,-0.400145 -0.19116,-0.37468 -0.21367,-0.349237 -0.23619,-0.323789 -0.25921,-0.298327 -0.27823,-0.273706 -0.29474,-0.249903 -0.31175,-0.22611 -0.32826,-0.202308 -0.34479,-0.178495 -0.36129,-0.154725 -0.37831,-0.130907 -0.39432,-0.107086 -0.41134,-0.08332 -0.42784,-0.0595 -0.44487,-0.03567 -0.46087,-0.01191 -0.31325,0.0044 -0.30625,0.01312 -0.29875,0.02176 -0.29223,0.03053 -0.28473,0.03923 -0.27773,0.04794 -0.2707,0.05669 -0.26373,0.0654 -0.2567,0.07411 -0.2497,0.08282 -0.24271,0.09152 -0.23519,0.100282 -0.23218,0.11039 -0.23219,0.121949 -0.23219,0.133508 -0.23269,0.145042 -0.23319,0.156588 -0.23319,0.168145 -0.23319,0.179682 -0.23368,0.191229 -0.23369,0.20279 -0.23419,0.21432 -0.2342,0.225878 -0.23469,0.237428 V 63.03618 h -6.9056 v 24.873435 h 6.9056 z m 45.33779,-0.542946 0.005,-0.334182 0.016,-0.318147 0.0266,-0.302125 0.037,-0.286107 0.0476,-0.27007 0.0585,-0.254046 0.0686,-0.238023 0.0796,-0.221991 0.0901,-0.205971 0.10109,-0.189935 0.11109,-0.173906 0.1221,-0.157889 0.1301,-0.143626 0.13611,-0.13114 0.14212,-0.118651 0.14761,-0.106158 0.15413,-0.09367 0.15963,-0.08118 0.16564,-0.06869 0.17114,-0.0562 0.17764,-0.04371 0.18315,-0.03123 0.18915,-0.01873 0.19466,-0.0063 0.1206,0.0028 0.1176,0.0087 0.11509,0.01443 0.11259,0.02021 0.11009,0.02599 0.10709,0.03177 0.10458,0.03755 0.10258,0.04331 0.0991,0.0491 0.0971,0.05487 0.0946,0.06064 0.0916,0.06641 0.0886,0.07109 0.0836,0.07474 0.0796,0.0784 0.0745,0.08204 0.0706,0.0857 0.0656,0.08935 0.0615,0.093 0.0571,0.09666 0.052,0.100311 0.0481,0.103954 0.0435,0.107618 0.039,0.111265 0.0215,0.07602 0.0201,0.08663 0.018,0.09722 0.016,0.107837 0.014,0.118436 0.012,0.129035 0.0104,0.139639 0.009,0.150242 0.007,0.160851 0.005,0.171438 0.003,0.182048 0.001,0.192656 v 9.925609 h 6.92263 v -9.297749 l 0.005,-0.317801 0.0155,-0.302945 0.0261,-0.2881 0.0365,-0.273246 0.0465,-0.258405 0.0571,-0.243553 0.067,-0.22871 0.0781,-0.213859 0.0881,-0.199007 0.0986,-0.184154 0.10859,-0.169312 0.1196,-0.154458 0.1276,-0.140909 0.13412,-0.128659 0.1411,-0.116397 0.14762,-0.104157 0.15413,-0.0919 0.16063,-0.07965 0.16713,-0.06739 0.17415,-0.05514 0.18063,-0.04288 0.18666,-0.03063 0.19416,-0.01838 0.20015,-0.0062 0.17014,0.0065 0.16513,0.01944 0.16114,0.03238 0.15562,0.04536 0.15163,0.05831 0.14661,0.07127 0.14162,0.08423 0.13711,0.09719 0.13261,0.110143 0.12761,0.12311 0.12309,0.136059 0.11811,0.149023 0.0761,0.103356 0.0691,0.112066 0.0631,0.120788 0.0561,0.129501 0.0495,0.138217 0.0425,0.146934 0.0365,0.15564 0.0296,0.164364 0.0231,0.173082 0.0165,0.181791 0.01,0.19051 0.003,0.199227 v 10.265076 h 6.92261 V 76.592623 l -0.0115,-0.597295 -0.034,-0.570319 -0.0566,-0.543339 -0.0791,-0.51636 -0.10158,-0.489372 -0.12461,-0.462394 -0.14711,-0.43542 -0.16964,-0.408435 -0.19215,-0.38145 -0.21519,-0.354478 -0.23719,-0.327496 -0.2602,-0.300514 -0.28022,-0.275067 -0.29825,-0.251149 -0.31575,-0.227225 -0.33328,-0.20329 -0.35078,-0.179396 -0.36881,-0.155476 -0.38631,-0.131557 -0.40383,-0.107637 -0.42184,-0.08372 -0.43935,-0.05979 -0.45738,-0.03587 -0.47438,-0.01196 -0.32377,0.0044 -0.31525,0.01326 -0.30625,0.02212 -0.29724,0.03093 -0.28874,0.03979 -0.28023,0.04859 -0.27121,0.05745 -0.26272,0.06625 -0.2542,0.07511 -0.2452,0.08397 -0.2362,0.09278 -0.22768,0.101632 -0.22568,0.113892 -0.22919,0.129556 -0.23318,0.145203 -0.23769,0.16088 -0.2412,0.176559 -0.2457,0.192226 -0.24921,0.207883 -0.25369,0.223566 -0.25721,0.239229 -0.26172,0.254898 -0.26522,0.270574 -0.26971,0.286237 -0.13611,-0.246475 -0.14212,-0.236112 -0.14912,-0.225737 -0.15513,-0.215371 -0.16162,-0.204996 -0.16764,-0.194634 -0.17414,-0.184263 -0.18066,-0.173891 -0.18714,-0.163518 -0.19317,-0.153154 -0.19965,-0.142791 -0.20616,-0.132407 -0.21569,-0.12195 -0.22768,-0.11139 -0.2407,-0.100732 -0.2532,-0.09017 -0.26521,-0.07951 -0.27824,-0.06895 -0.29023,-0.05835 -0.30275,-0.04768 -0.31576,-0.03713 -0.32777,-0.02652 -0.34026,-0.01591 -0.35329,-0.0053 -0.32926,0.0049 -0.32176,0.01446 -0.31326,0.02416 -0.30525,0.03383 -0.29724,0.04343 -0.28873,0.05314 -0.28073,0.0628 -0.27273,0.07246 -0.26471,0.08212 -0.2567,0.09177 -0.24821,0.101432 -0.24019,0.111091 -0.2357,0.122549 -0.23568,0.135705 -0.2352,0.148926 -0.2347,0.162116 -0.23468,0.175321 -0.23419,0.188514 -0.23369,0.201718 -0.2337,0.214915 -0.23318,0.228111 -0.23269,0.241315 -0.23218,0.254501 -0.2322,0.267713 v -2.62989 h -6.44772 v 18.018837 h 6.92262 z m 37.15516,9.595087 0.64703,-0.02458 0.62049,-0.04094 0.59398,-0.0573 0.56747,-0.07371 0.54043,-0.09007 0.51443,-0.106487 0.48738,-0.1228 0.46038,-0.139213 0.43435,-0.155575 0.40733,-0.17199 0.38131,-0.188353 0.3628,-0.207218 0.35428,-0.228486 0.34528,-0.249852 0.33628,-0.27117 0.32726,-0.292538 0.31876,-0.313805 0.30925,-0.335171 0.30025,-0.35649 0.29173,-0.377806 0.28273,-0.399124 0.27322,-0.420441 0.26472,-0.441809 -6.80352,-0.628009 -0.10708,0.132307 -0.10559,0.125502 -0.10459,0.118646 -0.10308,0.11184 -0.10209,0.104986 -0.10108,0.09818 -0.0996,0.09132 -0.0991,0.08447 -0.0971,0.07766 -0.0966,0.07086 -0.0951,0.064 -0.0936,0.05714 -0.15363,0.08127 -0.15462,0.07426 -0.15662,0.0671 -0.15763,0.0601 -0.15862,0.05305 -0.16064,0.04593 -0.16213,0.03883 -0.16314,0.03183 -0.16462,0.02472 -0.16614,0.01771 -0.16763,0.01056 -0.16914,0.0036 -0.26423,-0.0081 -0.2562,-0.02442 -0.2472,-0.04063 -0.2392,-0.0569 -0.23018,-0.07321 -0.22218,-0.08942 -0.21318,-0.105684 -0.20516,-0.121949 -0.19666,-0.138212 -0.18816,-0.154425 -0.17914,-0.170739 -0.17114,-0.187002 -0.11509,-0.141615 -0.10809,-0.153425 -0.10058,-0.165184 -0.0931,-0.176944 -0.0861,-0.188753 -0.0786,-0.200512 -0.071,-0.212323 -0.0641,-0.224082 -0.0565,-0.23589 -0.0494,-0.247651 -0.042,-0.259411 -0.0345,-0.27122 h 13.84473 v -0.780634 l -0.008,-0.584504 -0.0245,-0.565889 -0.0406,-0.547279 -0.0571,-0.528659 -0.073,-0.510039 -0.0896,-0.491434 -0.10558,-0.472813 -0.1221,-0.454195 -0.13812,-0.435582 -0.15412,-0.416964 -0.17114,-0.398349 -0.18664,-0.379733 -0.20267,-0.363165 -0.21718,-0.348547 -0.23269,-0.333936 -0.24669,-0.319319 -0.26222,-0.304713 -0.27673,-0.290099 -0.29172,-0.275484 -0.30625,-0.260872 -0.32127,-0.246265 -0.33626,-0.231648 -0.3513,-0.217031 -0.36579,-0.202429 -0.38432,-0.186983 -0.40733,-0.170708 -0.42985,-0.154475 -0.45237,-0.138212 -0.47538,-0.12195 -0.49741,-0.105686 -0.52041,-0.08942 -0.54294,-0.07316 -0.56547,-0.05695 -0.58797,-0.04064 -0.61099,-0.02437 -0.63353,-0.0082 -0.78012,0.01816 -0.75162,0.05439 -0.72308,0.09072 -0.69456,0.127053 -0.66554,0.163282 -0.63702,0.199613 -0.60849,0.235891 -0.57999,0.272156 -0.55144,0.308465 -0.52242,0.344755 -0.49389,0.381044 -0.46539,0.417334 -0.43235,0.446673 -0.39481,0.469054 -0.35679,0.49144 -0.31977,0.513837 -0.28173,0.53621 -0.2442,0.558606 -0.20666,0.580992 -0.16914,0.603371 -0.1316,0.625757 -0.0941,0.648152 -0.0566,0.670534 -0.0185,0.692923 0.009,0.489501 0.0285,0.478774 0.0465,0.46806 0.0656,0.457346 0.0846,0.446613 0.10308,0.435903 0.1216,0.425146 0.14061,0.414485 0.15913,0.403728 0.17814,0.393018 0.19666,0.382312 0.21518,0.37155 0.22969,0.357991 0.23969,0.341478 0.2492,0.324963 0.25922,0.30845 0.26871,0.291987 0.27822,0.275474 0.28874,0.25901 0.29824,0.242497 0.30775,0.225984 0.31775,0.209519 0.32727,0.193007 0.33728,0.176493 0.35279,0.161231 0.3738,0.14727 0.39532,0.133209 0.41633,0.119146 0.43787,0.105185 0.45887,0.09112 0.47989,0.07711 0.50141,0.0631 0.52242,0.04909 0.54344,0.03503 0.56496,0.02107 0.58598,0.007 z m -4.01627,-11.003479 0.0315,-0.26309 0.0375,-0.252029 0.0441,-0.240941 0.0506,-0.229875 0.0571,-0.218798 0.0635,-0.20772 0.0695,-0.196648 0.0761,-0.185575 0.0821,-0.174497 0.0886,-0.163425 0.0951,-0.152345 0.10157,-0.14127 0.16865,-0.208691 0.17764,-0.190541 0.18716,-0.172393 0.19615,-0.154246 0.20567,-0.1361 0.21417,-0.117957 0.22368,-0.0998 0.2332,-0.08167 0.2422,-0.06351 0.2512,-0.04537 0.26071,-0.02722 0.26972,-0.0091 0.23369,0.006 0.22568,0.01804 0.21868,0.03005 0.21067,0.04207 0.20317,0.05409 0.19515,0.06612 0.18765,0.07813 0.18015,0.09015 0.17264,0.102169 0.16464,0.114193 0.15712,0.126207 0.14962,0.138237 0.14061,0.152093 0.13211,0.167892 0.1221,0.183672 0.1131,0.199464 0.10408,0.215263 0.0941,0.231046 0.0851,0.246843 0.0761,0.262628 0.0665,0.278421 0.0571,0.29421 0.0481,0.310005 0.0386,0.325784 z m -97.36652,11.022694 0.4729,-0.01731 0.45887,-0.02887 0.44436,-0.04043 0.42934,-0.05194 0.41535,-0.0635 0.40032,-0.07501 0.38631,-0.08657 0.3718,-0.09813 0.35679,-0.109689 0.34278,-0.121198 0.32827,-0.132759 0.31626,-0.143215 0.30675,-0.152525 0.29724,-0.161831 0.28723,-0.171139 0.27823,-0.180445 0.26822,-0.189755 0.2592,-0.199062 0.24921,-0.208368 0.23969,-0.217677 0.23019,-0.226984 0.22117,-0.236292 0.21118,-0.2456 0.20166,-0.254106 0.19166,-0.261763 0.18215,-0.269417 0.17263,-0.277076 0.16314,-0.28478 0.15312,-0.292388 0.14412,-0.300043 0.1336,-0.3077 0.12461,-0.315356 0.11459,-0.323012 0.10508,-0.330669 0.0951,-0.338324 -6.56633,-0.746606 -0.0796,0.235191 -0.0861,0.224783 -0.0926,0.214473 -0.0991,0.204066 -0.10509,0.193657 -0.11208,0.183349 -0.1186,0.172941 -0.12511,0.162631 -0.1311,0.152224 -0.13811,0.141815 -0.14412,0.131508 -0.15112,0.121098 -0.15713,0.111089 -0.16314,0.101432 -0.16913,0.09177 -0.17515,0.08212 -0.18114,0.07246 -0.18714,0.0628 -0.19317,0.05314 -0.19916,0.04348 -0.20517,0.03378 -0.21117,0.02416 -0.21716,0.01451 -0.2232,0.0048 -0.26771,-0.008 -0.25921,-0.02402 -0.2517,-0.04009 -0.2432,-0.0561 -0.23569,-0.07206 -0.22719,-0.08817 -0.21967,-0.104134 -0.21116,-0.120198 -0.20368,-0.13616 -0.19515,-0.152223 -0.18716,-0.168287 -0.17964,-0.18425 -0.16814,-0.199712 -0.15313,-0.214524 -0.13911,-0.229386 -0.1241,-0.244248 -0.10958,-0.25911 -0.0946,-0.273923 -0.0805,-0.288784 -0.0656,-0.303597 -0.0515,-0.318478 -0.0365,-0.333316 -0.0214,-0.348152 -0.007,-0.363004 0.007,-0.406936 0.022,-0.389371 0.037,-0.371817 0.0515,-0.354252 0.0661,-0.336698 0.0811,-0.31913 0.0956,-0.301584 0.1106,-0.28401 0.1251,-0.266462 0.14011,-0.248898 0.15463,-0.231335 0.16914,-0.213781 0.18115,-0.196503 0.19065,-0.179404 0.19916,-0.162326 0.20867,-0.145235 0.21767,-0.128154 0.22669,-0.111061 0.23568,-0.09398 0.24471,-0.07689 0.2537,-0.0598 0.26321,-0.04272 0.27173,-0.02562 0.28122,-0.0085 0.22267,0.004 0.21468,0.0122 0.20667,0.02032 0.19966,0.02846 0.19166,0.0366 0.18415,0.04472 0.17665,0.05285 0.16863,0.06099 0.16113,0.06913 0.15362,0.07725 0.14562,0.08539 0.13811,0.09351 0.13112,0.101484 0.12359,0.109388 0.1171,0.117281 0.11009,0.125186 0.10308,0.133082 0.0961,0.140984 0.0891,0.148878 0.0821,0.156774 0.0751,0.164674 0.0686,0.172581 0.0611,0.180477 0.0545,0.188367 6.49828,-0.865446 -0.16515,-0.496032 -0.18414,-0.475759 -0.20367,-0.455493 -0.22268,-0.435229 -0.2422,-0.414961 -0.26121,-0.394701 -0.28022,-0.374424 -0.29974,-0.354163 -0.31876,-0.333894 -0.33777,-0.313635 -0.35729,-0.293359 -0.37631,-0.273096 -0.40082,-0.252049 -0.42935,-0.230128 -0.45888,-0.208189 -0.4879,-0.186301 -0.51691,-0.164383 -0.54595,-0.142466 -0.57547,-0.120548 -0.60399,-0.09863 -0.63351,-0.07671 -0.66254,-0.0548 -0.69157,-0.03287 -0.72057,-0.01095 -0.51793,0.0057 -0.50241,0.01737 -0.48639,0.02882 -0.47087,0.04042 -0.45487,0.05194 -0.43936,0.0635 -0.42334,0.07501 -0.40734,0.08657 -0.39181,0.09813 -0.37581,0.109689 -0.36029,0.121199 -0.34428,0.132758 -0.21167,0.09153 -0.21068,0.09918 -0.20966,0.106826 -0.20917,0.114498 -0.20767,0.122145 -0.20717,0.1298 -0.20566,0.137456 -0.20518,0.145113 -0.20416,0.152774 -0.20316,0.160425 -0.20218,0.168072 -0.20115,0.175733 -0.19716,0.181506 -0.19015,0.185401 -0.18315,0.189283 -0.17615,0.193168 -0.16863,0.197064 -0.16214,0.200948 -0.15462,0.204842 -0.14762,0.208725 -0.14061,0.212611 -0.13361,0.216511 -0.1266,0.220394 -0.11961,0.224277 -0.15162,0.314685 -0.1386,0.32766 -0.12561,0.340624 -0.11209,0.353589 -0.0991,0.366554 -0.0856,0.379513 -0.0725,0.392483 -0.0596,0.40545 -0.046,0.418415 -0.0331,0.431379 -0.0201,0.444346 -0.007,0.457312 0.005,0.436644 0.016,0.422032 0.0275,0.407425 0.0375,0.39284 0.049,0.378207 0.0596,0.363595 0.0706,0.349033 0.0811,0.334371 0.0921,0.31981 0.10308,0.305197 0.1141,0.290586 0.12459,0.275973 0.13412,0.265767 0.14262,0.25996 0.15062,0.254207 0.15862,0.248452 0.16764,0.242647 0.17514,0.236892 0.18365,0.231087 0.19216,0.225382 0.20016,0.219579 0.20867,0.213774 0.21667,0.208018 0.22469,0.202264 0.23268,0.194759 0.24019,0.18555 0.24771,0.176344 0.2552,0.167185 0.26222,0.157978 0.26973,0.148771 0.27771,0.139613 0.28473,0.130406 0.29174,0.121248 0.29974,0.112041 0.30675,0.102834 0.31476,0.09368 0.32477,0.08537 0.33777,0.07791 0.35179,0.07051 0.36429,0.0631 0.37831,0.0557 0.39131,0.04824 0.40482,0.04083 0.41785,0.03338 0.43135,0.02596 0.44486,0.01857 0.45788,0.01116 0.47137,0.0038 z m 44.88343,-0.02947 0.76764,-0.05529 0.7386,-0.09223 0.70856,-0.129054 0.67955,-0.165985 0.65053,-0.202815 0.62101,-0.239744 0.59148,-0.276574 0.56196,-0.313504 0.53292,-0.350385 0.50341,-0.387214 0.47439,-0.424146 0.44036,-0.453016 0.40182,-0.473836 0.3643,-0.494701 0.32526,-0.515517 0.28723,-0.536437 0.2487,-0.557251 0.21068,-0.578119 0.17264,-0.598986 0.13411,-0.619804 0.0956,-0.640684 0.0575,-0.661532 0.019,-0.682389 -0.0155,-0.608328 -0.0461,-0.592071 -0.0776,-0.575807 -0.10809,-0.559549 -0.13861,-0.543292 -0.17014,-0.527028 -0.20065,-0.510775 -0.2312,-0.49451 -0.26272,-0.478249 -0.29323,-0.461993 -0.32427,-0.445728 -0.35479,-0.429478 -0.47938,-0.501332 -0.51592,-0.457741 -0.55296,-0.414152 -0.58947,-0.370545 -0.6265,-0.326965 -0.66305,-0.283375 -0.70007,-0.239745 -0.7366,-0.19616 -0.77312,-0.152623 -0.81016,-0.108989 -0.84718,-0.06536 -0.88372,-0.02182 -0.77513,0.01857 -0.74861,0.0557 -0.72109,0.09278 -0.69406,0.129905 -0.66704,0.167035 -0.64002,0.204117 -0.613,0.241295 -0.58547,0.278356 -0.55845,0.315496 -0.53193,0.352611 -0.50441,0.389727 -0.47739,0.426845 -0.44437,0.455431 -0.40582,0.475585 -0.3668,0.495732 -0.32876,0.515884 -0.28974,0.536025 -0.2512,0.556177 -0.21268,0.576328 -0.17364,0.596478 -0.13561,0.616616 -0.0966,0.636771 -0.0575,0.656923 -0.0194,0.67706 0.0231,0.726275 0.0686,0.702715 0.1141,0.679121 0.16013,0.655632 0.20566,0.632013 0.25121,0.608443 0.29724,0.584875 0.34278,0.561356 0.38881,0.537736 0.43436,0.514218 0.47989,0.490597 0.52592,0.467079 0.45838,0.352336 0.48139,0.321661 0.50441,0.291037 0.52741,0.260411 0.55095,0.229786 0.57396,0.199113 0.59649,0.168487 0.62001,0.137861 0.64353,0.107237 0.66603,0.07656 0.68906,0.04599 0.71258,0.01532 z m -1.0053,-4.655578 -0.2357,-0.02402 -0.22869,-0.04009 -0.22167,-0.0561 -0.21468,-0.07211 -0.20767,-0.08812 -0.20067,-0.104135 -0.19416,-0.120198 -0.18664,-0.13616 -0.18015,-0.152223 -0.17314,-0.168287 -0.16613,-0.184249 -0.15563,-0.201014 -0.14212,-0.218427 -0.1291,-0.235892 -0.1151,-0.253305 -0.10158,-0.270769 -0.0881,-0.288235 -0.0745,-0.305647 -0.061,-0.323077 -0.047,-0.340532 -0.034,-0.357971 -0.0206,-0.375409 -0.007,-0.392859 0.007,-0.38748 0.0206,-0.37063 0.034,-0.353777 0.0476,-0.336929 0.0615,-0.320079 0.0755,-0.303222 0.0886,-0.286381 0.10258,-0.26952 0.1161,-0.252679 0.1301,-0.235824 0.14311,-0.218974 0.15714,-0.202129 0.16763,-0.185629 0.17515,-0.169486 0.18213,-0.153339 0.18966,-0.137202 0.19716,-0.121063 0.20418,-0.10492 0.21117,-0.08878 0.21917,-0.07264 0.22568,-0.05649 0.23369,-0.04036 0.2407,-0.02421 0.2477,-0.0081 0.2347,0.008 0.22768,0.02386 0.22168,0.03978 0.21568,0.05567 0.20866,0.0716 0.20267,0.0875 0.19616,0.103409 0.18965,0.119312 0.18365,0.13523 0.17715,0.151128 0.17064,0.167044 0.16412,0.182949 0.15463,0.199167 0.14112,0.21579 0.12759,0.232398 0.1141,0.249013 0.10058,0.265626 0.0876,0.282238 0.0736,0.298858 0.0605,0.315466 0.047,0.33209 0.0335,0.348693 0.0201,0.365316 0.007,0.381925 -0.007,0.408961 -0.02,0.389882 -0.0335,0.37079 -0.0465,0.351711 -0.0601,0.332605 -0.0731,0.313555 -0.0866,0.294439 -0.10008,0.275373 -0.11309,0.256308 -0.1266,0.237193 -0.13962,0.218126 -0.15312,0.199011 -0.16363,0.181548 -0.17065,0.165785 -0.17863,0.149971 -0.18566,0.13416 -0.19315,0.118445 -0.20067,0.102584 -0.20767,0.08687 -0.21567,0.07101 -0.22268,0.05524 -0.23019,0.03948 -0.23769,0.02367 -0.2452,0.0079 z"
     stroke="#000000"
     fill="#d3d3d3"
     stroke-width="0.250203"
     id="path1" />
  <metadata
     id="metadata1">
    <rdf:RDF>
      <cc:Work
         rdf:about="">
        <dc:title>OpenSCAD Model</dc:title>
      </cc:Work>
    </rdf:RDF>
  </metadata>
</svg>
