<?xml version="1.0" encoding="UTF-8" standalone="no"?>
<svg
   width="635mm"
   height="154mm"
   viewBox="-410 -77 635 154"
   version="1.1"
   id="svg1"
   sodipodi:docname="schome1fpv-logo-betaflight.svg"
   inkscape:version="1.3.2 (091e20e, 2023-11-25)"
   xmlns:inkscape="http://www.inkscape.org/namespaces/inkscape"
   xmlns:sodipodi="http://sodipodi.sourceforge.net/DTD/sodipodi-0.dtd"
   xmlns="http://www.w3.org/2000/svg"
   xmlns:svg="http://www.w3.org/2000/svg"
   xmlns:rdf="http://www.w3.org/1999/02/22-rdf-syntax-ns#"
   xmlns:cc="http://creativecommons.org/ns#"
   xmlns:dc="http://purl.org/dc/elements/1.1/">
  <defs
     id="defs1" />
  <sodipodi:namedview
     id="namedview1"
     pagecolor="#ffffff"
     bordercolor="#000000"
     borderopacity="0.25"
     inkscape:showpageshadow="2"
     inkscape:pageopacity="0.0"
     inkscape:pagecheckerboard="0"
     inkscape:deskcolor="#d1d1d1"
     inkscape:document-units="mm"
     inkscape:zoom="0.34416667"
     inkscape:cx="1198.5472"
     inkscape:cy="290.5569"
     inkscape:window-width="1312"
     inkscape:window-height="449"
     inkscape:window-x="0"
     inkscape:window-y="25"
     inkscape:window-maximized="0"
     inkscape:current-layer="svg1" />
  <title
     id="title1">OpenSCAD Model</title>
  <path
     d=" M -42.0079,76.8384 L -39.8602,76.5432 L -37.7375,76.1021 L -35.65,75.5172 L -33.6072,74.7912 L -31.6187,73.9274  L -29.6938,72.93 L -27.8415,71.8036 L -26.0703,70.5534 L -24.3886,69.1852 L -22.8042,67.7055 L -21.3244,66.121  L -19.9563,64.4393 L -18.7061,62.6682 L -17.5796,60.8158 L -16.5822,58.8909 L -15.7185,56.9024 L -14.9925,54.8597  L -14.4076,52.7721 L -13.9665,50.6495 L -13.6713,48.5017 L -13.5233,46.3388 L -13.5233,44.1708 L -13.6713,42.0079  L -13.9665,39.8602 L -14.4076,37.7375 L -14.9925,35.65 L -15.7185,33.6072 L -16.5822,31.6187 L -17.5796,29.6938  L -18.7061,27.8415 L -19.9563,26.0703 L -20.1614,25.8182 L -13.1387,18.7955 L -13.0388,18.7023 L -12.9329,18.6161  L -12.8214,18.5374 L -12.7047,18.4664 L -12.5834,18.4036 L -12.4581,18.3492 L -12.3295,18.3034 L -12.198,18.2666  L -12.0643,18.2388 L -11.929,18.2202 L -11.7927,18.2109 L -11.6562,18.2109 L -11.5199,18.2202 L -11.3846,18.2388  L -11.2509,18.2666 L -11.1194,18.3034 L -10.9907,18.3492 L -10.8655,18.4036 L -10.7442,18.4664 L -10.6275,18.5374  L -10.516,18.6161 L -10.41,18.7023 L -10.3102,18.7955 L -10.217,18.8953 L -10.1308,19.0013 L -10.0521,19.1128  L -9.98112,19.2295 L -9.91829,19.3508 L -9.86389,19.476 L -9.81815,19.6047 L -9.78131,19.7362 L -9.75352,19.8699  L -9.73492,20.0052 L -9.72729,20.1028 L -9.29594,28.1637 L -9.2921,28.2127 L -9.28207,28.3103 L -9.27277,28.378  L -9.25768,28.4656 L -9.2438,28.5324 L -9.22284,28.6184 L -9.20432,28.6845 L -9.17751,28.769 L -9.15471,28.8331  L -9.12213,28.9157 L -9.09482,28.9786 L -9.05688,29.0583 L -9.0253,29.1193 L -8.9819,29.1965 L -8.94647,29.2548  L -8.89778,29.329 L -8.85834,29.3849 L -8.80481,29.4554 L -8.76166,29.5085 L -8.70343,29.5753 L -8.65671,29.6253  L -8.59409,29.6879 L -8.54401,29.7347 L -8.47717,29.793 L -8.42432,29.836 L -8.35364,29.8896 L -8.29776,29.929  L -8.22366,29.9776 L -8.16518,30.0132 L -8.08798,30.0566 L -8.02721,30.0881 L -7.94714,30.1261 L -7.88457,30.1533  L -7.80219,30.1858 L -7.73749,30.2088 L -7.65327,30.2355 L -7.58714,30.2541 L -7.50104,30.275 L -7.43445,30.2889  L -7.34691,30.304 L -7.27896,30.3133 L -7.19096,30.3224 L -7.12282,30.327 L -7.01761,30.3306 L -6.96565,30.3315  L -6.82927,30.3385 L -6.69368,30.3548 L -6.55952,30.3803 L -6.42741,30.4149 L -6.29797,30.4585 L -6.17181,30.5108  L -6.04951,30.5715 L -5.93164,30.6405 L -5.81876,30.7173 L -5.71136,30.8017 L -5.61,30.8932 L -5.51511,30.9914  L -5.42712,31.0959 L -5.3465,31.2061 L -5.27356,31.3215 L -5.20869,31.4417 L -5.15216,31.566 L -5.10425,31.6939  L -5.06519,31.8248 L -5.03513,31.958 L -5.01424,32.093 L -5.00261,32.229 L -5,32.3312 L -5,37.0958  L -5.00467,37.2323 L -5.01863,37.3681 L -5.04182,37.5027 L -5.07417,37.6354 L -5.11548,37.7656 L -5.16557,37.8926  L -5.22423,38.0159 L -5.29117,38.135 L -5.36606,38.2492 L -5.44858,38.358 L -5.53833,38.4609 L -5.63503,38.5576  L -5.7066,38.6244 L -5.7534,38.6746 L -5.7964,38.7274 L -5.83565,38.783 L -5.87128,38.8416 L -5.90242,38.9017  L -5.92964,38.9643 L -5.95267,39.0291 L -5.97096,39.0944 L -5.98492,39.1617 L -5.99416,39.2289 L -5.99883,39.2971  L -5.99883,39.3653 L -5.99414,39.4338 L -5.98489,39.501 L -5.97096,39.568 L -5.95267,39.6333 L -5.92964,39.6981  L -5.90242,39.7607 L -5.87117,39.821 L -5.83566,39.8794 L -5.79633,39.9351 L -5.75325,39.9881 L -5.70676,40.0378  L -5.65665,40.0846 L -5.60379,40.1276 L -5.54817,40.1669 L -5.48958,40.2025 L -5.42949,40.2336 L -5.36687,40.2609  L -5.30208,40.2839 L -5.23677,40.3022 L -5.16953,40.3161 L -5.10233,40.3254 L -5.03381,40.3301 L -5.01762,40.3306  L -4.98253,40.3312 L 4.98253,40.3312 L 5.01762,40.3306 L 5.03381,40.3301 L 5.10254,40.3254 L 5.16974,40.3161  L 5.23677,40.3022 L 5.30208,40.2839 L 5.36687,40.2609 L 5.42949,40.2336 L 5.48978,40.2024 L 5.54817,40.1669  L 5.60406,40.1274 L 5.65665,40.0846 L 5.70676,40.0378 L 5.75334,39.988 L 5.79636,39.9351 L 5.83566,39.8794  L 5.87128,39.8208 L 5.90242,39.7607 L 5.92964,39.6981 L 5.95267,39.6333 L 5.97096,39.568 L 5.98492,39.5007  L 5.99416,39.4335 L 5.99883,39.3653 L 5.99883,39.2971 L 5.99414,39.2287 L 5.98489,39.1615 L 5.97096,39.0944  L 5.95267,39.0291 L 5.92964,38.9643 L 5.90242,38.9017 L 5.87117,38.8414 L 5.83565,38.783 L 5.79619,38.7271  L 5.7534,38.6746 L 5.7066,38.6244 L 5.63503,38.5576 L 5.53845,38.461 L 5.44868,38.3581 L 5.36617,38.2493  L 5.29126,38.1351 L 5.22432,38.0161 L 5.16565,37.8928 L 5.11554,37.7657 L 5.07422,37.6356 L 5.04187,37.5029  L 5.01865,37.3683 L 5.00467,37.2325 L 5,37.0958 L 5,32.3312 L 5.00467,32.1947 L 5.01863,32.0589  L 5.04182,31.9243 L 5.07417,31.7916 L 5.11548,31.6615 L 5.16557,31.5344 L 5.22423,31.4111 L 5.29117,31.2921  L 5.36606,31.1779 L 5.44858,31.069 L 5.53833,30.9661 L 5.63489,30.8696 L 5.73782,30.7798 L 5.84663,30.6973  L 5.96083,30.6224 L 6.07986,30.5555 L 6.2032,30.4968 L 6.33025,30.4467 L 6.4604,30.4054 L 6.59309,30.373  L 6.72766,30.3499 L 6.86351,30.3359 L 6.96565,30.3315 L 7.01761,30.3306 L 7.12282,30.327 L 7.19096,30.3224  L 7.27896,30.3133 L 7.34691,30.304 L 7.43445,30.2889 L 7.50104,30.275 L 7.58714,30.2541 L 7.65327,30.2355  L 7.73749,30.2088 L 7.80219,30.1858 L 7.88457,30.1533 L 7.94714,30.1261 L 8.02721,30.0881 L 8.08798,30.0566  L 8.16518,30.0132 L 8.22366,29.9776 L 8.29776,29.929 L 8.35364,29.8896 L 8.42432,29.836 L 8.47717,29.793  L 8.54401,29.7347 L 8.59409,29.6879 L 8.65671,29.6253 L 8.70343,29.5753 L 8.76166,29.5085 L 8.80481,29.4554  L 8.85834,29.3849 L 8.89778,29.329 L 8.94647,29.2548 L 8.9819,29.1965 L 9.0253,29.1193 L 9.05688,29.0583  L 9.09482,28.9786 L 9.12213,28.9157 L 9.15471,28.8331 L 9.17751,28.769 L 9.20432,28.6845 L 9.22284,28.6184  L 9.2438,28.5324 L 9.25768,28.4656 L 9.27277,28.378 L 9.28207,28.3103 L 9.2921,28.2127 L 9.29594,28.1637  L 9.72729,20.1028 L 9.73924,19.9668 L 9.76045,19.8319 L 9.79082,19.6987 L 9.83018,19.568 L 9.8784,19.4402  L 9.93521,19.316 L 10.0004,19.196 L 10.0736,19.0807 L 10.1545,18.9707 L 10.2427,18.8664 L 10.3378,18.7684  L 10.4394,18.6772 L 10.547,18.5931 L 10.66,18.5165 L 10.7781,18.4478 L 10.9005,18.3873 L 11.0268,18.3353  L 11.1563,18.2921 L 11.2885,18.2578 L 11.4227,18.2326 L 11.5584,18.2166 L 11.6948,18.2099 L 11.8313,18.2126  L 11.9673,18.2245 L 12.1023,18.2457 L 12.2354,18.2761 L 12.3662,18.3155 L 12.4939,18.3637 L 12.6181,18.4205  L 12.7381,18.4857 L 12.8534,18.5589 L 12.9635,18.6397 L 13.0677,18.728 L 13.1387,18.7955 L 20.1614,25.8182  L 19.9563,26.0703 L 18.7061,27.8415 L 17.5796,29.6938 L 16.5822,31.6187 L 15.7185,33.6072 L 14.9925,35.65  L 14.4076,37.7375 L 13.9665,39.8602 L 13.6713,42.0079 L 13.5233,44.1708 L 13.5233,46.3388 L 13.6713,48.5017  L 13.9665,50.6495 L 14.4076,52.7721 L 14.9925,54.8597 L 15.7185,56.9024 L 16.5822,58.8909 L 17.5796,60.8158  L 18.7061,62.6682 L 19.9563,64.4393 L 21.3244,66.121 L 22.8042,67.7055 L 24.3886,69.1852 L 26.0703,70.5534  L 27.8415,71.8036 L 29.6938,72.93 L 31.6187,73.9274 L 33.6072,74.7912 L 35.65,75.5172 L 37.7375,76.1021  L 39.8602,76.5432 L 42.0079,76.8384 L 44.1708,76.9863 L 46.3388,76.9863 L 48.5017,76.8384 L 50.6495,76.5432  L 52.7721,76.1021 L 54.8597,75.5172 L 56.9024,74.7912 L 58.8909,73.9274 L 60.8158,72.93 L 62.6682,71.8036  L 64.4393,70.5534 L 66.121,69.1852 L 67.7055,67.7055 L 69.1852,66.121 L 70.5534,64.4393 L 71.8036,62.6682  L 72.93,60.8158 L 73.9274,58.8909 L 74.7912,56.9024 L 75.5172,54.8597 L 76.1021,52.7721 L 76.5432,50.6495  L 76.8384,48.5017 L 76.9863,46.3388 L 76.9863,44.1708 L 76.8384,42.0079 L 76.5432,39.8602 L 76.1021,37.7375  L 75.5172,35.65 L 74.7912,33.6072 L 73.9274,31.6187 L 72.93,29.6938 L 71.8036,27.8415 L 70.5534,26.0703  L 69.1852,24.3886 L 67.7055,22.8042 L 66.121,21.3244 L 64.4393,19.9563 L 62.6682,18.7061 L 60.8158,17.5796  L 58.8909,16.5822 L 56.9024,15.7185 L 54.8597,14.9925 L 52.7721,14.4076 L 50.6495,13.9665 L 48.5017,13.6713  L 46.3388,13.5233 L 44.1708,13.5233 L 42.0079,13.6713 L 39.8602,13.9665 L 37.7375,14.4076 L 35.65,14.9925  L 33.6072,15.7185 L 31.6187,16.5822 L 29.6938,17.5796 L 27.8415,18.7061 L 26.0703,19.9563 L 25.8182,20.1614  L 18.4159,12.759 L 18.3227,12.6592 L 18.2365,12.5533 L 18.1577,12.4417 L 18.0868,12.325 L 18.0239,12.2038  L 17.9695,12.0785 L 17.9238,11.9498 L 17.887,11.8183 L 17.8592,11.6846 L 17.8406,11.5493 L 17.8313,11.4131  L 17.8313,11.2765 L 17.8406,11.1403 L 17.8592,11.005 L 17.887,10.8713 L 17.9238,10.7398 L 17.9695,10.6111  L 18.0239,10.4859 L 18.0868,10.3646 L 18.1945,10.1938 L 22.9237,3.47331 L 22.942,3.44632 L 23.1389,3.14612  L 23.1745,3.08763 L 23.3418,2.79013 L 23.3731,2.72968 L 23.5199,2.42099 L 23.5469,2.35883 L 23.6723,2.04092  L 23.6951,1.97676 L 23.7983,1.65155 L 23.8169,1.58536 L 23.8976,1.25386 L 23.9115,1.18713 L 23.9695,0.850708  L 23.9788,0.783081 L 24.0138,0.443161 L 24.0184,0.375626 L 24.0301,0.0339355 L 24.0301,-0.0339355 L 24.0184,-0.375626  L 24.0138,-0.443161 L 23.9788,-0.783081 L 23.9695,-0.850708 L 23.9115,-1.18713 L 23.8976,-1.25386 L 23.8169,-1.58536  L 23.7983,-1.65155 L 23.6951,-1.97676 L 23.6723,-2.04092 L 23.5469,-2.35883 L 23.5199,-2.42099 L 23.3731,-2.72968  L 23.3418,-2.79013 L 23.1745,-3.08763 L 23.1389,-3.14612 L 22.942,-3.44632 L 22.9237,-3.47331 L 18.1945,-10.1938  L 18.1198,-10.3081 L 18.053,-10.4273 L 17.9945,-10.5507 L 17.9446,-10.6778 L 17.9035,-10.808 L 17.8713,-10.9408  L 17.8483,-11.0754 L 17.8346,-11.2112 L 17.8301,-11.3477 L 17.835,-11.4842 L 17.8491,-11.62 L 17.8725,-11.7546  L 17.905,-11.8872 L 17.9465,-12.0173 L 17.9968,-12.1443 L 18.0557,-12.2675 L 18.1228,-12.3865 L 18.1978,-12.5005  L 18.2805,-12.6093 L 18.4159,-12.759 L 25.8182,-20.1614 L 26.0703,-19.9563 L 27.8415,-18.7061 L 29.6938,-17.5796  L 31.6187,-16.5822 L 33.6072,-15.7185 L 35.65,-14.9925 L 37.7375,-14.4076 L 39.8602,-13.9665 L 42.0079,-13.6713  L 44.1708,-13.5233 L 46.3388,-13.5233 L 48.5017,-13.6713 L 50.6495,-13.9665 L 52.7721,-14.4076 L 54.8597,-14.9925  L 56.9024,-15.7185 L 58.8909,-16.5822 L 60.8158,-17.5796 L 62.6682,-18.7061 L 64.4393,-19.9563 L 66.121,-21.3244  L 67.7055,-22.8042 L 69.1852,-24.3886 L 70.5534,-26.0703 L 71.8036,-27.8415 L 72.93,-29.6938 L 73.9274,-31.6187  L 74.7912,-33.6072 L 75.5172,-35.65 L 76.1021,-37.7375 L 76.5432,-39.8602 L 76.8384,-42.0079 L 76.9863,-44.1708  L 76.9863,-46.3388 L 76.8384,-48.5017 L 76.5432,-50.6495 L 76.1021,-52.7721 L 75.5172,-54.8597 L 74.7912,-56.9024  L 73.9274,-58.8909 L 72.93,-60.8158 L 71.8036,-62.6682 L 70.5534,-64.4393 L 69.1852,-66.121 L 67.7055,-67.7055  L 66.121,-69.1852 L 64.4393,-70.5534 L 62.6682,-71.8036 L 60.8158,-72.93 L 58.8909,-73.9274 L 56.9024,-74.7912  L 54.8597,-75.5172 L 52.7721,-76.1021 L 50.6495,-76.5432 L 48.5017,-76.8384 L 46.3388,-76.9863 L 44.1708,-76.9863  L 42.0079,-76.8384 L 39.8602,-76.5432 L 37.7375,-76.1021 L 35.65,-75.5172 L 33.6072,-74.7912 L 31.6187,-73.9274  L 29.6938,-72.93 L 27.8415,-71.8036 L 26.0703,-70.5534 L 24.3886,-69.1852 L 22.8042,-67.7055 L 21.3244,-66.121  L 19.9563,-64.4393 L 18.7061,-62.6682 L 17.5796,-60.8158 L 16.5822,-58.8909 L 15.7185,-56.9024 L 14.9925,-54.8597  L 14.4076,-52.7721 L 13.9665,-50.6495 L 13.6713,-48.5017 L 13.5233,-46.3388 L 13.5233,-44.1708 L 13.6713,-42.0079  L 13.9665,-39.8602 L 14.4076,-37.7375 L 14.9925,-35.65 L 15.7185,-33.6072 L 16.5822,-31.6187 L 17.5796,-29.6938  L 18.7061,-27.8415 L 19.9563,-26.0703 L 20.1614,-25.8182 L 15.4239,-21.0807 L 15.3241,-20.9875 L 15.2181,-20.9013  L 15.1066,-20.8226 L 14.9899,-20.7516 L 14.8686,-20.6888 L 14.7433,-20.6344 L 14.6147,-20.5886 L 14.4832,-20.5518  L 14.3495,-20.524 L 14.2142,-20.5054 L 14.0779,-20.4961 L 13.9414,-20.4961 L 13.8051,-20.5054 L 13.6698,-20.524  L 13.5361,-20.5518 L 13.4046,-20.5886 L 13.2759,-20.6344 L 13.1507,-20.6888 L 13.0294,-20.7516 L 12.9127,-20.8226  L 12.8012,-20.9013 L 12.6952,-20.9875 L 12.5954,-21.0807 L 12.5022,-21.1805 L 12.416,-21.2865 L 12.3373,-21.398  L 12.2663,-21.5147 L 12.2035,-21.636 L 12.1491,-21.7612 L 12.1033,-21.8899 L 12.0665,-22.0214 L 12.0387,-22.1551  L 12.0201,-22.2904 L 12.0108,-22.4266 L 12.0125,-22.6018 L 12.2412,-26.8752 L 12.2488,-26.9728 L 12.2678,-27.1579  L 12.2725,-27.2258 L 12.2988,-27.9973 L 12.2988,-28.0652 L 12.2725,-28.8367 L 12.2678,-28.9044 L 12.1889,-29.6723  L 12.1796,-29.7396 L 12.0485,-30.5001 L 12.0347,-30.5668 L 11.852,-31.3165 L 11.8336,-31.3822 L 11.6,-32.118  L 11.5774,-32.1817 L 11.2942,-32.8999 L 11.267,-32.9625 L 10.9357,-33.6591 L 10.9042,-33.7198 L 10.526,-34.3924  L 10.4907,-34.4505 L 10.0673,-35.096 L 10.0283,-35.1513 L 9.56169,-35.7666 L 9.51898,-35.8191 L 9.01169,-36.4009  L 8.96513,-36.4508 L 8.41954,-36.9964 L 8.36969,-37.0429 L 7.78806,-37.5501 L 7.73517,-37.5931 L 7.12054,-38.0592  L 7.06447,-38.0988 L 6.41954,-38.5218 L 6.36086,-38.5574 L 5.68869,-38.9354 L 5.62785,-38.9669 L 4.93144,-39.2981  L 4.86844,-39.3255 L 4.15044,-39.6086 L 4.08682,-39.6312 L 3.35098,-39.8648 L 3.28525,-39.8832 L 2.53569,-40.0659  L 2.46892,-40.0797 L 1.70822,-40.2109 L 1.6411,-40.2201 L 0.873306,-40.299 L 0.805389,-40.3037 L 0.0339355,-40.3301  L -0.0339355,-40.3301 L -0.805389,-40.3037 L -0.873306,-40.299 L -1.6411,-40.2201 L -1.70822,-40.2109 L -2.46892,-40.0797  L -2.53569,-40.0659 L -3.28525,-39.8832 L -3.35098,-39.8648 L -4.08682,-39.6312 L -4.15044,-39.6086 L -4.86844,-39.3255  L -4.93144,-39.2981 L -5.62785,-38.9669 L -5.68869,-38.9354 L -6.36086,-38.5574 L -6.41954,-38.5218 L -7.06447,-38.0988  L -7.12054,-38.0592 L -7.73517,-37.5931 L -7.78806,-37.5501 L -8.36969,-37.0429 L -8.41954,-36.9964 L -8.96513,-36.4508  L -9.01169,-36.4009 L -9.51898,-35.8191 L -9.56169,-35.7666 L -10.0283,-35.1513 L -10.0673,-35.096 L -10.4907,-34.4505  L -10.526,-34.3924 L -10.9042,-33.7198 L -10.9357,-33.6591 L -11.267,-32.9625 L -11.2942,-32.8999 L -11.5774,-32.1817  L -11.6,-32.118 L -11.8336,-31.3822 L -11.852,-31.3165 L -12.0347,-30.5668 L -12.0485,-30.5001 L -12.1796,-29.7396  L -12.1889,-29.6723 L -12.2678,-28.9044 L -12.2725,-28.8367 L -12.2988,-28.0652 L -12.2988,-27.9973 L -12.2725,-27.2258  L -12.2678,-27.1579 L -12.2488,-26.9728 L -12.2412,-26.8752 L -12.0125,-22.6018 L -12.0099,-22.4653 L -12.0166,-22.3289  L -12.0325,-22.1932 L -12.0577,-22.059 L -12.092,-21.9268 L -12.1353,-21.7973 L -12.1872,-21.671 L -12.2477,-21.5486  L -12.3164,-21.4305 L -12.393,-21.3174 L -12.4771,-21.2099 L -12.5684,-21.1083 L -12.6664,-21.0132 L -12.7706,-20.9249  L -12.8806,-20.8441 L -12.9959,-20.7709 L -13.116,-20.7057 L -13.2401,-20.6489 L -13.3679,-20.6007 L -13.4987,-20.5613  L -13.6318,-20.5309 L -13.7667,-20.5097 L -13.9028,-20.4978 L -14.0393,-20.4951 L -14.1757,-20.5018 L -14.3113,-20.5178  L -14.4456,-20.543 L -14.5777,-20.5773 L -14.7073,-20.6205 L -14.8336,-20.6725 L -14.956,-20.733 L -15.0741,-20.8017  L -15.1871,-20.8783 L -15.2947,-20.9624 L -15.4239,-21.0807 L -20.1614,-25.8182 L -19.9563,-26.0703 L -18.7061,-27.8415  L -17.5796,-29.6938 L -16.5822,-31.6187 L -15.7185,-33.6072 L -14.9925,-35.65 L -14.4076,-37.7375 L -13.9665,-39.8602  L -13.6713,-42.0079 L -13.5233,-44.1708 L -13.5233,-46.3388 L -13.6713,-48.5017 L -13.9665,-50.6495 L -14.4076,-52.7721  L -14.9925,-54.8597 L -15.7185,-56.9024 L -16.5822,-58.8909 L -17.5796,-60.8158 L -18.7061,-62.6682 L -19.9563,-64.4393  L -21.3244,-66.121 L -22.8042,-67.7055 L -24.3886,-69.1852 L -26.0703,-70.5534 L -27.8415,-71.8036 L -29.6938,-72.93  L -31.6187,-73.9274 L -33.6072,-74.7912 L -35.65,-75.5172 L -37.7375,-76.1021 L -39.8602,-76.5432 L -42.0079,-76.8384  L -44.1708,-76.9863 L -46.3388,-76.9863 L -48.5017,-76.8384 L -50.6495,-76.5432 L -52.7721,-76.1021 L -54.8597,-75.5172  L -56.9024,-74.7912 L -58.8909,-73.9274 L -60.8158,-72.93 L -62.6682,-71.8036 L -64.4393,-70.5534 L -66.121,-69.1852  L -67.7055,-67.7055 L -69.1852,-66.121 L -70.5534,-64.4393 L -71.8036,-62.6682 L -72.93,-60.8158 L -73.9274,-58.8909  L -74.7912,-56.9024 L -75.5172,-54.8597 L -76.1021,-52.7721 L -76.5432,-50.6495 L -76.8384,-48.5017 L -76.9863,-46.3388  L -76.9863,-44.1708 L -76.8384,-42.0079 L -76.5432,-39.8602 L -76.1021,-37.7375 L -75.5172,-35.65 L -74.7912,-33.6072  L -73.9274,-31.6187 L -72.93,-29.6938 L -71.8036,-27.8415 L -70.5534,-26.0703 L -69.1852,-24.3886 L -67.7055,-22.8042  L -66.121,-21.3244 L -64.4393,-19.9563 L -62.6682,-18.7061 L -60.8158,-17.5796 L -58.8909,-16.5822 L -56.9024,-15.7185  L -54.8597,-14.9925 L -52.7721,-14.4076 L -50.6495,-13.9665 L -48.5017,-13.6713 L -46.3388,-13.5233 L -44.1708,-13.5233  L -42.0079,-13.6713 L -39.8602,-13.9665 L -37.7375,-14.4076 L -35.65,-14.9925 L -33.6072,-15.7185 L -31.6187,-16.5822  L -29.6938,-17.5796 L -27.8415,-18.7061 L -26.0703,-19.9563 L -25.8182,-20.1614 L -18.4159,-12.759 L -18.3227,-12.6592  L -18.2365,-12.5533 L -18.1577,-12.4417 L -18.0868,-12.325 L -18.0239,-12.2038 L -17.9695,-12.0785 L -17.9238,-11.9498  L -17.887,-11.8183 L -17.8592,-11.6846 L -17.8406,-11.5493 L -17.8313,-11.4131 L -17.8313,-11.2765 L -17.8406,-11.1403  L -17.8592,-11.005 L -17.887,-10.8713 L -17.9238,-10.7398 L -17.9695,-10.6111 L -18.0239,-10.4859 L -18.0868,-10.3646  L -18.1945,-10.1938 L -22.9237,-3.47331 L -22.942,-3.44632 L -23.1389,-3.14612 L -23.1745,-3.08763 L -23.3418,-2.79013  L -23.3731,-2.72968 L -23.5199,-2.42099 L -23.5469,-2.35883 L -23.6723,-2.04092 L -23.6951,-1.97676 L -23.7983,-1.65155  L -23.8169,-1.58536 L -23.8976,-1.25386 L -23.9115,-1.18713 L -23.9695,-0.850708 L -23.9788,-0.783081 L -24.0138,-0.443161  L -24.0184,-0.375626 L -24.0301,-0.0339355 L -24.0301,0.0339355 L -24.0184,0.375626 L -24.0138,0.443161 L -23.9788,0.783081  L -23.9695,0.850708 L -23.9115,1.18713 L -23.8976,1.25386 L -23.8169,1.58536 L -23.7983,1.65155 L -23.6951,1.97676  L -23.6723,2.04092 L -23.5469,2.35883 L -23.5199,2.42099 L -23.3731,2.72968 L -23.3418,2.79013 L -23.1745,3.08763  L -23.1389,3.14612 L -22.942,3.44632 L -22.9237,3.47331 L -18.1945,10.1938 L -18.1198,10.3081 L -18.053,10.4273  L -17.9945,10.5507 L -17.9446,10.6778 L -17.9035,10.808 L -17.8713,10.9408 L -17.8483,11.0754 L -17.8346,11.2112  L -17.8301,11.3477 L -17.835,11.4842 L -17.8491,11.62 L -17.8725,11.7546 L -17.905,11.8872 L -17.9465,12.0173  L -17.9968,12.1443 L -18.0557,12.2675 L -18.1228,12.3865 L -18.1978,12.5005 L -18.2805,12.6093 L -18.4159,12.759  L -25.8182,20.1614 L -26.0703,19.9563 L -27.8415,18.7061 L -29.6938,17.5796 L -31.6187,16.5822 L -33.6072,15.7185  L -35.65,14.9925 L -37.7375,14.4076 L -39.8602,13.9665 L -42.0079,13.6713 L -44.1708,13.5233 L -46.3388,13.5233  L -48.5017,13.6713 L -50.6495,13.9665 L -52.7721,14.4076 L -54.8597,14.9925 L -56.9024,15.7185 L -58.8909,16.5822  L -60.8158,17.5796 L -62.6682,18.7061 L -64.4393,19.9563 L -66.121,21.3244 L -67.7055,22.8042 L -69.1852,24.3886  L -70.5534,26.0703 L -71.8036,27.8415 L -72.93,29.6938 L -73.9274,31.6187 L -74.7912,33.6072 L -75.5172,35.65  L -76.1021,37.7375 L -76.5432,39.8602 L -76.8384,42.0079 L -76.9863,44.1708 L -76.9863,46.3388 L -76.8384,48.5017  L -76.5432,50.6495 L -76.1021,52.7721 L -75.5172,54.8597 L -74.7912,56.9024 L -73.9274,58.8909 L -72.93,60.8158  L -71.8036,62.6682 L -70.5534,64.4393 L -69.1852,66.121 L -67.7055,67.7055 L -66.121,69.1852 L -64.4393,70.5534  L -62.6682,71.8036 L -60.8158,72.93 L -58.8909,73.9274 L -56.9024,74.7912 L -54.8597,75.5172 L -52.7721,76.1021  L -50.6495,76.5432 L -48.5017,76.8384 L -46.3388,76.9863 L -44.1708,76.9863 z M 44.3074,-17.521 L 42.417,-17.6503 L 40.5398,-17.9083 L 38.6846,-18.2939 L 36.86,-18.8051 L 35.0746,-19.4396  L 33.3367,-20.1945 L 31.6543,-21.0663 L 30.0353,-22.0508 L 28.6708,-23.0139 L 42.4536,-36.7968 L 42.5534,-36.89  L 42.6594,-36.9762 L 42.7709,-37.0549 L 42.8876,-37.1259 L 43.0089,-37.1887 L 43.1341,-37.2431 L 43.2628,-37.2888  L 43.3943,-37.3257 L 43.528,-37.3535 L 43.6633,-37.3721 L 43.7995,-37.3814 L 43.9361,-37.3814 L 44.0724,-37.3721  L 44.2076,-37.3535 L 44.3414,-37.3257 L 44.4994,-37.2872 L 44.5663,-37.2733 L 44.7378,-37.2437 L 44.8053,-37.2344  L 44.9783,-37.2166 L 45.0471,-37.2119 L 45.2205,-37.206 L 45.2892,-37.206 L 45.4626,-37.2119 L 45.5314,-37.2166  L 45.7043,-37.2344 L 45.7718,-37.2437 L 45.9435,-37.2733 L 46.01,-37.2871 L 46.1794,-37.3284 L 46.2451,-37.3468  L 46.4113,-37.3996 L 46.4752,-37.4222 L 46.6377,-37.4863 L 46.6998,-37.5133 L 46.8574,-37.5882 L 46.9176,-37.6194  L 47.0697,-37.705 L 47.1278,-37.7403 L 47.2733,-37.8357 L 47.3295,-37.8754 L 47.4677,-37.9802 L 47.5212,-38.0237  L 47.652,-38.1378 L 47.7021,-38.1846 L 52.3252,-42.8077 L 52.3718,-42.8576 L 52.4861,-42.9887 L 52.5293,-43.0417  L 52.6342,-43.1801 L 52.6739,-43.2364 L 52.7693,-43.3818 L 52.8047,-43.44 L 52.8902,-43.592 L 52.9214,-43.6523  L 52.9962,-43.8096 L 53.0234,-43.8722 L 53.0873,-44.0342 L 53.1102,-44.0987 L 53.1628,-44.2643 L 53.1813,-44.3304  L 53.2225,-44.4994 L 53.2364,-44.5663 L 53.266,-44.7378 L 53.2752,-44.8053 L 53.293,-44.9786 L 53.2977,-45.0466  L 53.3036,-45.2209 L 53.3036,-45.2888 L 53.2977,-45.4631 L 53.293,-45.5311 L 53.2752,-45.7043 L 53.266,-45.7718  L 53.2364,-45.9435 L 53.2225,-46.01 L 53.1813,-46.1793 L 53.1628,-46.2454 L 53.1101,-46.4112 L 53.0874,-46.4752  L 53.0233,-46.6377 L 52.9964,-46.6998 L 52.9214,-46.8574 L 52.8902,-46.9176 L 52.8047,-47.0697 L 52.7693,-47.1278  L 52.6739,-47.2733 L 52.6342,-47.3295 L 52.5293,-47.4679 L 52.4861,-47.521 L 52.3718,-47.6521 L 52.3252,-47.702  L 47.702,-52.3252 L 47.6521,-52.3718 L 47.521,-52.4861 L 47.4679,-52.5293 L 47.3295,-52.6342 L 47.2733,-52.6739  L 47.1278,-52.7693 L 47.0697,-52.8047 L 46.9176,-52.8902 L 46.8574,-52.9214 L 46.6998,-52.9964 L 46.6377,-53.0233  L 46.4752,-53.0874 L 46.4112,-53.1101 L 46.2454,-53.1628 L 46.1793,-53.1813 L 46.01,-53.2225 L 45.9435,-53.2364  L 45.7718,-53.266 L 45.7043,-53.2752 L 45.5311,-53.293 L 45.4631,-53.2977 L 45.2888,-53.3036 L 45.2209,-53.3036  L 45.0466,-53.2977 L 44.9786,-53.293 L 44.8053,-53.2752 L 44.7378,-53.266 L 44.5663,-53.2364 L 44.4994,-53.2225  L 44.3304,-53.1813 L 44.2643,-53.1628 L 44.0987,-53.1102 L 44.0342,-53.0873 L 43.8722,-53.0234 L 43.8096,-52.9962  L 43.6523,-52.9214 L 43.592,-52.8902 L 43.44,-52.8047 L 43.3818,-52.7693 L 43.2364,-52.6739 L 43.1801,-52.6342  L 43.0417,-52.5293 L 42.9887,-52.4861 L 42.8576,-52.3718 L 42.8077,-52.3252 L 38.1846,-47.7021 L 38.1378,-47.652  L 38.0237,-47.5212 L 37.9802,-47.4677 L 37.8754,-47.3295 L 37.8357,-47.2733 L 37.7403,-47.1278 L 37.705,-47.0697  L 37.6194,-46.9176 L 37.5882,-46.8574 L 37.5133,-46.6998 L 37.4863,-46.6377 L 37.4222,-46.4752 L 37.3996,-46.4113  L 37.3468,-46.2451 L 37.3284,-46.1794 L 37.2871,-46.01 L 37.2733,-45.9435 L 37.2437,-45.7718 L 37.2344,-45.7043  L 37.2166,-45.5314 L 37.2119,-45.4626 L 37.206,-45.2892 L 37.206,-45.2205 L 37.2119,-45.0471 L 37.2166,-44.9783  L 37.2344,-44.8053 L 37.2437,-44.7378 L 37.2733,-44.5663 L 37.2872,-44.4994 L 37.3257,-44.3414 L 37.3535,-44.2077  L 37.3721,-44.0724 L 37.3814,-43.9362 L 37.3814,-43.7996 L 37.3721,-43.6634 L 37.3535,-43.5281 L 37.3257,-43.3944  L 37.2889,-43.2629 L 37.2431,-43.1342 L 37.1887,-43.0089 L 37.1259,-42.8877 L 37.055,-42.771 L 36.9762,-42.6594  L 36.89,-42.5535 L 36.7968,-42.4536 L 23.0139,-28.6708 L 22.0508,-30.0353 L 21.0663,-31.6543 L 20.1945,-33.3367  L 19.4396,-35.0746 L 18.8051,-36.86 L 18.2939,-38.6846 L 17.9083,-40.5398 L 17.6503,-42.417 L 17.521,-44.3074  L 17.521,-46.2022 L 17.6503,-48.0927 L 17.9083,-49.9698 L 18.2939,-51.825 L 18.8051,-53.6496 L 19.4396,-55.435  L 20.1945,-57.173 L 21.0663,-58.8554 L 22.0508,-60.4744 L 23.1435,-62.0224 L 24.3393,-63.4922 L 25.6326,-64.877  L 27.0174,-66.1703 L 28.4873,-67.3661 L 30.0353,-68.4589 L 31.6543,-69.4434 L 33.3367,-70.3151 L 35.0746,-71.07  L 36.86,-71.7046 L 38.6846,-72.2158 L 40.5398,-72.6013 L 42.417,-72.8593 L 44.3074,-72.9886 L 46.2022,-72.9886  L 48.0927,-72.8593 L 49.9698,-72.6013 L 51.825,-72.2158 L 53.6496,-71.7046 L 55.435,-71.07 L 57.173,-70.3151  L 58.8554,-69.4434 L 60.4744,-68.4589 L 62.0224,-67.3661 L 63.4922,-66.1703 L 64.877,-64.877 L 66.1703,-63.4922  L 67.3661,-62.0224 L 68.4589,-60.4744 L 69.4434,-58.8554 L 70.3151,-57.173 L 71.07,-55.435 L 71.7046,-53.6496  L 72.2158,-51.825 L 72.6013,-49.9698 L 72.8593,-48.0927 L 72.9886,-46.2022 L 72.9886,-44.3074 L 72.8593,-42.417  L 72.6013,-40.5398 L 72.2158,-38.6846 L 71.7046,-36.86 L 71.07,-35.0746 L 70.3151,-33.3367 L 69.4434,-31.6543  L 68.4589,-30.0353 L 67.3661,-28.4873 L 66.1703,-27.0174 L 64.877,-25.6326 L 63.4922,-24.3393 L 62.0224,-23.1435  L 60.4744,-22.0508 L 58.8554,-21.0663 L 57.173,-20.1945 L 55.435,-19.4396 L 53.6496,-18.8051 L 51.825,-18.2939  L 49.9698,-17.9083 L 48.0927,-17.6503 L 46.2022,-17.521 z M -46.2022,-17.521 L -48.0927,-17.6503 L -49.9698,-17.9083 L -51.825,-18.2939 L -53.6496,-18.8051 L -55.435,-19.4396  L -57.173,-20.1945 L -58.8554,-21.0663 L -60.4744,-22.0508 L -62.0224,-23.1435 L -63.4922,-24.3393 L -64.877,-25.6326  L -66.1703,-27.0174 L -67.3661,-28.4873 L -68.4589,-30.0353 L -69.4434,-31.6543 L -70.3151,-33.3367 L -71.07,-35.0746  L -71.7046,-36.86 L -72.2158,-38.6846 L -72.6013,-40.5398 L -72.8593,-42.417 L -72.9886,-44.3074 L -72.9886,-46.2022  L -72.8593,-48.0927 L -72.6013,-49.9698 L -72.2158,-51.825 L -71.7046,-53.6496 L -71.07,-55.435 L -70.3151,-57.173  L -69.4434,-58.8554 L -68.4589,-60.4744 L -67.3661,-62.0224 L -66.1703,-63.4922 L -64.877,-64.877 L -63.4922,-66.1703  L -62.0224,-67.3661 L -60.4744,-68.4589 L -58.8554,-69.4434 L -57.173,-70.3151 L -55.435,-71.07 L -53.6496,-71.7046  L -51.825,-72.2158 L -49.9698,-72.6013 L -48.0927,-72.8593 L -46.2022,-72.9886 L -44.3074,-72.9886 L -42.417,-72.8593  L -40.5398,-72.6013 L -38.6846,-72.2158 L -36.86,-71.7046 L -35.0746,-71.07 L -33.3367,-70.3151 L -31.6543,-69.4434  L -30.0353,-68.4589 L -28.4873,-67.3661 L -27.0174,-66.1703 L -25.6326,-64.877 L -24.3393,-63.4922 L -23.1435,-62.0224  L -22.0508,-60.4744 L -21.0663,-58.8554 L -20.1945,-57.173 L -19.4396,-55.435 L -18.8051,-53.6496 L -18.2939,-51.825  L -17.9083,-49.9698 L -17.6503,-48.0927 L -17.521,-46.2022 L -17.521,-44.3074 L -17.6503,-42.417 L -17.9083,-40.5398  L -18.2939,-38.6846 L -18.8051,-36.86 L -19.4396,-35.0746 L -20.1945,-33.3367 L -21.0663,-31.6543 L -22.0508,-30.0353  L -23.0139,-28.6708 L -36.7968,-42.4536 L -36.89,-42.5534 L -36.9762,-42.6594 L -37.0549,-42.7709 L -37.1259,-42.8876  L -37.1887,-43.0089 L -37.2431,-43.1341 L -37.2888,-43.2628 L -37.3257,-43.3943 L -37.3535,-43.528 L -37.3721,-43.6633  L -37.3814,-43.7995 L -37.3814,-43.9361 L -37.3721,-44.0724 L -37.3535,-44.2076 L -37.3257,-44.3414 L -37.2872,-44.4994  L -37.2733,-44.5663 L -37.2437,-44.7378 L -37.2344,-44.8053 L -37.2166,-44.9783 L -37.2119,-45.0471 L -37.206,-45.2205  L -37.206,-45.2892 L -37.2119,-45.4626 L -37.2166,-45.5314 L -37.2344,-45.7043 L -37.2437,-45.7718 L -37.2733,-45.9435  L -37.2871,-46.01 L -37.3284,-46.1794 L -37.3468,-46.2451 L -37.3996,-46.4113 L -37.4222,-46.4752 L -37.4863,-46.6377  L -37.5133,-46.6998 L -37.5882,-46.8574 L -37.6194,-46.9176 L -37.705,-47.0697 L -37.7403,-47.1278 L -37.8357,-47.2733  L -37.8754,-47.3295 L -37.9802,-47.4677 L -38.0237,-47.5212 L -38.1378,-47.652 L -38.1846,-47.7021 L -42.8077,-52.3252  L -42.8576,-52.3718 L -42.9887,-52.4861 L -43.0417,-52.5293 L -43.1801,-52.6342 L -43.2364,-52.6739 L -43.3818,-52.7693  L -43.44,-52.8047 L -43.592,-52.8902 L -43.6523,-52.9214 L -43.8096,-52.9962 L -43.8722,-53.0234 L -44.0342,-53.0873  L -44.0987,-53.1102 L -44.2643,-53.1628 L -44.3304,-53.1813 L -44.4994,-53.2225 L -44.5663,-53.2364 L -44.7378,-53.266  L -44.8053,-53.2752 L -44.9786,-53.293 L -45.0466,-53.2977 L -45.2209,-53.3036 L -45.2888,-53.3036 L -45.4631,-53.2977  L -45.5311,-53.293 L -45.7043,-53.2752 L -45.7718,-53.266 L -45.9435,-53.2364 L -46.01,-53.2225 L -46.1793,-53.1813  L -46.2454,-53.1628 L -46.4112,-53.1101 L -46.4752,-53.0874 L -46.6377,-53.0233 L -46.6998,-52.9964 L -46.8574,-52.9214  L -46.9176,-52.8902 L -47.0697,-52.8047 L -47.1278,-52.7693 L -47.2733,-52.6739 L -47.3295,-52.6342 L -47.4679,-52.5293  L -47.521,-52.4861 L -47.6521,-52.3718 L -47.702,-52.3252 L -52.3252,-47.702 L -52.3718,-47.6521 L -52.4861,-47.521  L -52.5293,-47.4679 L -52.6342,-47.3295 L -52.6739,-47.2733 L -52.7693,-47.1278 L -52.8047,-47.0697 L -52.8902,-46.9176  L -52.9214,-46.8574 L -52.9964,-46.6998 L -53.0233,-46.6377 L -53.0874,-46.4752 L -53.1101,-46.4112 L -53.1628,-46.2454  L -53.1813,-46.1793 L -53.2225,-46.01 L -53.2364,-45.9435 L -53.266,-45.7718 L -53.2752,-45.7043 L -53.293,-45.5311  L -53.2977,-45.4631 L -53.3036,-45.2888 L -53.3036,-45.2209 L -53.2977,-45.0466 L -53.293,-44.9786 L -53.2752,-44.8053  L -53.266,-44.7378 L -53.2364,-44.5663 L -53.2225,-44.4994 L -53.1813,-44.3304 L -53.1628,-44.2643 L -53.1102,-44.0987  L -53.0873,-44.0342 L -53.0234,-43.8722 L -52.9962,-43.8096 L -52.9214,-43.6523 L -52.8902,-43.592 L -52.8047,-43.44  L -52.7693,-43.3818 L -52.6739,-43.2364 L -52.6342,-43.1801 L -52.5293,-43.0417 L -52.4861,-42.9887 L -52.3718,-42.8576  L -52.3252,-42.8077 L -47.7021,-38.1846 L -47.652,-38.1378 L -47.5212,-38.0237 L -47.4677,-37.9802 L -47.3295,-37.8754  L -47.2733,-37.8357 L -47.1278,-37.7403 L -47.0697,-37.705 L -46.9176,-37.6194 L -46.8574,-37.5882 L -46.6998,-37.5133  L -46.6377,-37.4863 L -46.4752,-37.4222 L -46.4113,-37.3996 L -46.2451,-37.3468 L -46.1794,-37.3284 L -46.01,-37.2871  L -45.9435,-37.2733 L -45.7718,-37.2437 L -45.7043,-37.2344 L -45.5314,-37.2166 L -45.4626,-37.2119 L -45.2892,-37.206  L -45.2205,-37.206 L -45.0471,-37.2119 L -44.9783,-37.2166 L -44.8053,-37.2344 L -44.7378,-37.2437 L -44.5663,-37.2733  L -44.4994,-37.2872 L -44.3414,-37.3257 L -44.2077,-37.3535 L -44.0724,-37.3721 L -43.9362,-37.3814 L -43.7996,-37.3814  L -43.6634,-37.3721 L -43.5281,-37.3535 L -43.3944,-37.3257 L -43.2629,-37.2889 L -43.1342,-37.2431 L -43.0089,-37.1887  L -42.8877,-37.1259 L -42.771,-37.055 L -42.6594,-36.9762 L -42.5535,-36.89 L -42.4536,-36.7968 L -28.6708,-23.0139  L -30.0353,-22.0508 L -31.6543,-21.0663 L -33.3367,-20.1945 L -35.0746,-19.4396 L -36.86,-18.8051 L -38.6846,-18.2939  L -40.5398,-17.9083 L -42.417,-17.6503 L -44.3074,-17.521 z M -46.2022,72.9886 L -48.0927,72.8593 L -49.9698,72.6013 L -51.825,72.2158 L -53.6496,71.7046 L -55.435,71.07  L -57.173,70.3151 L -58.8554,69.4434 L -60.4744,68.4589 L -62.0224,67.3661 L -63.4922,66.1703 L -64.877,64.877  L -66.1703,63.4922 L -67.3661,62.0224 L -68.4589,60.4744 L -69.4434,58.8554 L -70.3151,57.173 L -71.07,55.435  L -71.7046,53.6496 L -72.2158,51.825 L -72.6013,49.9698 L -72.8593,48.0927 L -72.9886,46.2022 L -72.9886,44.3074  L -72.8593,42.417 L -72.6013,40.5398 L -72.2158,38.6846 L -71.7046,36.86 L -71.07,35.0746 L -70.3151,33.3367  L -69.4434,31.6543 L -68.4589,30.0353 L -67.3661,28.4873 L -66.1703,27.0174 L -64.877,25.6326 L -63.4922,24.3393  L -62.0224,23.1435 L -60.4744,22.0508 L -58.8554,21.0663 L -57.173,20.1945 L -55.435,19.4396 L -53.6496,18.8051  L -51.825,18.2939 L -49.9698,17.9083 L -48.0927,17.6503 L -46.2022,17.521 L -44.3074,17.521 L -42.417,17.6503  L -40.5398,17.9083 L -38.6846,18.2939 L -36.86,18.8051 L -35.0746,19.4396 L -33.3367,20.1945 L -31.6543,21.0663  L -30.0353,22.0508 L -28.6708,23.0139 L -42.4536,36.7968 L -42.5534,36.89 L -42.6594,36.9762 L -42.7709,37.0549  L -42.8876,37.1259 L -43.0089,37.1887 L -43.1341,37.2431 L -43.2628,37.2888 L -43.3943,37.3257 L -43.528,37.3535  L -43.6633,37.3721 L -43.7995,37.3814 L -43.9361,37.3814 L -44.0724,37.3721 L -44.2076,37.3535 L -44.3414,37.3257  L -44.4994,37.2872 L -44.5663,37.2733 L -44.7378,37.2437 L -44.8053,37.2344 L -44.9783,37.2166 L -45.0471,37.2119  L -45.2205,37.206 L -45.2892,37.206 L -45.4626,37.2119 L -45.5314,37.2166 L -45.7043,37.2344 L -45.7718,37.2437  L -45.9435,37.2733 L -46.01,37.2871 L -46.1794,37.3284 L -46.2451,37.3468 L -46.4113,37.3996 L -46.4752,37.4222  L -46.6377,37.4863 L -46.6998,37.5133 L -46.8574,37.5882 L -46.9176,37.6194 L -47.0697,37.705 L -47.1278,37.7403  L -47.2733,37.8357 L -47.3295,37.8754 L -47.4677,37.9802 L -47.5212,38.0237 L -47.652,38.1378 L -47.7021,38.1846  L -52.3252,42.8077 L -52.3718,42.8576 L -52.4861,42.9887 L -52.5293,43.0417 L -52.6342,43.1801 L -52.6739,43.2364  L -52.7693,43.3818 L -52.8047,43.44 L -52.8902,43.592 L -52.9214,43.6523 L -52.9962,43.8096 L -53.0234,43.8722  L -53.0873,44.0342 L -53.1102,44.0987 L -53.1628,44.2643 L -53.1813,44.3304 L -53.2225,44.4994 L -53.2364,44.5663  L -53.266,44.7378 L -53.2752,44.8053 L -53.293,44.9786 L -53.2977,45.0466 L -53.3036,45.2209 L -53.3036,45.2888  L -53.2977,45.4631 L -53.293,45.5311 L -53.2752,45.7043 L -53.266,45.7718 L -53.2364,45.9435 L -53.2225,46.01  L -53.1813,46.1793 L -53.1628,46.2454 L -53.1101,46.4112 L -53.0874,46.4752 L -53.0233,46.6377 L -52.9964,46.6998  L -52.9214,46.8574 L -52.8902,46.9176 L -52.8047,47.0697 L -52.7693,47.1278 L -52.6739,47.2733 L -52.6342,47.3295  L -52.5293,47.4679 L -52.4861,47.521 L -52.3718,47.6521 L -52.3252,47.702 L -47.702,52.3252 L -47.6521,52.3718  L -47.521,52.4861 L -47.4679,52.5293 L -47.3295,52.6342 L -47.2733,52.6739 L -47.1278,52.7693 L -47.0697,52.8047  L -46.9176,52.8902 L -46.8574,52.9214 L -46.6998,52.9964 L -46.6377,53.0233 L -46.4752,53.0874 L -46.4112,53.1101  L -46.2454,53.1628 L -46.1793,53.1813 L -46.01,53.2225 L -45.9435,53.2364 L -45.7718,53.266 L -45.7043,53.2752  L -45.5311,53.293 L -45.4631,53.2977 L -45.2888,53.3036 L -45.2209,53.3036 L -45.0466,53.2977 L -44.9786,53.293  L -44.8053,53.2752 L -44.7378,53.266 L -44.5663,53.2364 L -44.4994,53.2225 L -44.3304,53.1813 L -44.2643,53.1628  L -44.0987,53.1102 L -44.0342,53.0873 L -43.8722,53.0234 L -43.8096,52.9962 L -43.6523,52.9214 L -43.592,52.8902  L -43.44,52.8047 L -43.3818,52.7693 L -43.2364,52.6739 L -43.1801,52.6342 L -43.0417,52.5293 L -42.9887,52.4861  L -42.8576,52.3718 L -42.8077,52.3252 L -38.1846,47.7021 L -38.1378,47.652 L -38.0237,47.5212 L -37.9802,47.4677  L -37.8754,47.3295 L -37.8357,47.2733 L -37.7403,47.1278 L -37.705,47.0697 L -37.6194,46.9176 L -37.5882,46.8574  L -37.5133,46.6998 L -37.4863,46.6377 L -37.4222,46.4752 L -37.3996,46.4113 L -37.3468,46.2451 L -37.3284,46.1794  L -37.2871,46.01 L -37.2733,45.9435 L -37.2437,45.7718 L -37.2344,45.7043 L -37.2166,45.5314 L -37.2119,45.4626  L -37.206,45.2892 L -37.206,45.2205 L -37.2119,45.0471 L -37.2166,44.9783 L -37.2344,44.8053 L -37.2437,44.7378  L -37.2733,44.5663 L -37.2872,44.4994 L -37.3257,44.3414 L -37.3535,44.2077 L -37.3721,44.0724 L -37.3814,43.9362  L -37.3814,43.7996 L -37.3721,43.6634 L -37.3535,43.5281 L -37.3257,43.3944 L -37.2889,43.2629 L -37.2431,43.1342  L -37.1887,43.0089 L -37.1259,42.8877 L -37.055,42.771 L -36.9762,42.6594 L -36.89,42.5535 L -36.7968,42.4536  L -23.0139,28.6708 L -22.0508,30.0353 L -21.0663,31.6543 L -20.1945,33.3367 L -19.4396,35.0746 L -18.8051,36.86  L -18.2939,38.6846 L -17.9083,40.5398 L -17.6503,42.417 L -17.521,44.3074 L -17.521,46.2022 L -17.6503,48.0927  L -17.9083,49.9698 L -18.2939,51.825 L -18.8051,53.6496 L -19.4396,55.435 L -20.1945,57.173 L -21.0663,58.8554  L -22.0508,60.4744 L -23.1435,62.0224 L -24.3393,63.4922 L -25.6326,64.877 L -27.0174,66.1703 L -28.4873,67.3661  L -30.0353,68.4589 L -31.6543,69.4434 L -33.3367,70.3151 L -35.0746,71.07 L -36.86,71.7046 L -38.6846,72.2158  L -40.5398,72.6013 L -42.417,72.8593 L -44.3074,72.9886 z M 44.3074,72.9886 L 42.417,72.8593 L 40.5398,72.6013 L 38.6846,72.2158 L 36.86,71.7046 L 35.0746,71.07  L 33.3367,70.3151 L 31.6543,69.4434 L 30.0353,68.4589 L 28.4873,67.3661 L 27.0174,66.1703 L 25.6326,64.877  L 24.3393,63.4922 L 23.1435,62.0224 L 22.0508,60.4744 L 21.0663,58.8554 L 20.1945,57.173 L 19.4396,55.435  L 18.8051,53.6496 L 18.2939,51.825 L 17.9083,49.9698 L 17.6503,48.0927 L 17.521,46.2022 L 17.521,44.3074  L 17.6503,42.417 L 17.9083,40.5398 L 18.2939,38.6846 L 18.8051,36.86 L 19.4396,35.0746 L 20.1945,33.3367  L 21.0663,31.6543 L 22.0508,30.0353 L 23.0139,28.6708 L 36.7968,42.4536 L 36.89,42.5534 L 36.9762,42.6594  L 37.0549,42.7709 L 37.1259,42.8876 L 37.1887,43.0089 L 37.2431,43.1341 L 37.2888,43.2628 L 37.3257,43.3943  L 37.3535,43.528 L 37.3721,43.6633 L 37.3814,43.7995 L 37.3814,43.9361 L 37.3721,44.0724 L 37.3535,44.2076  L 37.3257,44.3414 L 37.2872,44.4994 L 37.2733,44.5663 L 37.2437,44.7378 L 37.2344,44.8053 L 37.2166,44.9783  L 37.2119,45.0471 L 37.206,45.2205 L 37.206,45.2892 L 37.2119,45.4626 L 37.2166,45.5314 L 37.2344,45.7043  L 37.2437,45.7718 L 37.2733,45.9435 L 37.2871,46.01 L 37.3284,46.1794 L 37.3468,46.2451 L 37.3996,46.4113  L 37.4222,46.4752 L 37.4863,46.6377 L 37.5133,46.6998 L 37.5882,46.8574 L 37.6194,46.9176 L 37.705,47.0697  L 37.7403,47.1278 L 37.8357,47.2733 L 37.8754,47.3295 L 37.9802,47.4677 L 38.0237,47.5212 L 38.1378,47.652  L 38.1846,47.7021 L 42.8077,52.3252 L 42.8576,52.3718 L 42.9887,52.4861 L 43.0417,52.5293 L 43.1801,52.6342  L 43.2364,52.6739 L 43.3818,52.7693 L 43.44,52.8047 L 43.592,52.8902 L 43.6523,52.9214 L 43.8096,52.9962  L 43.8722,53.0234 L 44.0342,53.0873 L 44.0987,53.1102 L 44.2643,53.1628 L 44.3304,53.1813 L 44.4994,53.2225  L 44.5663,53.2364 L 44.7378,53.266 L 44.8053,53.2752 L 44.9786,53.293 L 45.0466,53.2977 L 45.2209,53.3036  L 45.2888,53.3036 L 45.4631,53.2977 L 45.5311,53.293 L 45.7043,53.2752 L 45.7718,53.266 L 45.9435,53.2364  L 46.01,53.2225 L 46.1793,53.1813 L 46.2454,53.1628 L 46.4112,53.1101 L 46.4752,53.0874 L 46.6377,53.0233  L 46.6998,52.9964 L 46.8574,52.9214 L 46.9176,52.8902 L 47.0697,52.8047 L 47.1278,52.7693 L 47.2733,52.6739  L 47.3295,52.6342 L 47.4679,52.5293 L 47.521,52.4861 L 47.6521,52.3718 L 47.702,52.3252 L 52.3252,47.702  L 52.3718,47.6521 L 52.4861,47.521 L 52.5293,47.4679 L 52.6342,47.3295 L 52.6739,47.2733 L 52.7693,47.1278  L 52.8047,47.0697 L 52.8902,46.9176 L 52.9214,46.8574 L 52.9964,46.6998 L 53.0233,46.6377 L 53.0874,46.4752  L 53.1101,46.4112 L 53.1628,46.2454 L 53.1813,46.1793 L 53.2225,46.01 L 53.2364,45.9435 L 53.266,45.7718  L 53.2752,45.7043 L 53.293,45.5311 L 53.2977,45.4631 L 53.3036,45.2888 L 53.3036,45.2209 L 53.2977,45.0466  L 53.293,44.9786 L 53.2752,44.8053 L 53.266,44.7378 L 53.2364,44.5663 L 53.2225,44.4994 L 53.1813,44.3304  L 53.1628,44.2643 L 53.1102,44.0987 L 53.0873,44.0342 L 53.0234,43.8722 L 52.9962,43.8096 L 52.9214,43.6523  L 52.8902,43.592 L 52.8047,43.44 L 52.7693,43.3818 L 52.6739,43.2364 L 52.6342,43.1801 L 52.5293,43.0417  L 52.4861,42.9887 L 52.3718,42.8576 L 52.3252,42.8077 L 47.7021,38.1846 L 47.652,38.1378 L 47.5212,38.0237  L 47.4677,37.9802 L 47.3295,37.8754 L 47.2733,37.8357 L 47.1278,37.7403 L 47.0697,37.705 L 46.9176,37.6194  L 46.8574,37.5882 L 46.6998,37.5133 L 46.6377,37.4863 L 46.4752,37.4222 L 46.4113,37.3996 L 46.2451,37.3468  L 46.1794,37.3284 L 46.01,37.2871 L 45.9435,37.2733 L 45.7718,37.2437 L 45.7043,37.2344 L 45.5314,37.2166  L 45.4626,37.2119 L 45.2892,37.206 L 45.2205,37.206 L 45.0471,37.2119 L 44.9783,37.2166 L 44.8053,37.2344  L 44.7378,37.2437 L 44.5663,37.2733 L 44.4994,37.2872 L 44.3414,37.3257 L 44.2077,37.3535 L 44.0724,37.3721  L 43.9362,37.3814 L 43.7996,37.3814 L 43.6634,37.3721 L 43.5281,37.3535 L 43.3944,37.3257 L 43.2629,37.2889  L 43.1342,37.2431 L 43.0089,37.1887 L 42.8877,37.1259 L 42.771,37.055 L 42.6594,36.9762 L 42.5535,36.89  L 42.4536,36.7968 L 28.6708,23.0139 L 30.0353,22.0508 L 31.6543,21.0663 L 33.3367,20.1945 L 35.0746,19.4396  L 36.86,18.8051 L 38.6846,18.2939 L 40.5398,17.9083 L 42.417,17.6503 L 44.3074,17.521 L 46.2022,17.521  L 48.0927,17.6503 L 49.9698,17.9083 L 51.825,18.2939 L 53.6496,18.8051 L 55.435,19.4396 L 57.173,20.1945  L 58.8554,21.0663 L 60.4744,22.0508 L 62.0224,23.1435 L 63.4922,24.3393 L 64.877,25.6326 L 66.1703,27.0174  L 67.3661,28.4873 L 68.4589,30.0353 L 69.4434,31.6543 L 70.3151,33.3367 L 71.07,35.0746 L 71.7046,36.86  L 72.2158,38.6846 L 72.6013,40.5398 L 72.8593,42.417 L 72.9886,44.3074 L 72.9886,46.2022 L 72.8593,48.0927  L 72.6013,49.9698 L 72.2158,51.825 L 71.7046,53.6496 L 71.07,55.435 L 70.3151,57.173 L 69.4434,58.8554  L 68.4589,60.4744 L 67.3661,62.0224 L 66.1703,63.4922 L 64.877,64.877 L 63.4922,66.1703 L 62.0224,67.3661  L 60.4744,68.4589 L 58.8554,69.4434 L 57.173,70.3151 L 55.435,71.07 L 53.6496,71.7046 L 51.825,72.2158  L 49.9698,72.6013 L 48.0927,72.8593 L 46.2022,72.9886 z M -80.1309,-25.554 L -91.5574,-25.554 L -91.9364,-24.7845 L -92.339,-24.0358 L -92.7652,-23.3077 L -93.2149,-22.6004  L -93.6881,-21.9138 L -94.1849,-21.248 L -94.7053,-20.6029 L -95.2492,-19.9784 L -95.8167,-19.3747 L -96.4077,-18.7918  L -97.0223,-18.2295 L -97.6604,-17.688 L -98.3322,-17.1632 L -99.0477,-16.6511 L -99.807,-16.1517 L -100.61,-15.665  L -101.457,-15.191 L -102.348,-14.7297 L -103.282,-14.2812 L -104.261,-13.8453 L -105.283,-13.4222 L -106.349,-13.0117  L -107.458,-12.614 L -108.612,-12.229 L -108.612,-0.904495 L -107.826,-1.14844 L -107.063,-1.39426 L -106.322,-1.64197  L -105.604,-1.89154 L -104.908,-2.14302 L -104.234,-2.39636 L -103.583,-2.6516 L -102.954,-2.90872 L -102.347,-3.16771  L -101.763,-3.42859 L -101.201,-3.69135 L -100.661,-3.95599 L -100.131,-4.22841 L -99.5985,-4.51448 L -99.0624,-4.81421  L -98.5233,-5.12761 L -97.9811,-5.45465 L -97.4359,-5.79536 L -96.8876,-6.14973 L -96.3363,-6.51778 L -95.7819,-6.89946  L -95.2245,-7.29482 L -94.664,-7.70383 L -94.1004,-8.1265 L -94.1004,25 L -80.1309,25 z M -385.316,25.833 L -384.164,25.7896 L -383.046,25.7172 L -381.963,25.6158 L -380.914,25.4855 L -379.899,25.3262  L -378.919,25.138 L -377.973,24.9208 L -377.062,24.6747 L -376.185,24.3996 L -375.342,24.0955 L -374.534,23.7625  L -373.757,23.4014 L -373.01,23.0132 L -372.291,22.5979 L -371.602,22.1556 L -370.943,21.6862 L -370.312,21.1898  L -369.711,20.6662 L -369.139,20.1156 L -368.596,19.5379 L -368.082,18.9332 L -367.597,18.3014 L -367.142,17.6425  L -366.72,16.9648 L -366.334,16.2768 L -365.985,15.5784 L -365.673,14.8696 L -365.397,14.1505 L -365.159,13.421  L -364.957,12.6812 L -364.791,11.931 L -364.663,11.1704 L -364.571,10.3994 L -364.516,9.61816 L -364.498,8.82651  L -364.511,8.15384 L -364.553,7.49199 L -364.621,6.84097 L -364.718,6.20079 L -364.842,5.57143 L -364.993,4.95288  L -365.172,4.34517 L -365.379,3.74829 L -365.613,3.16223 L -365.875,2.58699 L -366.164,2.02258 L -366.481,1.46901  L -366.828,0.928268 L -367.208,0.402359 L -367.621,-0.108704 L -368.067,-0.604935 L -368.546,-1.08632 L -369.058,-1.55287  L -369.603,-2.00458 L -370.181,-2.44144 L -370.791,-2.86346 L -371.435,-3.27065 L -372.112,-3.66299 L -372.822,-4.0405  L -373.587,-4.41031 L -374.433,-4.7794 L -375.357,-5.14781 L -376.361,-5.51549 L -377.444,-5.88248 L -378.607,-6.24875  L -379.849,-6.6143 L -381.17,-6.97916 L -382.571,-7.34331 L -384.051,-7.70674 L -385.61,-8.06947 L -387.249,-8.43149  L -387.906,-8.57368 L -388.522,-8.71777 L -389.096,-8.86374 L -389.629,-9.0116 L -390.121,-9.16135 L -390.571,-9.31299  L -390.98,-9.46652 L -391.347,-9.62193 L -391.673,-9.77924 L -391.957,-9.93843 L -392.2,-10.0995 L -392.402,-10.2625  L -392.581,-10.4224 L -392.744,-10.5856 L -392.892,-10.7521 L -393.024,-10.9218 L -393.14,-11.0949 L -393.241,-11.2712  L -393.327,-11.4509 L -393.397,-11.6338 L -393.451,-11.8201 L -393.49,-12.0096 L -393.513,-12.2024 L -393.521,-12.3985  L -393.512,-12.6663 L -393.483,-12.9273 L -393.436,-13.1815 L -393.37,-13.4289 L -393.286,-13.6694 L -393.182,-13.9031  L -393.06,-14.13 L -392.918,-14.3501 L -392.758,-14.5633 L -392.579,-14.7697 L -392.382,-14.9692 L -392.165,-15.162  L -391.93,-15.3434 L -391.676,-15.5091 L -391.404,-15.659 L -391.114,-15.7931 L -390.805,-15.9114 L -390.478,-16.014  L -390.133,-16.1008 L -389.769,-16.1718 L -389.387,-16.227 L -388.986,-16.2664 L -388.567,-16.2901 L -388.13,-16.298  L -387.597,-16.2874 L -387.084,-16.2556 L -386.59,-16.2026 L -386.116,-16.1284 L -385.662,-16.0331 L -385.227,-15.9165  L -384.811,-15.7787 L -384.415,-15.6198 L -384.039,-15.4396 L -383.682,-15.2383 L -383.345,-15.0157 L -383.027,-14.772  L -382.728,-14.505 L -382.446,-14.2126 L -382.183,-13.8948 L -381.936,-13.5515 L -381.708,-13.1828 L -381.497,-12.7886  L -381.304,-12.369 L -381.128,-11.924 L -380.971,-11.4535 L -380.83,-10.9576 L -380.708,-10.4363 L -380.603,-9.8895  L -366.125,-10.737 L -366.311,-11.9964 L -366.554,-13.1977 L -366.853,-14.3407 L -367.208,-15.4257 L -367.619,-16.4524  L -368.087,-17.421 L -368.611,-18.3314 L -369.191,-19.1837 L -369.828,-19.9777 L -370.521,-20.7137 L -371.27,-21.3914  L -372.076,-22.011 L -372.94,-22.5769 L -373.868,-23.0936 L -374.859,-23.5611 L -375.912,-23.9793 L -377.029,-24.3484  L -378.208,-24.6682 L -379.45,-24.9389 L -380.755,-25.1603 L -382.123,-25.3326 L -383.554,-25.4556 L -385.048,-25.5294  L -386.604,-25.554 L -387.875,-25.5405 L -389.1,-25.4998 L -390.28,-25.4321 L -391.413,-25.3374 L -392.501,-25.2155  L -393.542,-25.0666 L -394.538,-24.8906 L -395.488,-24.6875 L -396.391,-24.4574 L -397.249,-24.2002 L -398.061,-23.9159  L -398.828,-23.6045 L -399.555,-23.2695 L -400.252,-22.9142 L -400.917,-22.5386 L -401.551,-22.1428 L -402.154,-21.7268  L -402.727,-21.2905 L -403.268,-20.834 L -403.778,-20.3572 L -404.257,-19.8601 L -404.705,-19.3428 L -405.121,-18.8053  L -405.507,-18.2475 L -405.862,-17.6766 L -406.186,-17.0999 L -406.479,-16.5172 L -406.741,-15.9287 L -406.972,-15.3343  L -407.173,-14.734 L -407.342,-14.1278 L -407.481,-13.5157 L -407.589,-12.8977 L -407.666,-12.2739 L -407.713,-11.6441  L -407.728,-11.0085 L -407.698,-10.0509 L -407.607,-9.12195 L -407.457,-8.22177 L -407.246,-7.35033 L -406.975,-6.50761  L -406.643,-5.69362 L -406.251,-4.90836 L -405.799,-4.15182 L -405.287,-3.42403 L -404.714,-2.72495 L -404.081,-2.05461  L -403.388,-1.41299 L -402.63,-0.796097 L -401.791,-0.199921 L -400.872,0.375534 L -399.873,0.930283 L -398.793,1.46431  L -397.632,1.97763 L -396.391,2.47023 L -395.069,2.94212 L -393.667,3.3933 L -392.184,3.82375 L -390.621,4.23349  L -388.978,4.62251 L -387.98,4.84969 L -387.045,5.07922 L -386.172,5.31113 L -385.361,5.54539 L -384.612,5.78203  L -383.926,6.02101 L -383.301,6.26236 L -382.739,6.50606 L -382.239,6.75214 L -381.801,7.00056 L -381.425,7.25136  L -381.112,7.5045 L -380.841,7.76158 L -380.593,8.02432 L -380.37,8.29272 L -380.17,8.56679 L -379.993,8.8465  L -379.84,9.13188 L -379.71,9.42293 L -379.604,9.71962 L -379.522,10.022 L -379.463,10.33 L -379.428,10.6437  L -379.416,10.963 L -379.428,11.2986 L -379.465,11.6274 L -379.527,11.9493 L -379.614,12.2645 L -379.725,12.5728  L -379.861,12.8743 L -380.022,13.1689 L -380.207,13.4568 L -380.417,13.7378 L -380.652,14.012 L -380.912,14.2794  L -381.196,14.54 L -381.503,14.7864 L -381.831,15.0113 L -382.18,15.2148 L -382.55,15.397 L -382.941,15.5576  L -383.353,15.6969 L -383.786,15.8147 L -384.24,15.9111 L -384.715,15.9861 L -385.211,16.0397 L -385.727,16.0718  L -386.265,16.0825 L -386.986,16.0616 L -387.678,15.9987 L -388.342,15.8939 L -388.978,15.7472 L -389.585,15.5586  L -390.164,15.3281 L -390.715,15.0557 L -391.238,14.7414 L -391.733,14.3852 L -392.199,13.987 L -392.637,13.547  L -393.047,13.065 L -393.283,12.7424 L -393.505,12.3963 L -393.714,12.0266 L -393.909,11.6333 L -394.091,11.2166  L -394.259,10.7763 L -394.413,10.3124 L -394.553,9.82501 L -394.68,9.31407 L -394.794,8.77959 L -394.893,8.22157  L -394.979,7.64001 L -409.593,8.55551 L -409.456,9.79164 L -409.26,10.991 L -409.006,12.1537 L -408.692,13.2797  L -408.32,14.3689 L -407.889,15.4214 L -407.399,16.4371 L -406.85,17.4162 L -406.242,18.3585 L -405.576,19.2641  L -404.85,20.1329 L -404.066,20.965 L -403.198,21.7449 L -402.222,22.4569 L -401.137,23.1011 L -399.945,23.6775  L -398.643,24.1861 L -397.234,24.6269 L -395.716,24.9998 L -394.09,25.305 L -392.356,25.5423 L -390.513,25.7119  L -388.562,25.8136 L -386.503,25.8475 z M 224.255,-24.7065 L 208.658,-24.7065 L 197.638,11.0645 L 186.449,-24.7065 L 170.378,-24.7065 L 189.162,25  L 205.81,25 z M 141.679,6.55501 L 150.087,6.55501 L 151.603,6.52557 L 153.052,6.43729 L 154.435,6.29013 L 155.752,6.08412  L 157.002,5.81924 L 158.187,5.49551 L 159.305,5.11292 L 160.357,4.67145 L 161.343,4.17113 L 162.263,3.61195  L 163.117,2.99391 L 163.904,2.317 L 164.627,1.58775 L 165.287,0.81282 L 165.885,-0.0078125 L 166.419,-0.8741  L 166.891,-1.78609 L 167.299,-2.74374 L 167.645,-3.74709 L 167.928,-4.7961 L 168.148,-5.89081 L 168.305,-7.03119  L 168.399,-8.21725 L 168.431,-9.44899 L 168.402,-10.6463 L 168.316,-11.7969 L 168.171,-12.901 L 167.969,-13.9584  L 167.71,-14.9692 L 167.393,-15.9334 L 167.018,-16.8509 L 166.585,-17.7219 L 166.095,-18.5462 L 165.547,-19.3239  L 164.941,-20.055 L 164.277,-20.7395 L 163.556,-21.3731 L 162.777,-21.9516 L 161.939,-22.4751 L 161.043,-22.9434  L 160.089,-23.3566 L 159.077,-23.7147 L 158.007,-24.0178 L 156.878,-24.2657 L 155.692,-24.4586 L 154.447,-24.5963  L 153.144,-24.6789 L 151.783,-24.7065 L 126.251,-24.7065 L 126.251,25 L 141.679,25 z M 141.679,-3.515 L 141.679,-14.6025 L 146.053,-14.6025 L 146.751,-14.5912 L 147.412,-14.5573 L 148.034,-14.5008  L 148.618,-14.4217 L 149.164,-14.3199 L 149.672,-14.1956 L 150.142,-14.0487 L 150.574,-13.8792 L 150.967,-13.687  L 151.322,-13.4723 L 151.639,-13.2349 L 151.918,-12.975 L 152.168,-12.6988 L 152.395,-12.4127 L 152.601,-12.1167  L 152.785,-11.8109 L 152.948,-11.4951 L 153.088,-11.1695 L 153.208,-10.834 L 153.305,-10.4885 L 153.381,-10.1332  L 153.435,-9.76805 L 153.468,-9.39296 L 153.478,-9.008 L 153.466,-8.61275 L 153.428,-8.22951 L 153.366,-7.85828  L 153.279,-7.49905 L 153.166,-7.15182 L 153.029,-6.81662 L 152.867,-6.49341 L 152.68,-6.18222 L 152.468,-5.88303  L 152.23,-5.59584 L 151.968,-5.32066 L 151.681,-5.0575 L 151.364,-4.81113 L 151.009,-4.58617 L 150.618,-4.38264  L 150.189,-4.20055 L 149.725,-4.03987 L 149.223,-3.90062 L 148.685,-3.78279 L 148.11,-3.68639 L 147.498,-3.6114  L 146.85,-3.55785 L 146.164,-3.52571 L 145.442,-3.515 z M 96.581,4.69 L 115.84,4.69 L 115.84,-5.34599 L 96.581,-5.34599 L 96.581,-14.026 L 119.129,-14.026  L 119.129,-24.7065 L 81.154,-24.7065 L 81.154,25 L 96.581,25 z M -299.821,7.70801 L -299.81,6.90955 L -299.778,6.15302 L -299.724,5.43839 L -299.648,4.76567 L -299.55,4.13489  L -299.431,3.54601 L -299.29,2.99905 L -299.128,2.494 L -298.944,2.03088 L -298.738,1.60968 L -298.511,1.23038  L -298.262,0.893005 L -297.995,0.589691 L -297.715,0.312759 L -297.422,0.0621948 L -297.116,-0.161987 L -296.797,-0.359802  L -296.465,-0.53125 L -296.119,-0.6763 L -295.76,-0.794998 L -295.388,-0.887299 L -295.003,-0.953247 L -294.604,-0.992798  L -294.193,-1.006 L -293.821,-0.996216 L -293.464,-0.966904 L -293.12,-0.91806 L -292.791,-0.849655 L -292.476,-0.761719  L -292.175,-0.654236 L -291.888,-0.527222 L -291.616,-0.380661 L -291.357,-0.214554 L -291.113,-0.0289154 L -290.883,0.176285  L -290.667,0.401001 L -290.466,0.649277 L -290.283,0.92511 L -290.118,1.22847 L -289.97,1.5594 L -289.839,1.91786  L -289.726,2.30388 L -289.63,2.71745 L -289.551,3.15857 L -289.49,3.62723 L -289.447,4.12344 L -289.421,4.6472  L -289.412,5.1985 L -289.412,25 L -275.545,25 L -275.545,2.11351 L -275.567,0.957855 L -275.634,-0.146942  L -275.747,-1.20087 L -275.904,-2.20393 L -276.107,-3.15614 L -276.354,-4.0575 L -276.646,-4.90797 L -276.984,-5.70761  L -277.366,-6.45636 L -277.793,-7.15427 L -278.265,-7.80132 L -278.783,-8.39749 L -279.339,-8.94446 L -279.928,-9.44386  L -280.551,-9.89571 L -281.207,-10.3 L -281.896,-10.6567 L -282.618,-10.9659 L -283.374,-11.2275 L -284.162,-11.4415  L -284.984,-11.608 L -285.839,-11.7269 L -286.728,-11.7982 L -287.649,-11.822 L -288.275,-11.8133 L -288.887,-11.7871  L -289.484,-11.7436 L -290.068,-11.6826 L -290.637,-11.6042 L -291.192,-11.5084 L -291.733,-11.3951 L -292.26,-11.2644  L -292.773,-11.1163 L -293.272,-10.9508 L -293.757,-10.7679 L -294.227,-10.5675 L -294.691,-10.3469 L -295.155,-10.1032  L -295.619,-9.8364 L -296.084,-9.54655 L -296.55,-9.23363 L -297.016,-8.89761 L -297.482,-8.53854 L -297.949,-8.15639  L -298.416,-7.75114 L -298.884,-7.32285 L -299.352,-6.87146 L -299.821,-6.39699 L -299.821,-24.7065 L -313.621,-24.7065  L -313.621,25 L -299.821,25 z M -209.219,6.623 L -209.208,5.95518 L -209.176,5.3194 L -209.123,4.71564 L -209.049,4.14389 L -208.954,3.60419  L -208.837,3.09651 L -208.7,2.62085 L -208.541,2.17723 L -208.361,1.76562 L -208.159,1.38606 L -207.937,1.03853  L -207.693,0.723007 L -207.433,0.435989 L -207.161,0.17392 L -206.877,-0.0631866 L -206.582,-0.27533 L -206.274,-0.462509  L -205.955,-0.624741 L -205.624,-0.762009 L -205.282,-0.874329 L -204.927,-0.961685 L -204.561,-1.02408 L -204.183,-1.06151  L -203.794,-1.07399 L -203.553,-1.06822 L -203.318,-1.0509 L -203.088,-1.02205 L -202.863,-0.981659 L -202.643,-0.929718  L -202.429,-0.866241 L -202.22,-0.791214 L -202.015,-0.704666 L -201.817,-0.606552 L -201.623,-0.496902 L -201.434,-0.375717  L -201.251,-0.242996 L -201.074,-0.100922 L -200.907,0.0484314 L -200.748,0.205109 L -200.599,0.369064 L -200.458,0.540329  L -200.327,0.718887 L -200.204,0.904739 L -200.09,1.0979 L -199.986,1.29836 L -199.89,1.5061 L -199.803,1.72116  L -199.725,1.94351 L -199.682,2.09543 L -199.642,2.26855 L -199.606,2.46284 L -199.574,2.67834 L -199.546,2.91502  L -199.522,3.17288 L -199.501,3.45193 L -199.484,3.75217 L -199.471,4.07361 L -199.461,4.41621 L -199.456,4.78001  L -199.454,5.16501 L -199.454,25 L -185.62,25 L -185.62,6.41951 L -185.61,5.78442 L -185.579,5.17902  L -185.527,4.60329 L -185.454,4.05724 L -185.361,3.54085 L -185.247,3.05414 L -185.113,2.59709 L -184.957,2.16972  L -184.781,1.77203 L -184.584,1.40402 L -184.367,1.06567 L -184.128,0.757004 L -183.873,0.475418 L -183.605,0.218307  L -183.323,-0.0142975 L -183.028,-0.222443 L -182.72,-0.406082 L -182.399,-0.565247 L -182.065,-0.699921 L -181.717,-0.810104  L -181.356,-0.895798 L -180.983,-0.957016 L -180.595,-0.993744 L -180.195,-1.006 L -179.855,-0.993042 L -179.525,-0.954193  L -179.203,-0.889465 L -178.892,-0.798828 L -178.589,-0.682297 L -178.296,-0.539871 L -178.013,-0.371552 L -177.739,-0.177322  L -177.474,0.0427856 L -177.219,0.288803 L -176.973,0.560699 L -176.737,0.858505 L -176.585,1.06505 L -176.447,1.289  L -176.321,1.53038 L -176.209,1.78917 L -176.11,2.06538 L -176.025,2.35901 L -175.952,2.67004 L -175.893,2.9985  L -175.847,3.34438 L -175.814,3.70767 L -175.794,4.08838 L -175.787,4.48651 L -175.787,25 L -161.953,25  L -161.953,2.38451 L -161.976,1.19089 L -162.044,0.051178 L -162.157,-1.03462 L -162.315,-2.0665 L -162.518,-3.04445  L -162.767,-3.96849 L -163.061,-4.83862 L -163.4,-5.65483 L -163.784,-6.41711 L -164.214,-7.12549 L -164.688,-7.77995  L -165.208,-8.38049 L -165.768,-8.93018 L -166.364,-9.43207 L -166.995,-9.88615 L -167.661,-10.2924 L -168.362,-10.6509  L -169.099,-10.9616 L -169.871,-11.2245 L -170.678,-11.4396 L -171.521,-11.6069 L -172.399,-11.7264 L -173.313,-11.7981  L -174.261,-11.822 L -174.908,-11.8132 L -175.538,-11.7867 L -176.15,-11.7425 L -176.744,-11.6807 L -177.321,-11.6012  L -177.881,-11.5041 L -178.423,-11.3893 L -178.948,-11.2569 L -179.456,-11.1068 L -179.946,-10.939 L -180.418,-10.7536  L -180.873,-10.5505 L -181.324,-10.3229 L -181.782,-10.064 L -182.248,-9.77383 L -182.723,-9.45233 L -183.205,-9.0995  L -183.696,-8.71536 L -184.194,-8.29993 L -184.701,-7.85316 L -185.215,-7.37509 L -185.738,-6.86571 L -186.268,-6.325  L -186.807,-5.75299 L -187.079,-6.24554 L -187.363,-6.71738 L -187.661,-7.16849 L -187.971,-7.59888 L -188.294,-8.00854  L -188.629,-8.39749 L -188.977,-8.76572 L -189.338,-9.11322 L -189.712,-9.43999 L -190.098,-9.74605 L -190.497,-10.0314  L -190.909,-10.296 L -191.34,-10.5397 L -191.795,-10.7623 L -192.276,-10.9636 L -192.782,-11.1438 L -193.312,-11.3027  L -193.868,-11.4405 L -194.448,-11.5571 L -195.053,-11.6524 L -195.684,-11.7266 L -196.339,-11.7796 L -197.019,-11.8114  L -197.725,-11.822 L -198.383,-11.8123 L -199.026,-11.7834 L -199.652,-11.7351 L -200.262,-11.6675 L -200.856,-11.5807  L -201.433,-11.4745 L -201.994,-11.349 L -202.539,-11.2042 L -203.068,-11.0401 L -203.581,-10.8567 L -204.077,-10.654  L -204.557,-10.432 L -205.028,-10.1871 L -205.499,-9.91591 L -205.969,-9.6183 L -206.438,-9.29433 L -206.907,-8.94397  L -207.375,-8.56725 L -207.842,-8.16414 L -208.309,-7.73466 L -208.775,-7.27881 L -209.24,-6.79657 L -209.704,-6.28798  L -210.168,-5.75299 L -210.168,-11.0085 L -223.053,-11.0085 L -223.053,25 L -209.219,25 z M -134.969,25.7976 L -133.676,25.7485 L -132.436,25.6667 L -131.249,25.5522 L -130.115,25.4049 L -129.035,25.2249  L -128.007,25.0121 L -127.033,24.7667 L -126.113,24.4885 L -125.245,24.1776 L -124.431,23.8339 L -123.669,23.4575  L -122.944,23.0434 L -122.236,22.5868 L -121.546,22.0875 L -120.874,21.5456 L -120.22,20.961 L -119.583,20.3339  L -118.965,19.6641 L -118.365,18.9517 L -117.782,18.1967 L -117.217,17.3991 L -116.671,16.5589 L -116.142,15.676  L -129.738,14.421 L -129.952,14.6854 L -130.163,14.9362 L -130.372,15.1733 L -130.578,15.3968 L -130.782,15.6066  L -130.984,15.8028 L -131.183,15.9853 L -131.381,16.1541 L -131.575,16.3093 L -131.768,16.4509 L -131.958,16.5788  L -132.145,16.693 L -132.452,16.8554 L -132.761,17.0038 L -133.074,17.1379 L -133.389,17.258 L -133.706,17.364  L -134.027,17.4558 L -134.351,17.5334 L -134.677,17.597 L -135.006,17.6464 L -135.338,17.6818 L -135.673,17.7029  L -136.011,17.71 L -136.539,17.6938 L -137.051,17.645 L -137.545,17.5638 L -138.023,17.4501 L -138.483,17.3038  L -138.927,17.1251 L -139.353,16.9139 L -139.763,16.6702 L -140.156,16.394 L -140.532,16.0854 L -140.89,15.7442  L -141.232,15.3705 L -141.462,15.0875 L -141.678,14.7809 L -141.879,14.4508 L -142.065,14.0972 L -142.237,13.72  L -142.394,13.3193 L -142.536,12.895 L -142.664,12.4472 L -142.777,11.9758 L -142.876,11.4809 L -142.96,10.9625  L -143.029,10.4205 L -115.362,10.4205 L -115.362,8.8605 L -115.378,7.69244 L -115.427,6.56158 L -115.508,5.46791  L -115.622,4.41145 L -115.768,3.3922 L -115.947,2.41013 L -116.158,1.46527 L -116.402,0.557617 L -116.678,-0.312836  L -116.986,-1.14609 L -117.328,-1.94214 L -117.701,-2.70099 L -118.106,-3.42673 L -118.54,-4.12326 L -119.005,-4.79059  L -119.498,-5.42871 L -120.022,-6.03764 L -120.575,-6.61737 L -121.158,-7.16789 L -121.77,-7.68921 L -122.412,-8.18134  L -123.084,-8.64426 L -123.786,-9.07797 L -124.517,-9.4825 L -125.285,-9.85616 L -126.099,-10.1973 L -126.958,-10.506  L -127.862,-10.7822 L -128.812,-11.0259 L -129.806,-11.2371 L -130.846,-11.4158 L -131.931,-11.562 L -133.061,-11.6758  L -134.236,-11.757 L -135.457,-11.8057 L -136.723,-11.822 L -138.282,-11.7857 L -139.784,-11.677 L -141.229,-11.4957  L -142.617,-11.2418 L -143.947,-10.9155 L -145.22,-10.5166 L -146.436,-10.0452 L -147.595,-9.50133 L -148.697,-8.8849  L -149.741,-8.19595 L -150.728,-7.43448 L -151.658,-6.60049 L -152.522,-5.70787 L -153.311,-4.77052 L -154.024,-3.78844  L -154.663,-2.7616 L -155.226,-1.69005 L -155.714,-0.573746 L -156.127,0.587296 L -156.465,1.79306 L -156.728,3.04356  L -156.916,4.33881 L -157.029,5.67879 L -157.066,7.06351 L -157.048,8.04172 L -156.991,8.99849 L -156.898,9.93385  L -156.767,10.8478 L -156.598,11.7403 L -156.392,12.6114 L -156.149,13.461 L -155.868,14.2893 L -155.55,15.0961  L -155.194,15.8815 L -154.801,16.6455 L -154.371,17.388 L -153.912,18.1034 L -153.433,18.7858 L -152.935,19.4352  L -152.417,20.0516 L -151.88,20.6351 L -151.324,21.1856 L -150.747,21.7032 L -150.151,22.1878 L -149.536,22.6394  L -148.901,23.0581 L -148.247,23.4438 L -147.573,23.7965 L -146.868,24.1187 L -146.121,24.413 L -145.331,24.6792  L -144.499,24.9173 L -143.624,25.1275 L -142.707,25.3096 L -141.748,25.4637 L -140.746,25.5898 L -139.702,25.6879  L -138.616,25.7579 L -137.487,25.8 L -136.316,25.814 z M -142.995,3.8085 L -142.932,3.28275 L -142.857,2.7791 L -142.769,2.29761 L -142.668,1.83823 L -142.554,1.40099  L -142.427,0.985886 L -142.288,0.592911 L -142.136,0.222061 L -141.972,-0.126648 L -141.795,-0.453232 L -141.605,-0.757675  L -141.402,-1.03999 L -141.065,-1.45703 L -140.71,-1.8378 L -140.336,-2.18231 L -139.944,-2.49055 L -139.533,-2.76253  L -139.105,-2.99825 L -138.658,-3.19769 L -138.192,-3.36089 L -137.708,-3.48781 L -137.206,-3.57846 L -136.685,-3.63286  L -136.146,-3.65099 L -135.679,-3.63898 L -135.228,-3.60295 L -134.791,-3.54289 L -134.37,-3.45883 L -133.964,-3.35074  L -133.574,-3.21861 L -133.199,-3.06248 L -132.839,-2.88232 L -132.494,-2.67815 L -132.165,-2.44995 L -131.851,-2.19774  L -131.552,-1.92149 L -131.271,-1.61755 L -131.007,-1.28204 L -130.763,-0.914993 L -130.537,-0.516388 L -130.329,-0.0862122  L -130.141,0.375504 L -129.971,0.86879 L -129.819,1.39362 L -129.686,1.95001 L -129.572,2.53795 L -129.476,3.15746  L -129.399,3.8085 z M -337.57,25.836 L -336.625,25.8014 L -335.708,25.7437 L -334.82,25.6629 L -333.962,25.5591 L -333.132,25.4322  L -332.332,25.2823 L -331.56,25.1093 L -330.817,24.9132 L -330.104,24.694 L -329.419,24.4518 L -328.763,24.1865  L -328.131,23.9003 L -327.518,23.5955 L -326.924,23.2721 L -326.35,22.9301 L -325.794,22.5695 L -325.258,22.1903  L -324.74,21.7925 L -324.242,21.3761 L -323.763,20.9411 L -323.303,20.4875 L -322.861,20.0153 L -322.439,19.5245  L -322.036,19.0167 L -321.653,18.4936 L -321.289,17.9552 L -320.944,17.4015 L -320.618,16.8324 L -320.312,16.2481  L -320.024,15.6485 L -319.757,15.0336 L -319.508,14.4034 L -319.279,13.7579 L -319.069,13.0971 L -318.879,12.421  L -332.001,10.929 L -332.16,11.399 L -332.332,11.8482 L -332.517,12.2768 L -332.715,12.6846 L -332.925,13.0716  L -333.149,13.438 L -333.386,13.7836 L -333.636,14.1086 L -333.898,14.4128 L -334.174,14.6962 L -334.462,14.959  L -334.764,15.201 L -335.078,15.423 L -335.404,15.6257 L -335.742,15.8091 L -336.092,15.9732 L -336.454,16.118  L -336.828,16.2435 L -337.214,16.3497 L -337.612,16.4366 L -338.022,16.5041 L -338.444,16.5524 L -338.878,16.5814  L -339.324,16.591 L -339.859,16.575 L -340.377,16.527 L -340.88,16.4469 L -341.366,16.3348 L -341.837,16.1908  L -342.291,16.0146 L -342.73,15.8065 L -343.152,15.5663 L -343.559,15.2942 L -343.949,14.99 L -344.323,14.6537  L -344.682,14.2855 L -345.018,13.8864 L -345.324,13.4577 L -345.602,12.9993 L -345.85,12.5112 L -346.069,11.9934  L -346.258,11.446 L -346.419,10.8689 L -346.55,10.2622 L -346.653,9.62576 L -346.726,8.95967 L -346.769,8.26393  L -346.784,7.53851 L -346.769,6.7253 L -346.725,5.94719 L -346.651,5.20416 L -346.548,4.49623 L -346.416,3.82338  L -346.254,3.18564 L -346.063,2.58296 L -345.842,2.0154 L -345.592,1.48291 L -345.312,0.985519 L -345.003,0.523224  L -344.665,0.0960083 L -344.303,-0.296677 L -343.922,-0.655197 L -343.524,-0.979584 L -343.107,-1.26982 L -342.672,-1.52592  L -342.219,-1.74786 L -341.748,-1.93567 L -341.259,-2.08932 L -340.752,-2.20883 L -340.226,-2.2942 L -339.683,-2.34541  L -339.121,-2.36249 L -338.676,-2.35437 L -338.247,-2.32999 L -337.834,-2.28937 L -337.435,-2.2325 L -337.052,-2.15936  L -336.684,-2.06999 L -336.331,-1.96437 L -335.994,-1.8425 L -335.672,-1.70436 L -335.365,-1.54999 L -335.074,-1.37936  L -334.798,-1.19249 L -334.536,-0.989685 L -334.289,-0.771088 L -334.055,-0.536713 L -333.835,-0.286545 L -333.629,-0.0205994  L -333.437,0.261139 L -333.259,0.558655 L -333.095,0.871948 L -332.945,1.20103 L -332.808,1.54591 L -332.686,1.90657  L -332.577,2.283 L -319.591,0.553513 L -319.921,-0.437744 L -320.289,-1.38849 L -320.696,-2.29874 L -321.141,-3.16849  L -321.625,-3.99774 L -322.147,-4.7865 L -322.707,-5.53474 L -323.306,-6.24249 L -323.943,-6.90974 L -324.618,-7.5365  L -325.332,-8.12274 L -326.084,-8.66849 L -326.885,-9.17218 L -327.743,-9.63206 L -328.66,-10.0481 L -329.635,-10.4204  L -330.668,-10.7489 L -331.759,-11.0336 L -332.909,-11.2745 L -334.116,-11.4716 L -335.382,-11.6249 L -336.706,-11.7344  L -338.088,-11.8001 L -339.528,-11.822 L -340.563,-11.8105 L -341.567,-11.7758 L -342.539,-11.7182 L -343.48,-11.6374  L -344.389,-11.5336 L -345.267,-11.4067 L -346.113,-11.2568 L -346.927,-11.0838 L -347.71,-10.8877 L -348.461,-10.6685  L -349.181,-10.4263 L -349.869,-10.161 L -350.292,-9.97809 L -350.713,-9.77989 L -351.132,-9.56641 L -351.55,-9.3376  L -351.965,-9.09351 L -352.379,-8.83412 L -352.79,-8.55943 L -353.2,-8.26944 L -353.608,-7.96414 L -354.014,-7.64355  L -354.418,-7.30768 L -354.82,-6.9565 L -355.214,-6.59378 L -355.594,-6.22328 L -355.96,-5.84502 L -356.312,-5.459  L -356.649,-5.06519 L -356.973,-4.66362 L -357.282,-4.25427 L -357.577,-3.83716 L -357.858,-3.41228 L -358.125,-2.97961  L -358.378,-2.53918 L -358.617,-2.09099 L -358.92,-1.46213 L -359.197,-0.807343 L -359.448,-0.126648 L -359.672,0.579956  L -359.87,1.31247 L -360.041,2.07088 L -360.186,2.85521 L -360.305,3.66545 L -360.397,4.5016 L -360.463,5.36366  L -360.503,6.25163 L -360.516,7.16551 L -360.505,8.03809 L -360.473,8.88147 L -360.418,9.69566 L -360.343,10.4807  L -360.245,11.2365 L -360.126,11.9631 L -359.985,12.6606 L -359.823,13.3288 L -359.639,13.9679 L -359.433,14.5778  L -359.205,15.1585 L -358.956,15.71 L -358.688,16.2411 L -358.403,16.7606 L -358.102,17.2686 L -357.785,17.7651  L -357.45,18.25 L -357.1,18.7234 L -356.733,19.1852 L -356.349,19.6356 L -355.949,20.0744 L -355.532,20.5016  L -355.099,20.9173 L -354.65,21.3215 L -354.185,21.7107 L -353.705,22.0815 L -353.21,22.4339 L -352.7,22.768  L -352.176,23.0837 L -351.637,23.381 L -351.082,23.66 L -350.513,23.9206 L -349.93,24.1629 L -349.331,24.3868  L -348.718,24.5923 L -348.089,24.7795 L -347.44,24.9501 L -346.765,25.1058 L -346.062,25.2467 L -345.334,25.3728  L -344.578,25.4841 L -343.796,25.5805 L -342.987,25.6621 L -342.152,25.7288 L -341.29,25.7807 L -340.401,25.8178  L -339.486,25.8401 L -338.544,25.8475 z M -247.876,25.7771 L -246.342,25.6666 L -244.866,25.4823 L -243.45,25.2244 L -242.092,24.8927 L -240.792,24.4874  L -239.551,24.0083 L -238.369,23.4556 L -237.246,22.8291 L -236.181,22.1289 L -235.175,21.3551 L -234.227,20.5075  L -233.347,19.6022 L -232.544,18.6553 L -231.816,17.6667 L -231.166,16.6365 L -230.592,15.5645 L -230.095,14.4509  L -229.674,13.2956 L -229.329,12.0986 L -229.061,10.86 L -228.87,9.57967 L -228.755,8.25768 L -228.717,6.89401  L -228.748,5.67834 L -228.84,4.49516 L -228.995,3.34448 L -229.211,2.22629 L -229.488,1.14059 L -229.828,0.0873871  L -230.229,-0.933334 L -230.691,-1.92155 L -231.216,-2.87727 L -231.802,-3.80051 L -232.45,-4.69124 L -233.159,-5.5495  L -234.117,-6.55135 L -235.148,-7.46609 L -236.253,-8.29372 L -237.431,-9.03421 L -238.683,-9.68761 L -240.008,-10.2539  L -241.407,-10.733 L -242.879,-11.125 L -244.424,-11.43 L -246.043,-11.6478 L -247.736,-11.7784 L -249.502,-11.822  L -251.051,-11.7849 L -252.547,-11.6736 L -253.988,-11.4882 L -255.375,-11.2286 L -256.708,-10.8948 L -257.987,-10.4869  L -259.212,-10.0047 L -260.382,-9.44844 L -261.498,-8.81796 L -262.561,-8.11331 L -263.569,-7.33449 L -264.523,-6.48149  L -265.411,-5.57137 L -266.222,-4.62097 L -266.955,-3.63031 L -267.612,-2.59938 L -268.191,-1.5282 L -268.693,-0.416748  L -269.118,0.73497 L -269.465,1.92696 L -269.736,3.15919 L -269.929,4.4317 L -270.044,5.74448 L -270.083,7.0975  L -270.037,8.54887 L -269.9,9.95316 L -269.672,11.3103 L -269.352,12.6205 L -268.941,13.8835 L -268.439,15.0994  L -267.845,16.2682 L -267.16,17.39 L -266.383,18.4646 L -265.515,19.4922 L -264.556,20.4726 L -263.505,21.406  L -262.589,22.1101 L -261.627,22.7529 L -260.619,23.3345 L -259.565,23.8549 L -258.464,24.3141 L -257.317,24.712  L -256.125,25.0487 L -254.886,25.3242 L -253.6,25.5385 L -252.269,25.6915 L -250.892,25.7834 L -249.468,25.814  z M -249.885,16.4735 L -250.356,16.4255 L -250.813,16.3454 L -251.256,16.2333 L -251.685,16.0892 L -252.1,15.9131  L -252.501,15.705 L -252.889,15.4648 L -253.262,15.1927 L -253.622,14.8885 L -253.968,14.5522 L -254.3,14.184  L -254.611,13.7823 L -254.895,13.3458 L -255.153,12.8744 L -255.383,12.3682 L -255.586,11.8271 L -255.762,11.2511  L -255.911,10.6403 L -256.033,9.99467 L -256.127,9.31416 L -256.195,8.5988 L -256.236,7.84859 L -256.249,7.06351  L -256.235,6.28918 L -256.194,5.54852 L -256.126,4.84154 L -256.031,4.16823 L -255.908,3.52859 L -255.757,2.92264  L -255.58,2.35034 L -255.375,1.81174 L -255.143,1.30679 L -254.883,0.835526 L -254.597,0.397934 L -254.283,-0.0059967  L -253.948,-0.376953 L -253.598,-0.715652 L -253.234,-1.02208 L -252.855,-1.29626 L -252.461,-1.53819 L -252.053,-1.74786  L -251.631,-1.92528 L -251.193,-2.07043 L -250.742,-2.18333 L -250.275,-2.26398 L -249.794,-2.31236 L -249.299,-2.32849  L -248.83,-2.31259 L -248.375,-2.26491 L -247.932,-2.18542 L -247.501,-2.07416 L -247.084,-1.93109 L -246.679,-1.75624  L -246.287,-1.54959 L -245.908,-1.31116 L -245.541,-1.04092 L -245.187,-0.738907 L -244.846,-0.40509 L -244.518,-0.0394897  L -244.209,0.358521 L -243.927,0.789749 L -243.672,1.25417 L -243.444,1.75179 L -243.243,2.28261 L -243.068,2.84663  L -242.921,3.44386 L -242.8,4.07428 L -242.706,4.73792 L -242.639,5.43474 L -242.599,6.16478 L -242.585,6.92801  L -242.598,7.74527 L -242.638,8.5244 L -242.705,9.26538 L -242.798,9.96823 L -242.918,10.6329 L -243.064,11.2595  L -243.237,11.8479 L -243.437,12.3982 L -243.663,12.9104 L -243.916,13.3844 L -244.195,13.8203 L -244.501,14.218  L -244.828,14.5808 L -245.169,14.9121 L -245.526,15.2118 L -245.897,15.4799 L -246.283,15.7166 L -246.684,15.9216  L -247.099,16.0952 L -247.53,16.2371 L -247.975,16.3475 L -248.435,16.4264 L -248.91,16.4737 L -249.4,16.4895  z "
     stroke="black"
     fill="lightgray"
     stroke-width="0.5"
     id="path1" />
  <metadata
     id="metadata1">
    <rdf:RDF>
      <cc:Work
         rdf:about="">
        <dc:title>OpenSCAD Model</dc:title>
      </cc:Work>
    </rdf:RDF>
  </metadata>
</svg>
