<?xml version="1.0" standalone="no"?>
<!DOCTYPE svg PUBLIC "-//W3C//DTD SVG 1.1//EN" "http://www.w3.org/Graphics/SVG/1.1/DTD/svg11.dtd">
<svg width="154mm" height="154mm" viewBox="-77 -77 154 154" xmlns="http://www.w3.org/2000/svg" version="1.1">
<title>OpenSCAD Model</title>
<path d="
M -42.0079,76.8384 L -39.8602,76.5432 L -37.7375,76.1021 L -35.65,75.5172 L -33.6072,74.7912 L -31.6187,73.9274
 L -29.6938,72.93 L -27.8415,71.8036 L -26.0703,70.5534 L -24.3886,69.1852 L -22.8042,67.7055 L -21.3244,66.121
 L -19.9563,64.4393 L -18.7061,62.6682 L -17.5796,60.8158 L -16.5822,58.8909 L -15.7185,56.9024 L -14.9925,54.8597
 L -14.4076,52.7721 L -13.9665,50.6495 L -13.6713,48.5017 L -13.5233,46.3388 L -13.5233,44.1708 L -13.6713,42.0079
 L -13.9665,39.8602 L -14.4076,37.7375 L -14.9925,35.65 L -15.7185,33.6072 L -16.5822,31.6187 L -17.5796,29.6938
 L -18.7061,27.8415 L -19.9563,26.0703 L -20.1614,25.8182 L -13.1387,18.7955 L -13.0388,18.7023 L -12.9329,18.6161
 L -12.8214,18.5374 L -12.7047,18.4664 L -12.5834,18.4036 L -12.4581,18.3492 L -12.3295,18.3034 L -12.198,18.2666
 L -12.0643,18.2388 L -11.929,18.2202 L -11.7927,18.2109 L -11.6562,18.2109 L -11.5199,18.2202 L -11.3846,18.2388
 L -11.2509,18.2666 L -11.1194,18.3034 L -10.9907,18.3492 L -10.8655,18.4036 L -10.7442,18.4664 L -10.6275,18.5374
 L -10.516,18.6161 L -10.41,18.7023 L -10.3102,18.7955 L -10.217,18.8953 L -10.1308,19.0013 L -10.0521,19.1128
 L -9.98112,19.2295 L -9.91829,19.3508 L -9.86389,19.476 L -9.81815,19.6047 L -9.78131,19.7362 L -9.75352,19.8699
 L -9.73492,20.0052 L -9.72729,20.1028 L -9.29594,28.1637 L -9.2921,28.2127 L -9.28207,28.3103 L -9.27277,28.378
 L -9.25768,28.4656 L -9.2438,28.5324 L -9.22284,28.6184 L -9.20432,28.6845 L -9.17751,28.769 L -9.15471,28.8331
 L -9.12213,28.9157 L -9.09482,28.9786 L -9.05688,29.0583 L -9.0253,29.1193 L -8.9819,29.1965 L -8.94647,29.2548
 L -8.89778,29.329 L -8.85834,29.3849 L -8.80481,29.4554 L -8.76166,29.5085 L -8.70343,29.5753 L -8.65671,29.6253
 L -8.59409,29.6879 L -8.54401,29.7347 L -8.47717,29.793 L -8.42432,29.836 L -8.35364,29.8896 L -8.29776,29.929
 L -8.22366,29.9776 L -8.16518,30.0132 L -8.08798,30.0566 L -8.02721,30.0881 L -7.94714,30.1261 L -7.88457,30.1533
 L -7.80219,30.1858 L -7.73749,30.2088 L -7.65327,30.2355 L -7.58714,30.2541 L -7.50104,30.275 L -7.43445,30.2889
 L -7.34691,30.304 L -7.27896,30.3133 L -7.19096,30.3224 L -7.12282,30.327 L -7.01761,30.3306 L -6.96565,30.3315
 L -6.82927,30.3385 L -6.69368,30.3548 L -6.55952,30.3803 L -6.42741,30.4149 L -6.29797,30.4585 L -6.17181,30.5108
 L -6.04951,30.5715 L -5.93164,30.6405 L -5.81876,30.7173 L -5.71136,30.8017 L -5.61,30.8932 L -5.51511,30.9914
 L -5.42712,31.0959 L -5.3465,31.2061 L -5.27356,31.3215 L -5.20869,31.4417 L -5.15216,31.566 L -5.10425,31.6939
 L -5.06519,31.8248 L -5.03513,31.958 L -5.01424,32.093 L -5.00261,32.229 L -5,32.3312 L -5,37.0958
 L -5.00467,37.2323 L -5.01863,37.3681 L -5.04182,37.5027 L -5.07417,37.6354 L -5.11548,37.7656 L -5.16557,37.8926
 L -5.22423,38.0159 L -5.29117,38.135 L -5.36606,38.2492 L -5.44858,38.358 L -5.53833,38.4609 L -5.63503,38.5576
 L -5.7066,38.6244 L -5.7534,38.6746 L -5.7964,38.7274 L -5.83565,38.783 L -5.87128,38.8416 L -5.90242,38.9017
 L -5.92964,38.9643 L -5.95267,39.0291 L -5.97096,39.0944 L -5.98492,39.1617 L -5.99416,39.2289 L -5.99883,39.2971
 L -5.99883,39.3653 L -5.99414,39.4338 L -5.98489,39.501 L -5.97096,39.568 L -5.95267,39.6333 L -5.92964,39.6981
 L -5.90242,39.7607 L -5.87117,39.821 L -5.83566,39.8794 L -5.79633,39.9351 L -5.75325,39.9881 L -5.70676,40.0378
 L -5.65665,40.0846 L -5.60379,40.1276 L -5.54817,40.1669 L -5.48958,40.2025 L -5.42949,40.2336 L -5.36687,40.2609
 L -5.30208,40.2839 L -5.23677,40.3022 L -5.16953,40.3161 L -5.10233,40.3254 L -5.03381,40.3301 L -5.01762,40.3306
 L -4.98253,40.3312 L 4.98253,40.3312 L 5.01762,40.3306 L 5.03381,40.3301 L 5.10254,40.3254 L 5.16974,40.3161
 L 5.23677,40.3022 L 5.30208,40.2839 L 5.36687,40.2609 L 5.42949,40.2336 L 5.48978,40.2024 L 5.54817,40.1669
 L 5.60406,40.1274 L 5.65665,40.0846 L 5.70676,40.0378 L 5.75334,39.988 L 5.79636,39.9351 L 5.83566,39.8794
 L 5.87128,39.8208 L 5.90242,39.7607 L 5.92964,39.6981 L 5.95267,39.6333 L 5.97096,39.568 L 5.98492,39.5007
 L 5.99416,39.4335 L 5.99883,39.3653 L 5.99883,39.2971 L 5.99414,39.2287 L 5.98489,39.1615 L 5.97096,39.0944
 L 5.95267,39.0291 L 5.92964,38.9643 L 5.90242,38.9017 L 5.87117,38.8414 L 5.83565,38.783 L 5.79619,38.7271
 L 5.7534,38.6746 L 5.7066,38.6244 L 5.63503,38.5576 L 5.53845,38.461 L 5.44868,38.3581 L 5.36617,38.2493
 L 5.29126,38.1351 L 5.22432,38.0161 L 5.16565,37.8928 L 5.11554,37.7657 L 5.07422,37.6356 L 5.04187,37.5029
 L 5.01865,37.3683 L 5.00467,37.2325 L 5,37.0958 L 5,32.3312 L 5.00467,32.1947 L 5.01863,32.0589
 L 5.04182,31.9243 L 5.07417,31.7916 L 5.11548,31.6615 L 5.16557,31.5344 L 5.22423,31.4111 L 5.29117,31.2921
 L 5.36606,31.1779 L 5.44858,31.069 L 5.53833,30.9661 L 5.63489,30.8696 L 5.73782,30.7798 L 5.84663,30.6973
 L 5.96083,30.6224 L 6.07986,30.5555 L 6.2032,30.4968 L 6.33025,30.4467 L 6.4604,30.4054 L 6.59309,30.373
 L 6.72766,30.3499 L 6.86351,30.3359 L 6.96565,30.3315 L 7.01761,30.3306 L 7.12282,30.327 L 7.19096,30.3224
 L 7.27896,30.3133 L 7.34691,30.304 L 7.43445,30.2889 L 7.50104,30.275 L 7.58714,30.2541 L 7.65327,30.2355
 L 7.73749,30.2088 L 7.80219,30.1858 L 7.88457,30.1533 L 7.94714,30.1261 L 8.02721,30.0881 L 8.08798,30.0566
 L 8.16518,30.0132 L 8.22366,29.9776 L 8.29776,29.929 L 8.35364,29.8896 L 8.42432,29.836 L 8.47717,29.793
 L 8.54401,29.7347 L 8.59409,29.6879 L 8.65671,29.6253 L 8.70343,29.5753 L 8.76166,29.5085 L 8.80481,29.4554
 L 8.85834,29.3849 L 8.89778,29.329 L 8.94647,29.2548 L 8.9819,29.1965 L 9.0253,29.1193 L 9.05688,29.0583
 L 9.09482,28.9786 L 9.12213,28.9157 L 9.15471,28.8331 L 9.17751,28.769 L 9.20432,28.6845 L 9.22284,28.6184
 L 9.2438,28.5324 L 9.25768,28.4656 L 9.27277,28.378 L 9.28207,28.3103 L 9.2921,28.2127 L 9.29594,28.1637
 L 9.72729,20.1028 L 9.73924,19.9668 L 9.76045,19.8319 L 9.79082,19.6987 L 9.83018,19.568 L 9.8784,19.4402
 L 9.93521,19.316 L 10.0004,19.196 L 10.0736,19.0807 L 10.1545,18.9707 L 10.2427,18.8664 L 10.3378,18.7684
 L 10.4394,18.6772 L 10.547,18.5931 L 10.66,18.5165 L 10.7781,18.4478 L 10.9005,18.3873 L 11.0268,18.3353
 L 11.1563,18.2921 L 11.2885,18.2578 L 11.4227,18.2326 L 11.5584,18.2166 L 11.6948,18.2099 L 11.8313,18.2126
 L 11.9673,18.2245 L 12.1023,18.2457 L 12.2354,18.2761 L 12.3662,18.3155 L 12.4939,18.3637 L 12.6181,18.4205
 L 12.7381,18.4857 L 12.8534,18.5589 L 12.9635,18.6397 L 13.0677,18.728 L 13.1387,18.7955 L 20.1614,25.8182
 L 19.9563,26.0703 L 18.7061,27.8415 L 17.5796,29.6938 L 16.5822,31.6187 L 15.7185,33.6072 L 14.9925,35.65
 L 14.4076,37.7375 L 13.9665,39.8602 L 13.6713,42.0079 L 13.5233,44.1708 L 13.5233,46.3388 L 13.6713,48.5017
 L 13.9665,50.6495 L 14.4076,52.7721 L 14.9925,54.8597 L 15.7185,56.9024 L 16.5822,58.8909 L 17.5796,60.8158
 L 18.7061,62.6682 L 19.9563,64.4393 L 21.3244,66.121 L 22.8042,67.7055 L 24.3886,69.1852 L 26.0703,70.5534
 L 27.8415,71.8036 L 29.6938,72.93 L 31.6187,73.9274 L 33.6072,74.7912 L 35.65,75.5172 L 37.7375,76.1021
 L 39.8602,76.5432 L 42.0079,76.8384 L 44.1708,76.9863 L 46.3388,76.9863 L 48.5017,76.8384 L 50.6495,76.5432
 L 52.7721,76.1021 L 54.8597,75.5172 L 56.9024,74.7912 L 58.8909,73.9274 L 60.8158,72.93 L 62.6682,71.8036
 L 64.4393,70.5534 L 66.121,69.1852 L 67.7055,67.7055 L 69.1852,66.121 L 70.5534,64.4393 L 71.8036,62.6682
 L 72.93,60.8158 L 73.9274,58.8909 L 74.7912,56.9024 L 75.5172,54.8597 L 76.1021,52.7721 L 76.5432,50.6495
 L 76.8384,48.5017 L 76.9863,46.3388 L 76.9863,44.1708 L 76.8384,42.0079 L 76.5432,39.8602 L 76.1021,37.7375
 L 75.5172,35.65 L 74.7912,33.6072 L 73.9274,31.6187 L 72.93,29.6938 L 71.8036,27.8415 L 70.5534,26.0703
 L 69.1852,24.3886 L 67.7055,22.8042 L 66.121,21.3244 L 64.4393,19.9563 L 62.6682,18.7061 L 60.8158,17.5796
 L 58.8909,16.5822 L 56.9024,15.7185 L 54.8597,14.9925 L 52.7721,14.4076 L 50.6495,13.9665 L 48.5017,13.6713
 L 46.3388,13.5233 L 44.1708,13.5233 L 42.0079,13.6713 L 39.8602,13.9665 L 37.7375,14.4076 L 35.65,14.9925
 L 33.6072,15.7185 L 31.6187,16.5822 L 29.6938,17.5796 L 27.8415,18.7061 L 26.0703,19.9563 L 25.8182,20.1614
 L 18.4159,12.759 L 18.3227,12.6592 L 18.2365,12.5533 L 18.1577,12.4417 L 18.0868,12.325 L 18.0239,12.2038
 L 17.9695,12.0785 L 17.9238,11.9498 L 17.887,11.8183 L 17.8592,11.6846 L 17.8406,11.5493 L 17.8313,11.4131
 L 17.8313,11.2765 L 17.8406,11.1403 L 17.8592,11.005 L 17.887,10.8713 L 17.9238,10.7398 L 17.9695,10.6111
 L 18.0239,10.4859 L 18.0868,10.3646 L 18.1945,10.1938 L 22.9237,3.47331 L 22.942,3.44632 L 23.1389,3.14612
 L 23.1745,3.08763 L 23.3418,2.79013 L 23.3731,2.72968 L 23.5199,2.42099 L 23.5469,2.35883 L 23.6723,2.04092
 L 23.6951,1.97676 L 23.7983,1.65155 L 23.8169,1.58536 L 23.8976,1.25386 L 23.9115,1.18713 L 23.9695,0.850708
 L 23.9788,0.783081 L 24.0138,0.443161 L 24.0184,0.375626 L 24.0301,0.0339355 L 24.0301,-0.0339355 L 24.0184,-0.375626
 L 24.0138,-0.443161 L 23.9788,-0.783081 L 23.9695,-0.850708 L 23.9115,-1.18713 L 23.8976,-1.25386 L 23.8169,-1.58536
 L 23.7983,-1.65155 L 23.6951,-1.97676 L 23.6723,-2.04092 L 23.5469,-2.35883 L 23.5199,-2.42099 L 23.3731,-2.72968
 L 23.3418,-2.79013 L 23.1745,-3.08763 L 23.1389,-3.14612 L 22.942,-3.44632 L 22.9237,-3.47331 L 18.1945,-10.1938
 L 18.1198,-10.3081 L 18.053,-10.4273 L 17.9945,-10.5507 L 17.9446,-10.6778 L 17.9035,-10.808 L 17.8713,-10.9408
 L 17.8483,-11.0754 L 17.8346,-11.2112 L 17.8301,-11.3477 L 17.835,-11.4842 L 17.8491,-11.62 L 17.8725,-11.7546
 L 17.905,-11.8872 L 17.9465,-12.0173 L 17.9968,-12.1443 L 18.0557,-12.2675 L 18.1228,-12.3865 L 18.1978,-12.5005
 L 18.2805,-12.6093 L 18.4159,-12.759 L 25.8182,-20.1614 L 26.0703,-19.9563 L 27.8415,-18.7061 L 29.6938,-17.5796
 L 31.6187,-16.5822 L 33.6072,-15.7185 L 35.65,-14.9925 L 37.7375,-14.4076 L 39.8602,-13.9665 L 42.0079,-13.6713
 L 44.1708,-13.5233 L 46.3388,-13.5233 L 48.5017,-13.6713 L 50.6495,-13.9665 L 52.7721,-14.4076 L 54.8597,-14.9925
 L 56.9024,-15.7185 L 58.8909,-16.5822 L 60.8158,-17.5796 L 62.6682,-18.7061 L 64.4393,-19.9563 L 66.121,-21.3244
 L 67.7055,-22.8042 L 69.1852,-24.3886 L 70.5534,-26.0703 L 71.8036,-27.8415 L 72.93,-29.6938 L 73.9274,-31.6187
 L 74.7912,-33.6072 L 75.5172,-35.65 L 76.1021,-37.7375 L 76.5432,-39.8602 L 76.8384,-42.0079 L 76.9863,-44.1708
 L 76.9863,-46.3388 L 76.8384,-48.5017 L 76.5432,-50.6495 L 76.1021,-52.7721 L 75.5172,-54.8597 L 74.7912,-56.9024
 L 73.9274,-58.8909 L 72.93,-60.8158 L 71.8036,-62.6682 L 70.5534,-64.4393 L 69.1852,-66.121 L 67.7055,-67.7055
 L 66.121,-69.1852 L 64.4393,-70.5534 L 62.6682,-71.8036 L 60.8158,-72.93 L 58.8909,-73.9274 L 56.9024,-74.7912
 L 54.8597,-75.5172 L 52.7721,-76.1021 L 50.6495,-76.5432 L 48.5017,-76.8384 L 46.3388,-76.9863 L 44.1708,-76.9863
 L 42.0079,-76.8384 L 39.8602,-76.5432 L 37.7375,-76.1021 L 35.65,-75.5172 L 33.6072,-74.7912 L 31.6187,-73.9274
 L 29.6938,-72.93 L 27.8415,-71.8036 L 26.0703,-70.5534 L 24.3886,-69.1852 L 22.8042,-67.7055 L 21.3244,-66.121
 L 19.9563,-64.4393 L 18.7061,-62.6682 L 17.5796,-60.8158 L 16.5822,-58.8909 L 15.7185,-56.9024 L 14.9925,-54.8597
 L 14.4076,-52.7721 L 13.9665,-50.6495 L 13.6713,-48.5017 L 13.5233,-46.3388 L 13.5233,-44.1708 L 13.6713,-42.0079
 L 13.9665,-39.8602 L 14.4076,-37.7375 L 14.9925,-35.65 L 15.7185,-33.6072 L 16.5822,-31.6187 L 17.5796,-29.6938
 L 18.7061,-27.8415 L 19.9563,-26.0703 L 20.1614,-25.8182 L 15.4239,-21.0807 L 15.3241,-20.9875 L 15.2181,-20.9013
 L 15.1066,-20.8226 L 14.9899,-20.7516 L 14.8686,-20.6888 L 14.7433,-20.6344 L 14.6147,-20.5886 L 14.4832,-20.5518
 L 14.3495,-20.524 L 14.2142,-20.5054 L 14.0779,-20.4961 L 13.9414,-20.4961 L 13.8051,-20.5054 L 13.6698,-20.524
 L 13.5361,-20.5518 L 13.4046,-20.5886 L 13.2759,-20.6344 L 13.1507,-20.6888 L 13.0294,-20.7516 L 12.9127,-20.8226
 L 12.8012,-20.9013 L 12.6952,-20.9875 L 12.5954,-21.0807 L 12.5022,-21.1805 L 12.416,-21.2865 L 12.3373,-21.398
 L 12.2663,-21.5147 L 12.2035,-21.636 L 12.1491,-21.7612 L 12.1033,-21.8899 L 12.0665,-22.0214 L 12.0387,-22.1551
 L 12.0201,-22.2904 L 12.0108,-22.4266 L 12.0125,-22.6018 L 12.2412,-26.8752 L 12.2488,-26.9728 L 12.2678,-27.1579
 L 12.2725,-27.2258 L 12.2988,-27.9973 L 12.2988,-28.0652 L 12.2725,-28.8367 L 12.2678,-28.9044 L 12.1889,-29.6723
 L 12.1796,-29.7396 L 12.0485,-30.5001 L 12.0347,-30.5668 L 11.852,-31.3165 L 11.8336,-31.3822 L 11.6,-32.118
 L 11.5774,-32.1817 L 11.2942,-32.8999 L 11.267,-32.9625 L 10.9357,-33.6591 L 10.9042,-33.7198 L 10.526,-34.3924
 L 10.4907,-34.4505 L 10.0673,-35.096 L 10.0283,-35.1513 L 9.56169,-35.7666 L 9.51898,-35.8191 L 9.01169,-36.4009
 L 8.96513,-36.4508 L 8.41954,-36.9964 L 8.36969,-37.0429 L 7.78806,-37.5501 L 7.73517,-37.5931 L 7.12054,-38.0592
 L 7.06447,-38.0988 L 6.41954,-38.5218 L 6.36086,-38.5574 L 5.68869,-38.9354 L 5.62785,-38.9669 L 4.93144,-39.2981
 L 4.86844,-39.3255 L 4.15044,-39.6086 L 4.08682,-39.6312 L 3.35098,-39.8648 L 3.28525,-39.8832 L 2.53569,-40.0659
 L 2.46892,-40.0797 L 1.70822,-40.2109 L 1.6411,-40.2201 L 0.873306,-40.299 L 0.805389,-40.3037 L 0.0339355,-40.3301
 L -0.0339355,-40.3301 L -0.805389,-40.3037 L -0.873306,-40.299 L -1.6411,-40.2201 L -1.70822,-40.2109 L -2.46892,-40.0797
 L -2.53569,-40.0659 L -3.28525,-39.8832 L -3.35098,-39.8648 L -4.08682,-39.6312 L -4.15044,-39.6086 L -4.86844,-39.3255
 L -4.93144,-39.2981 L -5.62785,-38.9669 L -5.68869,-38.9354 L -6.36086,-38.5574 L -6.41954,-38.5218 L -7.06447,-38.0988
 L -7.12054,-38.0592 L -7.73517,-37.5931 L -7.78806,-37.5501 L -8.36969,-37.0429 L -8.41954,-36.9964 L -8.96513,-36.4508
 L -9.01169,-36.4009 L -9.51898,-35.8191 L -9.56169,-35.7666 L -10.0283,-35.1513 L -10.0673,-35.096 L -10.4907,-34.4505
 L -10.526,-34.3924 L -10.9042,-33.7198 L -10.9357,-33.6591 L -11.267,-32.9625 L -11.2942,-32.8999 L -11.5774,-32.1817
 L -11.6,-32.118 L -11.8336,-31.3822 L -11.852,-31.3165 L -12.0347,-30.5668 L -12.0485,-30.5001 L -12.1796,-29.7396
 L -12.1889,-29.6723 L -12.2678,-28.9044 L -12.2725,-28.8367 L -12.2988,-28.0652 L -12.2988,-27.9973 L -12.2725,-27.2258
 L -12.2678,-27.1579 L -12.2488,-26.9728 L -12.2412,-26.8752 L -12.0125,-22.6018 L -12.0099,-22.4653 L -12.0166,-22.3289
 L -12.0325,-22.1932 L -12.0577,-22.059 L -12.092,-21.9268 L -12.1353,-21.7973 L -12.1872,-21.671 L -12.2477,-21.5486
 L -12.3164,-21.4305 L -12.393,-21.3174 L -12.4771,-21.2099 L -12.5684,-21.1083 L -12.6664,-21.0132 L -12.7706,-20.9249
 L -12.8806,-20.8441 L -12.9959,-20.7709 L -13.116,-20.7057 L -13.2401,-20.6489 L -13.3679,-20.6007 L -13.4987,-20.5613
 L -13.6318,-20.5309 L -13.7667,-20.5097 L -13.9028,-20.4978 L -14.0393,-20.4951 L -14.1757,-20.5018 L -14.3113,-20.5178
 L -14.4456,-20.543 L -14.5777,-20.5773 L -14.7073,-20.6205 L -14.8336,-20.6725 L -14.956,-20.733 L -15.0741,-20.8017
 L -15.1871,-20.8783 L -15.2947,-20.9624 L -15.4239,-21.0807 L -20.1614,-25.8182 L -19.9563,-26.0703 L -18.7061,-27.8415
 L -17.5796,-29.6938 L -16.5822,-31.6187 L -15.7185,-33.6072 L -14.9925,-35.65 L -14.4076,-37.7375 L -13.9665,-39.8602
 L -13.6713,-42.0079 L -13.5233,-44.1708 L -13.5233,-46.3388 L -13.6713,-48.5017 L -13.9665,-50.6495 L -14.4076,-52.7721
 L -14.9925,-54.8597 L -15.7185,-56.9024 L -16.5822,-58.8909 L -17.5796,-60.8158 L -18.7061,-62.6682 L -19.9563,-64.4393
 L -21.3244,-66.121 L -22.8042,-67.7055 L -24.3886,-69.1852 L -26.0703,-70.5534 L -27.8415,-71.8036 L -29.6938,-72.93
 L -31.6187,-73.9274 L -33.6072,-74.7912 L -35.65,-75.5172 L -37.7375,-76.1021 L -39.8602,-76.5432 L -42.0079,-76.8384
 L -44.1708,-76.9863 L -46.3388,-76.9863 L -48.5017,-76.8384 L -50.6495,-76.5432 L -52.7721,-76.1021 L -54.8597,-75.5172
 L -56.9024,-74.7912 L -58.8909,-73.9274 L -60.8158,-72.93 L -62.6682,-71.8036 L -64.4393,-70.5534 L -66.121,-69.1852
 L -67.7055,-67.7055 L -69.1852,-66.121 L -70.5534,-64.4393 L -71.8036,-62.6682 L -72.93,-60.8158 L -73.9274,-58.8909
 L -74.7912,-56.9024 L -75.5172,-54.8597 L -76.1021,-52.7721 L -76.5432,-50.6495 L -76.8384,-48.5017 L -76.9863,-46.3388
 L -76.9863,-44.1708 L -76.8384,-42.0079 L -76.5432,-39.8602 L -76.1021,-37.7375 L -75.5172,-35.65 L -74.7912,-33.6072
 L -73.9274,-31.6187 L -72.93,-29.6938 L -71.8036,-27.8415 L -70.5534,-26.0703 L -69.1852,-24.3886 L -67.7055,-22.8042
 L -66.121,-21.3244 L -64.4393,-19.9563 L -62.6682,-18.7061 L -60.8158,-17.5796 L -58.8909,-16.5822 L -56.9024,-15.7185
 L -54.8597,-14.9925 L -52.7721,-14.4076 L -50.6495,-13.9665 L -48.5017,-13.6713 L -46.3388,-13.5233 L -44.1708,-13.5233
 L -42.0079,-13.6713 L -39.8602,-13.9665 L -37.7375,-14.4076 L -35.65,-14.9925 L -33.6072,-15.7185 L -31.6187,-16.5822
 L -29.6938,-17.5796 L -27.8415,-18.7061 L -26.0703,-19.9563 L -25.8182,-20.1614 L -18.4159,-12.759 L -18.3227,-12.6592
 L -18.2365,-12.5533 L -18.1577,-12.4417 L -18.0868,-12.325 L -18.0239,-12.2038 L -17.9695,-12.0785 L -17.9238,-11.9498
 L -17.887,-11.8183 L -17.8592,-11.6846 L -17.8406,-11.5493 L -17.8313,-11.4131 L -17.8313,-11.2765 L -17.8406,-11.1403
 L -17.8592,-11.005 L -17.887,-10.8713 L -17.9238,-10.7398 L -17.9695,-10.6111 L -18.0239,-10.4859 L -18.0868,-10.3646
 L -18.1945,-10.1938 L -22.9237,-3.47331 L -22.942,-3.44632 L -23.1389,-3.14612 L -23.1745,-3.08763 L -23.3418,-2.79013
 L -23.3731,-2.72968 L -23.5199,-2.42099 L -23.5469,-2.35883 L -23.6723,-2.04092 L -23.6951,-1.97676 L -23.7983,-1.65155
 L -23.8169,-1.58536 L -23.8976,-1.25386 L -23.9115,-1.18713 L -23.9695,-0.850708 L -23.9788,-0.783081 L -24.0138,-0.443161
 L -24.0184,-0.375626 L -24.0301,-0.0339355 L -24.0301,0.0339355 L -24.0184,0.375626 L -24.0138,0.443161 L -23.9788,0.783081
 L -23.9695,0.850708 L -23.9115,1.18713 L -23.8976,1.25386 L -23.8169,1.58536 L -23.7983,1.65155 L -23.6951,1.97676
 L -23.6723,2.04092 L -23.5469,2.35883 L -23.5199,2.42099 L -23.3731,2.72968 L -23.3418,2.79013 L -23.1745,3.08763
 L -23.1389,3.14612 L -22.942,3.44632 L -22.9237,3.47331 L -18.1945,10.1938 L -18.1198,10.3081 L -18.053,10.4273
 L -17.9945,10.5507 L -17.9446,10.6778 L -17.9035,10.808 L -17.8713,10.9408 L -17.8483,11.0754 L -17.8346,11.2112
 L -17.8301,11.3477 L -17.835,11.4842 L -17.8491,11.62 L -17.8725,11.7546 L -17.905,11.8872 L -17.9465,12.0173
 L -17.9968,12.1443 L -18.0557,12.2675 L -18.1228,12.3865 L -18.1978,12.5005 L -18.2805,12.6093 L -18.4159,12.759
 L -25.8182,20.1614 L -26.0703,19.9563 L -27.8415,18.7061 L -29.6938,17.5796 L -31.6187,16.5822 L -33.6072,15.7185
 L -35.65,14.9925 L -37.7375,14.4076 L -39.8602,13.9665 L -42.0079,13.6713 L -44.1708,13.5233 L -46.3388,13.5233
 L -48.5017,13.6713 L -50.6495,13.9665 L -52.7721,14.4076 L -54.8597,14.9925 L -56.9024,15.7185 L -58.8909,16.5822
 L -60.8158,17.5796 L -62.6682,18.7061 L -64.4393,19.9563 L -66.121,21.3244 L -67.7055,22.8042 L -69.1852,24.3886
 L -70.5534,26.0703 L -71.8036,27.8415 L -72.93,29.6938 L -73.9274,31.6187 L -74.7912,33.6072 L -75.5172,35.65
 L -76.1021,37.7375 L -76.5432,39.8602 L -76.8384,42.0079 L -76.9863,44.1708 L -76.9863,46.3388 L -76.8384,48.5017
 L -76.5432,50.6495 L -76.1021,52.7721 L -75.5172,54.8597 L -74.7912,56.9024 L -73.9274,58.8909 L -72.93,60.8158
 L -71.8036,62.6682 L -70.5534,64.4393 L -69.1852,66.121 L -67.7055,67.7055 L -66.121,69.1852 L -64.4393,70.5534
 L -62.6682,71.8036 L -60.8158,72.93 L -58.8909,73.9274 L -56.9024,74.7912 L -54.8597,75.5172 L -52.7721,76.1021
 L -50.6495,76.5432 L -48.5017,76.8384 L -46.3388,76.9863 L -44.1708,76.9863 z
M 44.3074,-17.521 L 42.417,-17.6503 L 40.5398,-17.9083 L 38.6846,-18.2939 L 36.86,-18.8051 L 35.0746,-19.4396
 L 33.3367,-20.1945 L 31.6543,-21.0663 L 30.0353,-22.0508 L 28.6708,-23.0139 L 42.4536,-36.7968 L 42.5534,-36.89
 L 42.6594,-36.9762 L 42.7709,-37.0549 L 42.8876,-37.1259 L 43.0089,-37.1887 L 43.1341,-37.2431 L 43.2628,-37.2888
 L 43.3943,-37.3257 L 43.528,-37.3535 L 43.6633,-37.3721 L 43.7995,-37.3814 L 43.9361,-37.3814 L 44.0724,-37.3721
 L 44.2076,-37.3535 L 44.3414,-37.3257 L 44.4994,-37.2872 L 44.5663,-37.2733 L 44.7378,-37.2437 L 44.8053,-37.2344
 L 44.9783,-37.2166 L 45.0471,-37.2119 L 45.2205,-37.206 L 45.2892,-37.206 L 45.4626,-37.2119 L 45.5314,-37.2166
 L 45.7043,-37.2344 L 45.7718,-37.2437 L 45.9435,-37.2733 L 46.01,-37.2871 L 46.1794,-37.3284 L 46.2451,-37.3468
 L 46.4113,-37.3996 L 46.4752,-37.4222 L 46.6377,-37.4863 L 46.6998,-37.5133 L 46.8574,-37.5882 L 46.9176,-37.6194
 L 47.0697,-37.705 L 47.1278,-37.7403 L 47.2733,-37.8357 L 47.3295,-37.8754 L 47.4677,-37.9802 L 47.5212,-38.0237
 L 47.652,-38.1378 L 47.7021,-38.1846 L 52.3252,-42.8077 L 52.3718,-42.8576 L 52.4861,-42.9887 L 52.5293,-43.0417
 L 52.6342,-43.1801 L 52.6739,-43.2364 L 52.7693,-43.3818 L 52.8047,-43.44 L 52.8902,-43.592 L 52.9214,-43.6523
 L 52.9962,-43.8096 L 53.0234,-43.8722 L 53.0873,-44.0342 L 53.1102,-44.0987 L 53.1628,-44.2643 L 53.1813,-44.3304
 L 53.2225,-44.4994 L 53.2364,-44.5663 L 53.266,-44.7378 L 53.2752,-44.8053 L 53.293,-44.9786 L 53.2977,-45.0466
 L 53.3036,-45.2209 L 53.3036,-45.2888 L 53.2977,-45.4631 L 53.293,-45.5311 L 53.2752,-45.7043 L 53.266,-45.7718
 L 53.2364,-45.9435 L 53.2225,-46.01 L 53.1813,-46.1793 L 53.1628,-46.2454 L 53.1101,-46.4112 L 53.0874,-46.4752
 L 53.0233,-46.6377 L 52.9964,-46.6998 L 52.9214,-46.8574 L 52.8902,-46.9176 L 52.8047,-47.0697 L 52.7693,-47.1278
 L 52.6739,-47.2733 L 52.6342,-47.3295 L 52.5293,-47.4679 L 52.4861,-47.521 L 52.3718,-47.6521 L 52.3252,-47.702
 L 47.702,-52.3252 L 47.6521,-52.3718 L 47.521,-52.4861 L 47.4679,-52.5293 L 47.3295,-52.6342 L 47.2733,-52.6739
 L 47.1278,-52.7693 L 47.0697,-52.8047 L 46.9176,-52.8902 L 46.8574,-52.9214 L 46.6998,-52.9964 L 46.6377,-53.0233
 L 46.4752,-53.0874 L 46.4112,-53.1101 L 46.2454,-53.1628 L 46.1793,-53.1813 L 46.01,-53.2225 L 45.9435,-53.2364
 L 45.7718,-53.266 L 45.7043,-53.2752 L 45.5311,-53.293 L 45.4631,-53.2977 L 45.2888,-53.3036 L 45.2209,-53.3036
 L 45.0466,-53.2977 L 44.9786,-53.293 L 44.8053,-53.2752 L 44.7378,-53.266 L 44.5663,-53.2364 L 44.4994,-53.2225
 L 44.3304,-53.1813 L 44.2643,-53.1628 L 44.0987,-53.1102 L 44.0342,-53.0873 L 43.8722,-53.0234 L 43.8096,-52.9962
 L 43.6523,-52.9214 L 43.592,-52.8902 L 43.44,-52.8047 L 43.3818,-52.7693 L 43.2364,-52.6739 L 43.1801,-52.6342
 L 43.0417,-52.5293 L 42.9887,-52.4861 L 42.8576,-52.3718 L 42.8077,-52.3252 L 38.1846,-47.7021 L 38.1378,-47.652
 L 38.0237,-47.5212 L 37.9802,-47.4677 L 37.8754,-47.3295 L 37.8357,-47.2733 L 37.7403,-47.1278 L 37.705,-47.0697
 L 37.6194,-46.9176 L 37.5882,-46.8574 L 37.5133,-46.6998 L 37.4863,-46.6377 L 37.4222,-46.4752 L 37.3996,-46.4113
 L 37.3468,-46.2451 L 37.3284,-46.1794 L 37.2871,-46.01 L 37.2733,-45.9435 L 37.2437,-45.7718 L 37.2344,-45.7043
 L 37.2166,-45.5314 L 37.2119,-45.4626 L 37.206,-45.2892 L 37.206,-45.2205 L 37.2119,-45.0471 L 37.2166,-44.9783
 L 37.2344,-44.8053 L 37.2437,-44.7378 L 37.2733,-44.5663 L 37.2872,-44.4994 L 37.3257,-44.3414 L 37.3535,-44.2077
 L 37.3721,-44.0724 L 37.3814,-43.9362 L 37.3814,-43.7996 L 37.3721,-43.6634 L 37.3535,-43.5281 L 37.3257,-43.3944
 L 37.2889,-43.2629 L 37.2431,-43.1342 L 37.1887,-43.0089 L 37.1259,-42.8877 L 37.055,-42.771 L 36.9762,-42.6594
 L 36.89,-42.5535 L 36.7968,-42.4536 L 23.0139,-28.6708 L 22.0508,-30.0353 L 21.0663,-31.6543 L 20.1945,-33.3367
 L 19.4396,-35.0746 L 18.8051,-36.86 L 18.2939,-38.6846 L 17.9083,-40.5398 L 17.6503,-42.417 L 17.521,-44.3074
 L 17.521,-46.2022 L 17.6503,-48.0927 L 17.9083,-49.9698 L 18.2939,-51.825 L 18.8051,-53.6496 L 19.4396,-55.435
 L 20.1945,-57.173 L 21.0663,-58.8554 L 22.0508,-60.4744 L 23.1435,-62.0224 L 24.3393,-63.4922 L 25.6326,-64.877
 L 27.0174,-66.1703 L 28.4873,-67.3661 L 30.0353,-68.4589 L 31.6543,-69.4434 L 33.3367,-70.3151 L 35.0746,-71.07
 L 36.86,-71.7046 L 38.6846,-72.2158 L 40.5398,-72.6013 L 42.417,-72.8593 L 44.3074,-72.9886 L 46.2022,-72.9886
 L 48.0927,-72.8593 L 49.9698,-72.6013 L 51.825,-72.2158 L 53.6496,-71.7046 L 55.435,-71.07 L 57.173,-70.3151
 L 58.8554,-69.4434 L 60.4744,-68.4589 L 62.0224,-67.3661 L 63.4922,-66.1703 L 64.877,-64.877 L 66.1703,-63.4922
 L 67.3661,-62.0224 L 68.4589,-60.4744 L 69.4434,-58.8554 L 70.3151,-57.173 L 71.07,-55.435 L 71.7046,-53.6496
 L 72.2158,-51.825 L 72.6013,-49.9698 L 72.8593,-48.0927 L 72.9886,-46.2022 L 72.9886,-44.3074 L 72.8593,-42.417
 L 72.6013,-40.5398 L 72.2158,-38.6846 L 71.7046,-36.86 L 71.07,-35.0746 L 70.3151,-33.3367 L 69.4434,-31.6543
 L 68.4589,-30.0353 L 67.3661,-28.4873 L 66.1703,-27.0174 L 64.877,-25.6326 L 63.4922,-24.3393 L 62.0224,-23.1435
 L 60.4744,-22.0508 L 58.8554,-21.0663 L 57.173,-20.1945 L 55.435,-19.4396 L 53.6496,-18.8051 L 51.825,-18.2939
 L 49.9698,-17.9083 L 48.0927,-17.6503 L 46.2022,-17.521 z
M -46.2022,-17.521 L -48.0927,-17.6503 L -49.9698,-17.9083 L -51.825,-18.2939 L -53.6496,-18.8051 L -55.435,-19.4396
 L -57.173,-20.1945 L -58.8554,-21.0663 L -60.4744,-22.0508 L -62.0224,-23.1435 L -63.4922,-24.3393 L -64.877,-25.6326
 L -66.1703,-27.0174 L -67.3661,-28.4873 L -68.4589,-30.0353 L -69.4434,-31.6543 L -70.3151,-33.3367 L -71.07,-35.0746
 L -71.7046,-36.86 L -72.2158,-38.6846 L -72.6013,-40.5398 L -72.8593,-42.417 L -72.9886,-44.3074 L -72.9886,-46.2022
 L -72.8593,-48.0927 L -72.6013,-49.9698 L -72.2158,-51.825 L -71.7046,-53.6496 L -71.07,-55.435 L -70.3151,-57.173
 L -69.4434,-58.8554 L -68.4589,-60.4744 L -67.3661,-62.0224 L -66.1703,-63.4922 L -64.877,-64.877 L -63.4922,-66.1703
 L -62.0224,-67.3661 L -60.4744,-68.4589 L -58.8554,-69.4434 L -57.173,-70.3151 L -55.435,-71.07 L -53.6496,-71.7046
 L -51.825,-72.2158 L -49.9698,-72.6013 L -48.0927,-72.8593 L -46.2022,-72.9886 L -44.3074,-72.9886 L -42.417,-72.8593
 L -40.5398,-72.6013 L -38.6846,-72.2158 L -36.86,-71.7046 L -35.0746,-71.07 L -33.3367,-70.3151 L -31.6543,-69.4434
 L -30.0353,-68.4589 L -28.4873,-67.3661 L -27.0174,-66.1703 L -25.6326,-64.877 L -24.3393,-63.4922 L -23.1435,-62.0224
 L -22.0508,-60.4744 L -21.0663,-58.8554 L -20.1945,-57.173 L -19.4396,-55.435 L -18.8051,-53.6496 L -18.2939,-51.825
 L -17.9083,-49.9698 L -17.6503,-48.0927 L -17.521,-46.2022 L -17.521,-44.3074 L -17.6503,-42.417 L -17.9083,-40.5398
 L -18.2939,-38.6846 L -18.8051,-36.86 L -19.4396,-35.0746 L -20.1945,-33.3367 L -21.0663,-31.6543 L -22.0508,-30.0353
 L -23.0139,-28.6708 L -36.7968,-42.4536 L -36.89,-42.5534 L -36.9762,-42.6594 L -37.0549,-42.7709 L -37.1259,-42.8876
 L -37.1887,-43.0089 L -37.2431,-43.1341 L -37.2888,-43.2628 L -37.3257,-43.3943 L -37.3535,-43.528 L -37.3721,-43.6633
 L -37.3814,-43.7995 L -37.3814,-43.9361 L -37.3721,-44.0724 L -37.3535,-44.2076 L -37.3257,-44.3414 L -37.2872,-44.4994
 L -37.2733,-44.5663 L -37.2437,-44.7378 L -37.2344,-44.8053 L -37.2166,-44.9783 L -37.2119,-45.0471 L -37.206,-45.2205
 L -37.206,-45.2892 L -37.2119,-45.4626 L -37.2166,-45.5314 L -37.2344,-45.7043 L -37.2437,-45.7718 L -37.2733,-45.9435
 L -37.2871,-46.01 L -37.3284,-46.1794 L -37.3468,-46.2451 L -37.3996,-46.4113 L -37.4222,-46.4752 L -37.4863,-46.6377
 L -37.5133,-46.6998 L -37.5882,-46.8574 L -37.6194,-46.9176 L -37.705,-47.0697 L -37.7403,-47.1278 L -37.8357,-47.2733
 L -37.8754,-47.3295 L -37.9802,-47.4677 L -38.0237,-47.5212 L -38.1378,-47.652 L -38.1846,-47.7021 L -42.8077,-52.3252
 L -42.8576,-52.3718 L -42.9887,-52.4861 L -43.0417,-52.5293 L -43.1801,-52.6342 L -43.2364,-52.6739 L -43.3818,-52.7693
 L -43.44,-52.8047 L -43.592,-52.8902 L -43.6523,-52.9214 L -43.8096,-52.9962 L -43.8722,-53.0234 L -44.0342,-53.0873
 L -44.0987,-53.1102 L -44.2643,-53.1628 L -44.3304,-53.1813 L -44.4994,-53.2225 L -44.5663,-53.2364 L -44.7378,-53.266
 L -44.8053,-53.2752 L -44.9786,-53.293 L -45.0466,-53.2977 L -45.2209,-53.3036 L -45.2888,-53.3036 L -45.4631,-53.2977
 L -45.5311,-53.293 L -45.7043,-53.2752 L -45.7718,-53.266 L -45.9435,-53.2364 L -46.01,-53.2225 L -46.1793,-53.1813
 L -46.2454,-53.1628 L -46.4112,-53.1101 L -46.4752,-53.0874 L -46.6377,-53.0233 L -46.6998,-52.9964 L -46.8574,-52.9214
 L -46.9176,-52.8902 L -47.0697,-52.8047 L -47.1278,-52.7693 L -47.2733,-52.6739 L -47.3295,-52.6342 L -47.4679,-52.5293
 L -47.521,-52.4861 L -47.6521,-52.3718 L -47.702,-52.3252 L -52.3252,-47.702 L -52.3718,-47.6521 L -52.4861,-47.521
 L -52.5293,-47.4679 L -52.6342,-47.3295 L -52.6739,-47.2733 L -52.7693,-47.1278 L -52.8047,-47.0697 L -52.8902,-46.9176
 L -52.9214,-46.8574 L -52.9964,-46.6998 L -53.0233,-46.6377 L -53.0874,-46.4752 L -53.1101,-46.4112 L -53.1628,-46.2454
 L -53.1813,-46.1793 L -53.2225,-46.01 L -53.2364,-45.9435 L -53.266,-45.7718 L -53.2752,-45.7043 L -53.293,-45.5311
 L -53.2977,-45.4631 L -53.3036,-45.2888 L -53.3036,-45.2209 L -53.2977,-45.0466 L -53.293,-44.9786 L -53.2752,-44.8053
 L -53.266,-44.7378 L -53.2364,-44.5663 L -53.2225,-44.4994 L -53.1813,-44.3304 L -53.1628,-44.2643 L -53.1102,-44.0987
 L -53.0873,-44.0342 L -53.0234,-43.8722 L -52.9962,-43.8096 L -52.9214,-43.6523 L -52.8902,-43.592 L -52.8047,-43.44
 L -52.7693,-43.3818 L -52.6739,-43.2364 L -52.6342,-43.1801 L -52.5293,-43.0417 L -52.4861,-42.9887 L -52.3718,-42.8576
 L -52.3252,-42.8077 L -47.7021,-38.1846 L -47.652,-38.1378 L -47.5212,-38.0237 L -47.4677,-37.9802 L -47.3295,-37.8754
 L -47.2733,-37.8357 L -47.1278,-37.7403 L -47.0697,-37.705 L -46.9176,-37.6194 L -46.8574,-37.5882 L -46.6998,-37.5133
 L -46.6377,-37.4863 L -46.4752,-37.4222 L -46.4113,-37.3996 L -46.2451,-37.3468 L -46.1794,-37.3284 L -46.01,-37.2871
 L -45.9435,-37.2733 L -45.7718,-37.2437 L -45.7043,-37.2344 L -45.5314,-37.2166 L -45.4626,-37.2119 L -45.2892,-37.206
 L -45.2205,-37.206 L -45.0471,-37.2119 L -44.9783,-37.2166 L -44.8053,-37.2344 L -44.7378,-37.2437 L -44.5663,-37.2733
 L -44.4994,-37.2872 L -44.3414,-37.3257 L -44.2077,-37.3535 L -44.0724,-37.3721 L -43.9362,-37.3814 L -43.7996,-37.3814
 L -43.6634,-37.3721 L -43.5281,-37.3535 L -43.3944,-37.3257 L -43.2629,-37.2889 L -43.1342,-37.2431 L -43.0089,-37.1887
 L -42.8877,-37.1259 L -42.771,-37.055 L -42.6594,-36.9762 L -42.5535,-36.89 L -42.4536,-36.7968 L -28.6708,-23.0139
 L -30.0353,-22.0508 L -31.6543,-21.0663 L -33.3367,-20.1945 L -35.0746,-19.4396 L -36.86,-18.8051 L -38.6846,-18.2939
 L -40.5398,-17.9083 L -42.417,-17.6503 L -44.3074,-17.521 z
M 44.3074,72.9886 L 42.417,72.8593 L 40.5398,72.6013 L 38.6846,72.2158 L 36.86,71.7046 L 35.0746,71.07
 L 33.3367,70.3151 L 31.6543,69.4434 L 30.0353,68.4589 L 28.4873,67.3661 L 27.0174,66.1703 L 25.6326,64.877
 L 24.3393,63.4922 L 23.1435,62.0224 L 22.0508,60.4744 L 21.0663,58.8554 L 20.1945,57.173 L 19.4396,55.435
 L 18.8051,53.6496 L 18.2939,51.825 L 17.9083,49.9698 L 17.6503,48.0927 L 17.521,46.2022 L 17.521,44.3074
 L 17.6503,42.417 L 17.9083,40.5398 L 18.2939,38.6846 L 18.8051,36.86 L 19.4396,35.0746 L 20.1945,33.3367
 L 21.0663,31.6543 L 22.0508,30.0353 L 23.0139,28.6708 L 36.7968,42.4536 L 36.89,42.5534 L 36.9762,42.6594
 L 37.0549,42.7709 L 37.1259,42.8876 L 37.1887,43.0089 L 37.2431,43.1341 L 37.2888,43.2628 L 37.3257,43.3943
 L 37.3535,43.528 L 37.3721,43.6633 L 37.3814,43.7995 L 37.3814,43.9361 L 37.3721,44.0724 L 37.3535,44.2076
 L 37.3257,44.3414 L 37.2872,44.4994 L 37.2733,44.5663 L 37.2437,44.7378 L 37.2344,44.8053 L 37.2166,44.9783
 L 37.2119,45.0471 L 37.206,45.2205 L 37.206,45.2892 L 37.2119,45.4626 L 37.2166,45.5314 L 37.2344,45.7043
 L 37.2437,45.7718 L 37.2733,45.9435 L 37.2871,46.01 L 37.3284,46.1794 L 37.3468,46.2451 L 37.3996,46.4113
 L 37.4222,46.4752 L 37.4863,46.6377 L 37.5133,46.6998 L 37.5882,46.8574 L 37.6194,46.9176 L 37.705,47.0697
 L 37.7403,47.1278 L 37.8357,47.2733 L 37.8754,47.3295 L 37.9802,47.4677 L 38.0237,47.5212 L 38.1378,47.652
 L 38.1846,47.7021 L 42.8077,52.3252 L 42.8576,52.3718 L 42.9887,52.4861 L 43.0417,52.5293 L 43.1801,52.6342
 L 43.2364,52.6739 L 43.3818,52.7693 L 43.44,52.8047 L 43.592,52.8902 L 43.6523,52.9214 L 43.8096,52.9962
 L 43.8722,53.0234 L 44.0342,53.0873 L 44.0987,53.1102 L 44.2643,53.1628 L 44.3304,53.1813 L 44.4994,53.2225
 L 44.5663,53.2364 L 44.7378,53.266 L 44.8053,53.2752 L 44.9786,53.293 L 45.0466,53.2977 L 45.2209,53.3036
 L 45.2888,53.3036 L 45.4631,53.2977 L 45.5311,53.293 L 45.7043,53.2752 L 45.7718,53.266 L 45.9435,53.2364
 L 46.01,53.2225 L 46.1793,53.1813 L 46.2454,53.1628 L 46.4112,53.1101 L 46.4752,53.0874 L 46.6377,53.0233
 L 46.6998,52.9964 L 46.8574,52.9214 L 46.9176,52.8902 L 47.0697,52.8047 L 47.1278,52.7693 L 47.2733,52.6739
 L 47.3295,52.6342 L 47.4679,52.5293 L 47.521,52.4861 L 47.6521,52.3718 L 47.702,52.3252 L 52.3252,47.702
 L 52.3718,47.6521 L 52.4861,47.521 L 52.5293,47.4679 L 52.6342,47.3295 L 52.6739,47.2733 L 52.7693,47.1278
 L 52.8047,47.0697 L 52.8902,46.9176 L 52.9214,46.8574 L 52.9964,46.6998 L 53.0233,46.6377 L 53.0874,46.4752
 L 53.1101,46.4112 L 53.1628,46.2454 L 53.1813,46.1793 L 53.2225,46.01 L 53.2364,45.9435 L 53.266,45.7718
 L 53.2752,45.7043 L 53.293,45.5311 L 53.2977,45.4631 L 53.3036,45.2888 L 53.3036,45.2209 L 53.2977,45.0466
 L 53.293,44.9786 L 53.2752,44.8053 L 53.266,44.7378 L 53.2364,44.5663 L 53.2225,44.4994 L 53.1813,44.3304
 L 53.1628,44.2643 L 53.1102,44.0987 L 53.0873,44.0342 L 53.0234,43.8722 L 52.9962,43.8096 L 52.9214,43.6523
 L 52.8902,43.592 L 52.8047,43.44 L 52.7693,43.3818 L 52.6739,43.2364 L 52.6342,43.1801 L 52.5293,43.0417
 L 52.4861,42.9887 L 52.3718,42.8576 L 52.3252,42.8077 L 47.7021,38.1846 L 47.652,38.1378 L 47.5212,38.0237
 L 47.4677,37.9802 L 47.3295,37.8754 L 47.2733,37.8357 L 47.1278,37.7403 L 47.0697,37.705 L 46.9176,37.6194
 L 46.8574,37.5882 L 46.6998,37.5133 L 46.6377,37.4863 L 46.4752,37.4222 L 46.4113,37.3996 L 46.2451,37.3468
 L 46.1794,37.3284 L 46.01,37.2871 L 45.9435,37.2733 L 45.7718,37.2437 L 45.7043,37.2344 L 45.5314,37.2166
 L 45.4626,37.2119 L 45.2892,37.206 L 45.2205,37.206 L 45.0471,37.2119 L 44.9783,37.2166 L 44.8053,37.2344
 L 44.7378,37.2437 L 44.5663,37.2733 L 44.4994,37.2872 L 44.3414,37.3257 L 44.2077,37.3535 L 44.0724,37.3721
 L 43.9362,37.3814 L 43.7996,37.3814 L 43.6634,37.3721 L 43.5281,37.3535 L 43.3944,37.3257 L 43.2629,37.2889
 L 43.1342,37.2431 L 43.0089,37.1887 L 42.8877,37.1259 L 42.771,37.055 L 42.6594,36.9762 L 42.5535,36.89
 L 42.4536,36.7968 L 28.6708,23.0139 L 30.0353,22.0508 L 31.6543,21.0663 L 33.3367,20.1945 L 35.0746,19.4396
 L 36.86,18.8051 L 38.6846,18.2939 L 40.5398,17.9083 L 42.417,17.6503 L 44.3074,17.521 L 46.2022,17.521
 L 48.0927,17.6503 L 49.9698,17.9083 L 51.825,18.2939 L 53.6496,18.8051 L 55.435,19.4396 L 57.173,20.1945
 L 58.8554,21.0663 L 60.4744,22.0508 L 62.0224,23.1435 L 63.4922,24.3393 L 64.877,25.6326 L 66.1703,27.0174
 L 67.3661,28.4873 L 68.4589,30.0353 L 69.4434,31.6543 L 70.3151,33.3367 L 71.07,35.0746 L 71.7046,36.86
 L 72.2158,38.6846 L 72.6013,40.5398 L 72.8593,42.417 L 72.9886,44.3074 L 72.9886,46.2022 L 72.8593,48.0927
 L 72.6013,49.9698 L 72.2158,51.825 L 71.7046,53.6496 L 71.07,55.435 L 70.3151,57.173 L 69.4434,58.8554
 L 68.4589,60.4744 L 67.3661,62.0224 L 66.1703,63.4922 L 64.877,64.877 L 63.4922,66.1703 L 62.0224,67.3661
 L 60.4744,68.4589 L 58.8554,69.4434 L 57.173,70.3151 L 55.435,71.07 L 53.6496,71.7046 L 51.825,72.2158
 L 49.9698,72.6013 L 48.0927,72.8593 L 46.2022,72.9886 z
M -46.2022,72.9886 L -48.0927,72.8593 L -49.9698,72.6013 L -51.825,72.2158 L -53.6496,71.7046 L -55.435,71.07
 L -57.173,70.3151 L -58.8554,69.4434 L -60.4744,68.4589 L -62.0224,67.3661 L -63.4922,66.1703 L -64.877,64.877
 L -66.1703,63.4922 L -67.3661,62.0224 L -68.4589,60.4744 L -69.4434,58.8554 L -70.3151,57.173 L -71.07,55.435
 L -71.7046,53.6496 L -72.2158,51.825 L -72.6013,49.9698 L -72.8593,48.0927 L -72.9886,46.2022 L -72.9886,44.3074
 L -72.8593,42.417 L -72.6013,40.5398 L -72.2158,38.6846 L -71.7046,36.86 L -71.07,35.0746 L -70.3151,33.3367
 L -69.4434,31.6543 L -68.4589,30.0353 L -67.3661,28.4873 L -66.1703,27.0174 L -64.877,25.6326 L -63.4922,24.3393
 L -62.0224,23.1435 L -60.4744,22.0508 L -58.8554,21.0663 L -57.173,20.1945 L -55.435,19.4396 L -53.6496,18.8051
 L -51.825,18.2939 L -49.9698,17.9083 L -48.0927,17.6503 L -46.2022,17.521 L -44.3074,17.521 L -42.417,17.6503
 L -40.5398,17.9083 L -38.6846,18.2939 L -36.86,18.8051 L -35.0746,19.4396 L -33.3367,20.1945 L -31.6543,21.0663
 L -30.0353,22.0508 L -28.6708,23.0139 L -42.4536,36.7968 L -42.5534,36.89 L -42.6594,36.9762 L -42.7709,37.0549
 L -42.8876,37.1259 L -43.0089,37.1887 L -43.1341,37.2431 L -43.2628,37.2888 L -43.3943,37.3257 L -43.528,37.3535
 L -43.6633,37.3721 L -43.7995,37.3814 L -43.9361,37.3814 L -44.0724,37.3721 L -44.2076,37.3535 L -44.3414,37.3257
 L -44.4994,37.2872 L -44.5663,37.2733 L -44.7378,37.2437 L -44.8053,37.2344 L -44.9783,37.2166 L -45.0471,37.2119
 L -45.2205,37.206 L -45.2892,37.206 L -45.4626,37.2119 L -45.5314,37.2166 L -45.7043,37.2344 L -45.7718,37.2437
 L -45.9435,37.2733 L -46.01,37.2871 L -46.1794,37.3284 L -46.2451,37.3468 L -46.4113,37.3996 L -46.4752,37.4222
 L -46.6377,37.4863 L -46.6998,37.5133 L -46.8574,37.5882 L -46.9176,37.6194 L -47.0697,37.705 L -47.1278,37.7403
 L -47.2733,37.8357 L -47.3295,37.8754 L -47.4677,37.9802 L -47.5212,38.0237 L -47.652,38.1378 L -47.7021,38.1846
 L -52.3252,42.8077 L -52.3718,42.8576 L -52.4861,42.9887 L -52.5293,43.0417 L -52.6342,43.1801 L -52.6739,43.2364
 L -52.7693,43.3818 L -52.8047,43.44 L -52.8902,43.592 L -52.9214,43.6523 L -52.9962,43.8096 L -53.0234,43.8722
 L -53.0873,44.0342 L -53.1102,44.0987 L -53.1628,44.2643 L -53.1813,44.3304 L -53.2225,44.4994 L -53.2364,44.5663
 L -53.266,44.7378 L -53.2752,44.8053 L -53.293,44.9786 L -53.2977,45.0466 L -53.3036,45.2209 L -53.3036,45.2888
 L -53.2977,45.4631 L -53.293,45.5311 L -53.2752,45.7043 L -53.266,45.7718 L -53.2364,45.9435 L -53.2225,46.01
 L -53.1813,46.1793 L -53.1628,46.2454 L -53.1101,46.4112 L -53.0874,46.4752 L -53.0233,46.6377 L -52.9964,46.6998
 L -52.9214,46.8574 L -52.8902,46.9176 L -52.8047,47.0697 L -52.7693,47.1278 L -52.6739,47.2733 L -52.6342,47.3295
 L -52.5293,47.4679 L -52.4861,47.521 L -52.3718,47.6521 L -52.3252,47.702 L -47.702,52.3252 L -47.6521,52.3718
 L -47.521,52.4861 L -47.4679,52.5293 L -47.3295,52.6342 L -47.2733,52.6739 L -47.1278,52.7693 L -47.0697,52.8047
 L -46.9176,52.8902 L -46.8574,52.9214 L -46.6998,52.9964 L -46.6377,53.0233 L -46.4752,53.0874 L -46.4112,53.1101
 L -46.2454,53.1628 L -46.1793,53.1813 L -46.01,53.2225 L -45.9435,53.2364 L -45.7718,53.266 L -45.7043,53.2752
 L -45.5311,53.293 L -45.4631,53.2977 L -45.2888,53.3036 L -45.2209,53.3036 L -45.0466,53.2977 L -44.9786,53.293
 L -44.8053,53.2752 L -44.7378,53.266 L -44.5663,53.2364 L -44.4994,53.2225 L -44.3304,53.1813 L -44.2643,53.1628
 L -44.0987,53.1102 L -44.0342,53.0873 L -43.8722,53.0234 L -43.8096,52.9962 L -43.6523,52.9214 L -43.592,52.8902
 L -43.44,52.8047 L -43.3818,52.7693 L -43.2364,52.6739 L -43.1801,52.6342 L -43.0417,52.5293 L -42.9887,52.4861
 L -42.8576,52.3718 L -42.8077,52.3252 L -38.1846,47.7021 L -38.1378,47.652 L -38.0237,47.5212 L -37.9802,47.4677
 L -37.8754,47.3295 L -37.8357,47.2733 L -37.7403,47.1278 L -37.705,47.0697 L -37.6194,46.9176 L -37.5882,46.8574
 L -37.5133,46.6998 L -37.4863,46.6377 L -37.4222,46.4752 L -37.3996,46.4113 L -37.3468,46.2451 L -37.3284,46.1794
 L -37.2871,46.01 L -37.2733,45.9435 L -37.2437,45.7718 L -37.2344,45.7043 L -37.2166,45.5314 L -37.2119,45.4626
 L -37.206,45.2892 L -37.206,45.2205 L -37.2119,45.0471 L -37.2166,44.9783 L -37.2344,44.8053 L -37.2437,44.7378
 L -37.2733,44.5663 L -37.2872,44.4994 L -37.3257,44.3414 L -37.3535,44.2077 L -37.3721,44.0724 L -37.3814,43.9362
 L -37.3814,43.7996 L -37.3721,43.6634 L -37.3535,43.5281 L -37.3257,43.3944 L -37.2889,43.2629 L -37.2431,43.1342
 L -37.1887,43.0089 L -37.1259,42.8877 L -37.055,42.771 L -36.9762,42.6594 L -36.89,42.5535 L -36.7968,42.4536
 L -23.0139,28.6708 L -22.0508,30.0353 L -21.0663,31.6543 L -20.1945,33.3367 L -19.4396,35.0746 L -18.8051,36.86
 L -18.2939,38.6846 L -17.9083,40.5398 L -17.6503,42.417 L -17.521,44.3074 L -17.521,46.2022 L -17.6503,48.0927
 L -17.9083,49.9698 L -18.2939,51.825 L -18.8051,53.6496 L -19.4396,55.435 L -20.1945,57.173 L -21.0663,58.8554
 L -22.0508,60.4744 L -23.1435,62.0224 L -24.3393,63.4922 L -25.6326,64.877 L -27.0174,66.1703 L -28.4873,67.3661
 L -30.0353,68.4589 L -31.6543,69.4434 L -33.3367,70.3151 L -35.0746,71.07 L -36.86,71.7046 L -38.6846,72.2158
 L -40.5398,72.6013 L -42.417,72.8593 L -44.3074,72.9886 z
" stroke="black" fill="lightgray" stroke-width="0.5"/>
</svg>
